<svg fill="none" viewBox="0 0 165 41" xmlns="http://www.w3.org/2000/svg"><g stroke="#1358df" stroke-linecap="round" stroke-linejoin="round" stroke-width="2"><g opacity=".2"><path d="m32.4583 8.5415h-23.91663c-1.88698 0-3.41667 1.5297-3.41667 3.4167v17.0833c0 1.887 1.52969 3.4167 3.41667 3.4167h23.91663c1.887 0 3.4167-1.5297 3.4167-3.4167v-17.0833c0-1.887-1.5297-3.4167-3.4167-3.4167z"/><path d="m5.125 11.9585 15.375 10.25 15.375-10.25"/></g><path d="m156.458 8.5415h-23.916c-1.887 0-3.417 1.5297-3.417 3.4167v17.0833c0 1.887 1.53 3.4167 3.417 3.4167h23.916c1.887 0 3.417-1.5297 3.417-3.4167v-17.0833c0-1.887-1.53-3.4167-3.417-3.4167z"/><path d="m129.125 11.9585 15.375 10.25 15.375-10.25"/></g><circle cx="59.5" cy="20.5" fill="#1358df" fill-opacity=".4" r="4.5"/><circle cx="82.5" cy="20.5" fill="#1358df" fill-opacity=".6" r="4.5"/><circle cx="106.5" cy="20.5" fill="#1358df" fill-opacity=".8" r="4.5"/></svg>