<svg fill="none" viewBox="0 0 158 91" xmlns="http://www.w3.org/2000/svg"><circle cx="112.5" cy="45.5" fill="#1358df" fill-opacity=".1" r="44.5" stroke="#1358df" stroke-width="2"/><circle cx="112.5" cy="45.5" fill="#fff" r="35.5"/><g stroke="#1358df" stroke-linecap="round" stroke-linejoin="round" stroke-width="2"><path d="m97 40.25 15.375 10.25 15.375-10.25-15.375-10.25z"/><path d="m127.75 40.25v17.0833c0 .9062-.36 1.7752-1.001 2.416-.64.6407-1.51 1.0007-2.416 1.0007h-23.916c-.9065 0-1.7755-.36-2.4163-1.0007-.6407-.6408-1.0007-1.5098-1.0007-2.416v-17.0833"/><path d="m97 57.3335 10.25-10.25"/><path d="m117.5 47.0835 10.25 10.25"/></g><circle cx="4.5" cy="45.5" fill="#1358df" fill-opacity=".4" r="4.5"/><circle cx="28.5" cy="45.5" fill="#1358df" fill-opacity=".6" r="4.5"/><circle cx="52.5" cy="45.5" fill="#1358df" fill-opacity=".8" r="4.5"/></svg>