<svg fill="none" viewBox="0 0 50 50" xmlns="http://www.w3.org/2000/svg"><circle cx="25" cy="25" fill="#1358df" r="25"/><path d="m34.4755 29.678-2.7969-2.7911c-.9989-.9968-2.697-.598-3.0966.6978-.2997.8971-1.2986 1.3955-2.1976 1.1961-1.9978-.4984-4.6948-3.0901-5.1943-5.1833-.2997-.8972.2997-1.894 1.1987-2.193 1.2986-.3987 1.6981-2.0933.6992-3.0901l-2.7969-2.7911c-.7991-.6977-1.9978-.6977-2.697 0l-1.898 1.894c-1.8979 1.9936.1998 7.2766 4.8947 11.9616 4.6948 4.685 9.989 6.878 11.9868 4.8844l1.8979-1.894c.6993-.7974.6993-1.9936 0-2.6913z" fill="#fff"/></svg>