<svg fill="none" height="20" viewBox="0 0 20 20" width="20" xmlns="http://www.w3.org/2000/svg"><path d="m19.4755 14.678-2.7969-2.7911c-.9989-.9968-2.697-.598-3.0966.6978-.2997.8971-1.2986 1.3955-2.1976 1.1961-1.99779-.4984-4.69483-3.0901-5.19428-5.18335-.29967-.89716.29967-1.89397 1.19868-2.19297 1.29858-.39873 1.69814-2.09329.69924-3.0901l-2.79694-2.791057c-.79912-.697764-1.99781-.697764-2.69704 0l-1.897917 1.893927c-1.897913 1.99362.199781 7.27669 4.894627 11.96165 4.69483 4.685 9.98903 6.878 11.98683 4.8844l1.8979-1.894c.6993-.7974.6993-1.9936 0-2.6913z" fill="#fff"/></svg>