<svg fill="none" height="26" viewBox="0 0 19 26" width="19" xmlns="http://www.w3.org/2000/svg"><path d="m9.4996 0c-5.23782 0-9.4996 4.23632-9.4996 9.4434 0 1.3582.279664 2.655.830806 3.8546 2.375164 5.1664 6.929014 10.621 8.268444 12.1696.10036.1157.24666.1824.40062.1824s.30026-.0667.40061-.1824c1.33892-1.5483 5.89272-7.0027 8.26872-12.1696.5514-1.1996.8308-2.4964.8308-3.8546-.0005-5.20708-4.2623-9.4434-9.5004-9.4434zm0 14.3483c-2.72085 0-4.93466-2.2006-4.93466-4.90517 0-2.70486 2.21381-4.90545 4.93466-4.90545 2.7209 0 4.9347 2.20059 4.9347 4.90545.0002 2.70457-2.2136 4.90517-4.9347 4.90517z" fill="#fff"/></svg>