<svg height="30" viewBox="0 0 30 30" width="30" xmlns="http://www.w3.org/2000/svg"><path d="m2.50293 15.0027c.00145 6.1492 4.473 11.385 10.54627 12.3487v-8.7362h-3.17127v-3.6125h3.17497v-2.75c-.1419-1.3031.3032-2.60178 1.2146-3.54386.9114-.94207 2.1946-1.4299 3.5017-1.33116.9382.01515 1.874.0987 2.8.25v3.07372h-1.58c-.544-.0712-1.0908.1084-1.4866.4884-.3957.3799-.5975.919-.5484 1.4654v2.3475h3.4637l-.5537 3.6137h-2.91v8.735c6.5681-1.038 11.1738-7.0365 10.4806-13.6499-.6932-6.61336-6.4428-11.52641-13.0833-11.17985-6.64062.34656-11.84751 5.83141-11.84857 12.48105z"/></svg>