<svg height="30" viewBox="0 0 30 30" width="30" xmlns="http://www.w3.org/2000/svg"><path d="m16.25 26.25h-5v-15h5v2.5c1.0658-1.3559 2.682-2.1643 4.4062-2.2038 3.1008.0173 5.6028 2.5405 5.5938 5.6413v9.0625h-5v-8.4375c-.2-1.3967-1.3978-2.433-2.8088-2.43-.6171.0195-1.1996.2897-1.6132.7483-.4135.4585-.6222 1.0658-.578 1.6817zm-7.5 0h-5v-15h5zm-2.5-17.5c-1.38071 0-2.5-1.11929-2.5-2.5s1.11929-2.5 2.5-2.5 2.5 1.11929 2.5 2.5c0 .66304-.26339 1.29893-.73223 1.76777s-1.10473.73223-1.76777.73223z"/></svg>