<svg height="30" viewBox="0 0 30 30" width="30" xmlns="http://www.w3.org/2000/svg"><path d="m14.9823 15.4262c-3.5313 0-6.46629-2.9325-6.46629-6.40245 0-3.59 2.93499-6.52375 6.46749-6.52375 3.6525 0 6.4663 2.9325 6.4663 6.52375-.0063 1.70385-.6889 3.33545-1.8976 4.53625-1.2088 1.2008-2.8449 1.8725-4.5487 1.8675zm0-9.15495c-1.495 0-2.6325 1.25625-2.6325 2.75375 0 1.495 1.1375 2.6325 2.6337 2.6325 1.5563 0 2.6338-1.1375 2.6338-2.6325.0012-1.49875-1.0775-2.75375-2.635-2.75375zm2.575 14.48245 3.6537 3.5313c.7188.7762.7188 1.9138 0 2.6325-.7775.7763-1.9762.7763-2.575 0l-3.6525-3.5913-3.5325 3.5913c-.3587.3588-.8387.5375-1.3787.5375-.41879 0-.89754-.18-1.31754-.5375-.71875-.7187-.71875-1.8562 0-2.6337l3.71254-3.5313c-1.3408-.397-2.62687-.9592-3.82879-1.6738-.89875-.4787-1.0775-1.6749-.59875-2.5737.59875-.8975 1.67625-1.1362 2.63504-.5375 1.2982.7923 2.7897 1.2114 4.3106 1.2114s3.0124-.4191 4.3106-1.2114c.9588-.5987 2.095-.36 2.6338.5375.54.8988.2987 2.0937-.54 2.5737-1.1363.7188-2.4538 1.2576-3.8313 1.6763z"/></svg>