<svg height="30" viewBox="0 0 30 30" width="30" xmlns="http://www.w3.org/2000/svg"><path d="m26.9738 8.56854c.175-.58125-.0001-1.0075-.8276-1.0075h-2.7412c-.6975 0-1.0162.36875-1.1913.77375 0 0-1.3937 3.39871-3.3687 5.60251-.6375.6412-.9287.8437-1.2762.8437-.1738 0-.4263-.2025-.4263-.7837v-5.42876c0-.6975-.2012-1.0075-.7825-1.0075h-4.3075c-.435 0-.6975.3225-.6975.63 0 .66.9875.8125 1.0888 2.67246v4.035c0 .8838-.1588 1.045-.5088 1.045-.9287 0-3.18875-3.4112-4.53-7.31621-.26125-.75875-.525-1.065-1.225-1.065h-2.74c-.78375 0-.94.36875-.94.77375 0 .7275.92875 4.32746 4.32625 9.08876 2.265 3.2512 5.45375 5.0137 8.35875 5.0137 1.7412 0 1.9563-.3912 1.9563-1.0662v-2.4575c0-.7825.1662-.94.7174-.94.4051 0 1.1025.205 2.7288 1.7712 1.8575 1.8575 2.165 2.6913 3.2088 2.6913h2.74c.7825 0 1.1737-.3913.9487-1.1638-.2462-.7687-1.1338-1.8875-2.3113-3.2112-.6399-.755-1.5962-1.5675-1.8875-1.9738-.4062-.5237-.2887-.755 0-1.22.0013.0013 3.3401-4.7012 3.6876-6.29996z"/></svg>