<svg height="30" viewBox="0 0 30 30" width="30" xmlns="http://www.w3.org/2000/svg"><path clip-rule="evenodd" d="m10.1898 3.4035c1.2441-.05728 1.6408-.07 4.8099-.07s3.5657.01378 4.8088.07c1.243.05621 2.0915.25454 2.8339.54197.7774.29378 1.4827.75303 2.0661 1.34697.5939.58227 1.0521 1.28651 1.3448 2.065.2885.74242.4858 1.5909.543 2.83186.0573 1.2462.07 1.6428.07 4.8109 0 3.1691-.0137 3.5657-.07 4.8098-.0562 1.2409-.2545 2.0894-.543 2.8318-.2927.7786-.7517 1.484-1.3448 2.0671-.5834.594-1.2887 1.0522-2.0661 1.3449-.7424.2885-1.5909.4858-2.8318.543-1.2452.0573-1.6418.07-4.8109.07s-3.5658-.0138-4.8099-.07c-1.24088-.0562-2.08937-.2545-2.83179-.543-.77857-.2928-1.48398-.7517-2.06712-1.3449-.59354-.5826-1.05285-1.2876-1.34591-2.066-.28743-.7424-.4847-1.5909-.54197-2.8318-.05727-1.2462-.07-1.6429-.07-4.8109 0-3.1691.01379-3.5658.07-4.8088.05621-1.24306.25454-2.09154.54197-2.83396.29349-.7784.75315-1.48346 1.34697-2.06607.58231-.5934 1.28701-1.05271 2.065-1.3459.74242-.28743 1.59091-.4847 2.83185-.54197zm9.5243 2.1c-1.2303-.05622-1.5994-.06788-4.7144-.06788s-3.4841.01166-4.7144.06788c-1.13805.05197-1.75532.24181-2.16684.40197-.54409.21212-.93333.46348-1.34166.87181-.38708.37657-.68496.835-.87182 1.34167-.16015.41152-.35 1.02879-.40197 2.16685-.05621 1.2303-.06788 1.5994-.06788 4.7144s.01167 3.4841.06788 4.7144c.05197 1.138.24182 1.7553.40197 2.1668.18666.5059.48469.9651.87182 1.3416.37651.3872.83575.6852 1.34166.8719.41152.1601 1.02879.35 2.16684.4019 1.2303.0562 1.5983.0679 4.7144.0679 3.116 0 3.4841-.0117 4.7144-.0679 1.138-.0519 1.7553-.2418 2.1668-.4019.5441-.2122.9333-.4635 1.3417-.8719.3871-.3765.6851-.8357.8718-1.3416.1601-.4115.35-1.0288.4019-2.1668.0563-1.2303.0679-1.5994.0679-4.7144s-.0116-3.4841-.0679-4.7144c-.0519-1.13806-.2418-1.75533-.4019-2.16685-.2122-.54409-.4635-.93333-.8718-1.34167-.3766-.38704-.8351-.68492-1.3417-.87181-.4115-.16016-1.0288-.35-2.1668-.40197zm-6.2046 13.0932c.8322.3464 1.7589.3932 2.6218.1323.8628-.2609 1.6083-.8133 2.1092-1.5628.5008-.7495.7259-1.6497.6368-2.5467s-.4869-1.7353-1.1254-2.3716c-.407-.4068-.8991-.7182-1.441-.912-.5418-.1937-1.1199-.2649-1.6925-.2084-.5727.0565-1.1257.2392-1.6192.5351-.4936.2958-.9154.6974-1.2351 1.1759-.3197.4784-.5294 1.0218-.6139 1.591s-.0417 1.1501.1252 1.7008c.1669.5506.4539 1.0575.8402 1.484.3863.4264.8624.762 1.3939.9824zm-2.7501-7.8368c.5568-.5569 1.2179-.9986 1.9454-1.29996.7276-.30136 1.5074-.45647 2.2949-.45647s1.5673.15511 2.2948.45647c.7276.30136 1.3886.74306 1.9455 1.29996.5568.5568.9985 1.2179 1.2999 1.9454.3014.7276.4565 1.5074.4565 2.2949s-.1551 1.5672-.4565 2.2948c-.3014.7275-.7431 1.3886-1.2999 1.9455-1.1246 1.1246-2.6499 1.7564-4.2403 1.7564s-3.1157-.6318-4.2403-1.7564c-1.12463-1.1246-1.75642-2.6499-1.75642-4.2403 0-1.5905.63179-3.1157 1.75642-4.2403zm11.5669-.86337c.138-.13017.2485-.28671.3249-.46033.0764-.17363.1172-.36083.12-.55051.0027-.18967-.0326-.37798-.1039-.55376s-.1772-.33547-.3113-.4696c-.1341-.13414-.2938-.24-.4696-.31132-.1758-.07131-.3641-.10663-.5538-.10387-.1897.00277-.3768.04356-.5505.11997-.1736.07641-.3301.18688-.4603.32487-.2532.26837-.3918.62483-.3864.99371.0054.36889.1543.72116.4152.98203.2609.26088.6131.40978.982.41518s.7254-.1332.9937-.38637z" fill-rule="evenodd"/></svg>