<svg height="30" viewBox="0 0 30 30" width="30" xmlns="http://www.w3.org/2000/svg"><path d="m28.4282 14.6984c0-1.7064-1.389-3.0942-3.0945-3.0942-.7389 0-1.4301.2703-1.9878.7431-.018.0111-.0366.0216-.0543.033-2.0121-1.2873-4.6803-2.1093-7.6317-2.2209l1.7616-5.00943 4.3968 1.0512c.0036 1.3899 1.1343 2.52 2.526 2.52 1.3926 0 2.5266-1.1331 2.5266-2.5263 0-1.3938-1.134-2.5269-2.5266-2.5269-1.0587 0-1.9632.6546-2.3382 1.578l-5.2092-1.245-2.1633 6.14703c-3.0777.0579-5.86681.8907-7.95391 2.2212-.5619-.4875-1.263-.7653-2.0154-.7653-1.7061 0-3.093 1.3881-3.093 3.0942 0 1.0554.5445 2.0304 1.4268 2.598-.05634.3091-.08575.6226-.0879.9369 0 4.4658 5.4129 8.0991 12.06571 8.0991 6.654 0 12.0672-3.6333 12.0672-8.0991-.0016-.3053-.0289-.6099-.0816-.9105.906-.5634 1.4667-1.5525 1.4667-2.6241zm-9.3492 4.0059c-.2497 0-.4969-.0492-.7275-.1447-.2306-.0956-.4402-.2356-.6167-.4122-.1764-.1766-.3164-.3862-.4118-.6169s-.1444-.478-.1442-.7276c0-.3761.1116-.7436.3206-1.0562.209-.3127.5059-.5563.8534-.7001.3474-.1438.7297-.1814 1.0985-.1079s.7075.2546.9733.5206.4468.6048.52.9736c.0732.3689.0354.7511-.1086 1.0985-.144.3473-.3879.6442-.7006.8529-.3127.2088-.6804.3201-1.0564.32zm.3783 3.2418c-.057.0582-1.4199 1.4463-4.5027 1.4463-3.0999 0-4.3389-1.4067-4.3908-1.4673-.0835-.0981-.1247-.2252-.1147-.3535.01-.1284.0704-.2475.1681-.3314.0977-.0829.2241-.1242.3519-.1148.1278.0093.2468.0684.3315.1646.0276.0312 1.062 1.1313 3.654 1.1313 2.6352 0 3.7917-1.1394 3.804-1.1505.0903-.089.2119-.1392.3387-.1398.1269-.0006.2489.0484.3401.1366.0912.0881.1443.2084.148.3352.0037.1267-.0422.2499-.1281.3433zm-10.21501-5.1432c-.00437-.2525.0416-.5033.13523-.7378.09362-.2345.23302-.448.41005-.628.17704-.1801.38813-.323.62103-.4206.2329-.0975.4829-.1477.7354-.1476s.5024.0505.7352.1483.4438.241.6207.4212.3161.3938.4095.6284.1391.4854.1345.7379c-.0091.4982-.2135.973-.5691 1.3221-.3557.3491-.8342.5445-1.3326.5443s-.9767-.1961-1.33203-.5456c-.35534-.3494-.55927-.8244-.56788-1.3226z"/></svg>