<svg fill="none" viewBox="0 0 78 77" xmlns="http://www.w3.org/2000/svg"><g stroke="#253053" stroke-width="4"><g stroke-linecap="round" stroke-linejoin="round"><path d="m44 16h-31"/><path d="m44 27h-31"/><path d="m44 38h-31"/><path d="m33 49h-20"/></g><rect height="73" rx="4" width="53" x="2" y="2"/><path d="m34.5 65.6667h-19.8333c-.7073 0-1.3856-.281-1.8857-.7811-.5-.5001-.781-1.1784-.781-1.8856s.281-1.3855.781-1.8856c.5001-.5001 1.1784-.7811 1.8857-.7811h5.3333c.7072 0 1.3855-.2809 1.8856-.781s.7811-1.1784.7811-1.8856c0-.7073-.281-1.3856-.7811-1.8857-.5001-.5-1.1784-.781-1.8856-.781h-4" stroke-linecap="round" stroke-linejoin="round"/><path d="m62.9783 27.1213c1.1716-1.1716 3.0711-1.1716 4.2426 0l5.6569 5.6569c1.1716 1.1715 1.1716 3.071 0 4.2426l-28.3363 28.3363c-.6534.6534-1.5715.9692-2.4887.8561l-5.0355-.6214c-1.3656-.1685-2.4415-1.2444-2.61-2.61l-.6213-5.0355c-.1132-.9172.2026-1.8353.8561-2.4887z" fill="#5387ed"/><path d="m67.2754 42.625-9.8995-9.8995" stroke-linecap="round" stroke-linejoin="round"/></g></svg>