<svg fill="none" viewBox="0 0 77 77" xmlns="http://www.w3.org/2000/svg"><g stroke="#253053" stroke-width="4"><g stroke-linecap="round"><path d="m44 16h-31" stroke-linejoin="round"/><path d="m44 27h-31" stroke-linejoin="round"/><path d="m44 38h-31" stroke-linejoin="round"/><path d="m44 49h-31" stroke-linejoin="round"/><path d="m41 60h-28" stroke-linejoin="round"/></g><rect height="73" rx="4" width="53" x="2" y="2"/><path d="m60 46c4.4183 0 8-3.5817 8-8s-3.5817-8-8-8-8 3.5817-8 8 3.5817 8 8 8z" fill="#5387ed" stroke-linejoin="round"/><path d="m48.8313 56.7337c-1.8129 1.7503-2.8313 4.1243-2.8313 6.5996v4.6667h29v-4.6667c0-2.4753-1.0184-4.8493-2.8313-6.5996-1.8129-1.7504-4.2716-2.7337-6.8354-2.7337h-9.6666c-2.5638 0-5.0225.9833-6.8354 2.7337z" fill="#5387ed" stroke-linecap="round" stroke-linejoin="round"/></g></svg>