<svg fill="none" viewBox="0 0 77 77" xmlns="http://www.w3.org/2000/svg"><g stroke="#253053" stroke-width="4"><g fill="#5387ed"><circle cx="29.0012" cy="29.002" r="9.19323" transform="matrix(.70710678 -.70710678 .70710678 .70710678 -12.013256 29.001434)"/><circle cx="46.0008" cy="46.002" r="4.95028" transform="matrix(.70710678 -.70710678 .70710678 .70710678 -19.055004 46.001151)"/><path d="m69.9313 59.2933-10.638 10.638c-.5694.5695-.265 1.5441.5274 1.6881l13.002 2.364c.6861.1248 1.2855-.4746 1.1607-1.1607l-2.364-13.002c-.144-.7924-1.1186-1.0968-1.6881-.5274z"/></g><path d="m54 25.3684 12.8181-1.3497c.9739-.1025 1.9441.22 2.637.8766l4.6002 4.3596c1.2596 1.1937 1.2596 3.1291 0 4.3228l-8.8873 8.4223"/><path d="m24.3819 53-1.3667 14.0531c-.0912.9372.2316 1.8671.8794 2.5331l4.3706 4.494c1.1927 1.2264 3.1266 1.2264 4.3193 0l8.4155-8.6531"/><path d="m42.6299 64.5099c-33.12604-14.7236-40.8669-41.9285-40.62444-57.5356.0427-2.74806 2.2208-4.92616 4.96888-4.96884 15.60706-.24241 42.81186 7.4987 57.53556 40.62464.9919 2.2317.4367 4.8279-1.2902 6.5549l-14.0348 14.0347c-1.727 1.7269-4.3232 2.2821-6.555 1.2902z"/><path d="m5.39453 26.7539 21.35737-21.35736"/></g></svg>