<svg fill="none" viewBox="0 0 77 77" xmlns="http://www.w3.org/2000/svg"><g stroke="#253053" stroke-width="4"><path d="m64 16h-31" stroke-linecap="round" stroke-linejoin="round"/><path d="m64 27h-31" stroke-linecap="round" stroke-linejoin="round"/><path d="m64 38h-31" stroke-linecap="round" stroke-linejoin="round"/><path d="m64 49h-19" stroke-linecap="round" stroke-linejoin="round"/><path d="m64 60h-20" stroke-linecap="round" stroke-linejoin="round"/><rect height="73" rx="4" width="53" x="22" y="2"/></g><path d="m10.7059 47.3079v17.4947c0 .58-.2293 1.1362-.6375 1.5464-.40816.4101-.96175.6405-1.53899.6405h-4.35294c-.57724 0-1.13083-.2304-1.539-.6405-.40816-.4102-.63747-.9664-.63747-1.5464v-15.3079c0-.58.22931-1.1362.63747-1.5463.40817-.4101.96176-.6405 1.539-.6405h6.52943c2.3089 0 4.5233-.9216 6.156-2.5621 1.6326-1.6404 2.5499-3.8653 2.5499-6.1853v-2.1868c0-1.16.4586-2.2725 1.2749-3.0927s1.9235-1.281 3.078-1.281 2.2617.4608 3.078 1.281 1.2749 1.9327 1.2749 3.0927v10.9342h6.5295c1.1544 0 2.2616.4608 3.078 1.281.8163.8202 1.2749 1.9327 1.2749 3.0927l-2.1765 10.9342c-.313 1.3416-.9068 2.4935-1.6919 3.2824-.785.7888-1.719 1.1718-2.661 1.0913h-15.2353c-1.7317 0-3.3925-.6912-4.617-1.9216-1.2245-1.2303-1.9124-2.899-1.9124-4.639" fill="#5387ed"/><path d="m10.7059 47.3079v17.4947c0 .58-.2293 1.1362-.6375 1.5464-.40816.4101-.96175.6405-1.53899.6405h-4.35294c-.57724 0-1.13083-.2304-1.539-.6405-.40816-.4102-.63747-.9664-.63747-1.5464v-15.3079c0-.58.22931-1.1362.63747-1.5463.40817-.4101.96176-.6405 1.539-.6405zm0 0c2.3089 0 4.5233-.9216 6.156-2.5621 1.6326-1.6404 2.5499-3.8653 2.5499-6.1853v-2.1868c0-1.16.4586-2.2725 1.2749-3.0927s1.9235-1.281 3.078-1.281 2.2617.4608 3.078 1.281 1.2749 1.9327 1.2749 3.0927v10.9342h6.5295c1.1544 0 2.2616.4608 3.078 1.281.8163.8202 1.2749 1.9327 1.2749 3.0927l-2.1765 10.9342c-.313 1.3416-.9068 2.4935-1.6918 3.2824-.7851.7888-1.7191 1.1718-2.6611 1.0913h-15.2353c-1.7317 0-3.3925-.6912-4.617-1.9216-1.2245-1.2303-1.9124-2.899-1.9124-4.639" stroke="#253053" stroke-linecap="round" stroke-linejoin="round" stroke-width="4"/></svg>