<svg fill="none" viewBox="0 0 77 77" xmlns="http://www.w3.org/2000/svg"><g stroke="#253053" stroke-linecap="round" stroke-linejoin="round" stroke-width="4"><path d="m23.8828 38.9551c1.2079-1.2079 2.8461-1.8865 4.5543-1.8865s3.3465.6786 4.5543 1.8865c1.2079 1.2079 1.8865 2.8461 1.8865 4.5543s-.6786 3.3464-1.8865 4.5543"/><path d="m14.7737 48.0648 1.1446-12.5912c.0334-.3657.1703-.7144.3947-1.0052s.5271-.5115.8725-.6364.7192-.1488 1.0777-.0689c.3585.08.6868.2605.9464.5203l18.4541 18.4541c.2598.2596.4403.5879.5203.9464.0799.3585.0561.7323-.0689 1.0777-.1249.3454-.3456.6481-.6364.8725-.2907.2244-.6394.3613-1.0052.3947l-12.5912 1.1446-12.1448 12.1449c-.4027.4026-.9488.6288-1.5182.6288-.56935 0-1.11543-.2262-1.51806-.6288l-6.07242-6.0724c-.40263-.4027-.62882-.9487-.62882-1.5181s.22619-1.1155.62882-1.5182z" fill="#5387ed"/><path d="m11.7379 51.1019 16.6992 16.6992c.4026.4026.6288.9487.6288 1.5181s-.2262 1.1155-.6288 1.5181l-1.5181 1.5181c-.4027.4026-.9487.6288-1.5181.6288s-1.1155-.2262-1.5181-.6288l-7.5906-7.5905"/><path d="m45 74.9968 10.547-10.4269c.3895-.3852 1.0165-.3852 1.406 0l3.3462 3.3081c.3835.379.9984.3859 1.3902.0154l12.9159-12.2137m0 0v7.6097m0-7.6097h-7.6974"/><path d="m57 38c9.9411 0 18-8.0589 18-18s-8.0589-18-18-18-18 8.0589-18 18 8.0589 18 18 18z"/><path d="m62.6 14.0017c-.3623-.6283-.8887-1.1463-1.5228-1.4985-.6342-.3522-1.3522-.5253-2.0772-.5009h-4c-1.0609 0-2.0783.4213-2.8284 1.1712-.7502.7499-1.1716 1.7671-1.1716 2.8276 0 1.0606.4214 2.0777 1.1716 2.8277.7501.7499 1.7675 1.1712 2.8284 1.1712h4c1.0609 0 2.0783.4213 2.8284 1.1712.7502.75 1.1716 1.7671 1.1716 2.8277 0 1.0605-.4214 2.0777-1.1716 2.8276-.7501.7499-1.7675 1.1712-2.8284 1.1712h-4c-.725.0244-1.443-.1487-2.0772-.5009-.6341-.3522-1.1605-.8702-1.5228-1.4985"/></g><path d="m57 8v4zm0 20v4z" fill="#5387ed"/><path d="m57 28v4m0-24v4z" stroke="#253053" stroke-linecap="round" stroke-linejoin="round" stroke-width="4"/></svg>