<svg fill="none" viewBox="0 0 77 77" xmlns="http://www.w3.org/2000/svg"><g stroke="#253053" stroke-linecap="round" stroke-linejoin="round" stroke-width="4"><path d="m66.8889 18h-56.7778c-4.47963 0-8.1111 3.9261-8.1111 8.7692v39.4616c0 4.8431 3.63147 8.7692 8.1111 8.7692h56.7778c4.4796 0 8.1111-3.9261 8.1111-8.7692v-39.4616c0-4.8431-3.6315-8.7692-8.1111-8.7692z"/><path d="m23 18v-8c0-2.12173.8165-4.15656 2.2699-5.65685 1.4534-1.5003 3.4247-2.34315 5.4801-2.34315h15.5c2.0554 0 4.0267.84285 5.4801 2.34315 1.4534 1.50029 2.2699 3.53512 2.2699 5.65685v8"/><path d="m2 48c11.3214 5.26 23.8225 8 36.5 8s25.1786-2.74 36.5-8"/><path d="m39 66c9.9411 0 18-8.0589 18-18s-8.0589-18-18-18-18 8.0589-18 18 8.0589 18 18 18z" fill="#5387ed"/><path d="m44.6 42.0017c-.3623-.6283-.8887-1.1463-1.5228-1.4985-.6342-.3522-1.3522-.5253-2.0772-.5009h-4c-1.0609 0-2.0783.4213-2.8284 1.1712-.7502.7499-1.1716 1.7671-1.1716 2.8276 0 1.0606.4214 2.0777 1.1716 2.8277.7501.7499 1.7675 1.1712 2.8284 1.1712h4c1.0609 0 2.0783.4213 2.8284 1.1712.7502.75 1.1716 1.7671 1.1716 2.8277 0 1.0605-.4214 2.0777-1.1716 2.8276-.7501.7499-1.7675 1.1712-2.8284 1.1712h-4c-.725.0244-1.443-.1487-2.0772-.5009-.6341-.3522-1.1605-.8702-1.5228-1.4985"/><path d="m39 56v4m0-24v4z"/></g></svg>