<svg fill="none" viewBox="0 0 77 77" xmlns="http://www.w3.org/2000/svg"><g stroke="#253053" stroke-linecap="round" stroke-linejoin="round" stroke-width="4"><path d="m25.3853 30.6472c-1.8198-2.9677 1.5982-6.3651 4.5838-4.5562.4484.2718.9551.4346 1.4788.475.5236.0405 1.0495-.0426 1.5348-.2423.4852-.1998.9162-.5106 1.2578-.9072.3415-.3966.5841-.8677.7078-1.3751.8251-3.377 5.6593-3.3784 6.4858 0 .1239.507.3664.9777.7078 1.374s.772.7069 1.2569.9066 1.0104.2829 1.5337.2427c.5233-.0401 1.0297-.2024 1.478-.4737 2.9857-1.8089 6.4037 1.5885 4.5838 4.5562-.2735.4457-.4372.9493-.4779 1.4698s.0429 1.0432.2438 1.5255c.201.4824.5137.9108.9127 1.2503s.873.5806 1.3834.7036c3.3975.8201 3.3989 5.6252 0 6.4466-.51.1232-.9836.3642-1.3823.7036-.3987.3393-.7112.7674-.9121 1.2494-.2009.4819-.2846 1.0042-.2442 1.5244s.2037 1.0235.4766 1.4691c1.8199 2.9677-1.5981 6.3651-4.5838 4.5562-.4484-.2718-.955-.4346-1.4787-.475-.5236-.0405-1.0495.0426-1.5348.2423-.4853.1998-.9162.5106-1.2578.9072s-.5841.8677-.7079 1.3751c-.8251 3.377-5.6592 3.3784-6.4857 0-.1239-.5069-.3664-.9777-.7078-1.374s-.772-.7069-1.2569-.9066-1.0104-.2829-1.5337-.2427c-.5233.0401-1.0297.2024-1.4781.4737-2.9856 1.8089-6.4036-1.5885-4.5838-4.5562.2735-.4457.4373-.9493.478-1.4698s-.0429-1.0432-.2439-1.5255c-.2009-.4824-.5136-.9107-.9126-1.2503-.399-.3395-.873-.5806-1.3835-.7036-3.3975-.8201-3.3988-5.6252 0-6.4466 2.2002-.5332 3.2374-3.0275 2.062-4.9465z" fill="#5387ed"/><path d="m42.2951 42.8985c2.2671-2.2534 2.2671-5.9069 0-8.1603s-5.9427-2.2534-8.2098 0c-2.267 2.2534-2.267 5.9069 0 8.1603 2.2671 2.2534 5.9427 2.2534 8.2098 0z" fill="#fff"/><path d="m10.6855 14.4067 2.8796 2.8623m51.1181-5.0141-3.1202 3.1014m-1.9243 47.7087 2.8796 2.8623m-24.3769-63.9273-.1684 4.17452m37.0272 32.46228-4.1998.1674"/></g><path d="m27.27 64.8831-14.7573-15.0003c-2.2253 2.262-6.91033 7.0904-7.8482 8.3086-1.17234 1.5227-3.19774 7.6069 1.87507 12.7633 4.05823 4.1251 9.86303 2.7872 12.25813 1.6027z" fill="#5387ed"/><path d="m11.9531 48.7874 16.4195 16.3207m-15.9406-23.0416c-.8327-5.4871.0886-11.0673 2.6334-15.9503s6.584-8.8212 11.5456-11.2567c4.9615-2.4356 10.5938-3.245 16.099-2.3136 5.5052.9313 10.6042 3.5563 14.5748 7.5029 3.9706 3.9467 6.6114 9.015 7.5484 14.4871.937 5.472.1227 11.0704-2.3276 16.002s-6.4123 8.9465-11.3249 11.476-10.5267 3.4452-16.047 2.6176c-2.9159-.0384-5.7887.606-8.3861 1.881-2.5974 1.2751-4.8463 3.1449-6.5648 5.4582-1.9745 1.9626-4.6654 3.0524-7.4807 3.0296-2.81535-.0228-5.52448-1.1564-7.53144-3.1512-2.00697-1.9949-3.14736-4.6877-3.17031-7.4861-.02295-2.7983 1.07342-5.473 3.04792-7.4356 2.32736-1.7082 4.20851-3.9436 5.49123-6.5253 1.2828-2.5817 1.9311-5.4373 1.8925-8.3356z" stroke="#253053" stroke-linecap="round" stroke-linejoin="round" stroke-width="4"/></svg>