<svg fill="none" viewBox="0 0 77 77" xmlns="http://www.w3.org/2000/svg"><g stroke="#253053" stroke-width="4"><g stroke-linecap="round" stroke-linejoin="round"><path d="m44 16h-31"/><path d="m44 27h-31"/><path d="m39 38h-26"/><path d="m35 49h-22"/><path d="m39 60h-26"/></g><rect height="73" rx="4" width="53" x="2" y="2"/><path d="m54.5396 34.5243c.8165-3.3657 5.6043-3.3657 6.4208 0 .1225.5056.3627.9751.701 1.3704.3382.3952.7651.705 1.2457.9041.4806.1992 1.0015.282 1.5202.2418.5186-.0402 1.0205-.2024 1.4647-.4732 2.9574-1.8017 6.3442 1.5832 4.5425 4.5425-.2704.444-.4323.9456-.4724 1.4639-.0402.5184.0426 1.0388.2415 1.5192.1989.4803.5083.9069.9031 1.2452.3948.3382.8639.5785 1.369.7014 3.3657.8165 3.3657 5.6043 0 6.4208-.5056.1225-.9751.3627-1.3704.701-.3952.3382-.705.7651-.9041 1.2457-.1992.4806-.282 1.0015-.2418 1.5202.0402.5186.2024 1.0205.4732 1.4647 1.8017 2.9574-1.5832 6.3442-4.5425 4.5425-.444-.2704-.9456-.4323-1.4639-.4724-.5184-.0402-1.0388.0426-1.5192.2415-.4803.1989-.9069.5083-1.2452.9031-.3382.3948-.5785.8639-.7014 1.369-.8165 3.3657-5.6043 3.3657-6.4208 0-.1225-.5056-.3627-.9751-.701-1.3704-.3382-.3952-.7651-.705-1.2457-.9041-.4806-.1992-1.0015-.282-1.5202-.2418-.5186.0402-1.0205.2024-1.4647.4732-2.9574 1.8017-6.3442-1.5832-4.5425-4.5425.2704-.444.4323-.9456.4724-1.4639.0401-.5184-.0426-1.0388-.2415-1.5192-.1989-.4803-.5083-.9069-.9031-1.2452-.3948-.3382-.8639-.5785-1.369-.7014-3.3657-.8165-3.3657-5.6043 0-6.4208.5056-.1225.9751-.3627 1.3704-.701.3952-.3382.705-.7651.9041-1.2457.1992-.4806.282-1.0015.2418-1.5202-.0402-.5186-.2024-1.0205-.4732-1.4647-1.8017-2.9574 1.5832-6.3442 4.5425-4.5425 1.9167 1.1653 4.4007.1342 4.9297-2.0412z" fill="#5387ed" stroke-linecap="round" stroke-linejoin="round"/><path d="m57.75 55c3.1756 0 5.75-2.5744 5.75-5.75s-2.5744-5.75-5.75-5.75-5.75 2.5744-5.75 5.75 2.5744 5.75 5.75 5.75z" fill="#fff" stroke-linecap="round" stroke-linejoin="round"/></g></svg>