<svg fill="none" viewBox="0 0 78 77" xmlns="http://www.w3.org/2000/svg"><g stroke="#253053" stroke-width="4"><rect height="73" rx="4" transform="matrix(-1 0 0 -1 126 150)" width="61" x="63" y="75"/><path d="m2 17h45v-15h-41c-2.20914 0-4 1.79086-4 4z"/><path d="m63 17h-61" stroke-linecap="round" stroke-linejoin="round"/><path d="m53 30h-41" stroke-linecap="round" stroke-linejoin="round"/><path d="m32 41h-15" stroke-linecap="round" stroke-linejoin="round"/><path d="m30 52h-13" stroke-linecap="round" stroke-linejoin="round"/><path d="m38 63h-21" stroke-linecap="round" stroke-linejoin="round"/><path d="m68.5645 43.541c1.7082 0 3.3464.6786 4.5543 1.8865s1.8864 2.8461 1.8864 4.5543-.6785 3.3464-1.8864 4.5543-2.8461 1.8865-4.5543 1.8865" stroke-linecap="round" stroke-linejoin="round"/></g><path d="m55.6837 43.5415 9.7127-8.0939c.2822-.2351.6256-.3849.9898-.4318.3643-.0469.7344.011 1.067.1669.3326.156.6138.4034.8108.7135.1969.31.3014.6697.3012 1.037v26.0981c.0002.3673-.1043.727-.3012 1.037-.197.3101-.4782.5575-.8108.7135-.3326.1559-.7027.2138-1.067.1669-.3642-.0469-.7076-.1967-.9898-.4318l-9.7127-8.0939h-17.1754c-.5694 0-1.1155-.2262-1.5182-.6288-.4026-.4026-.6288-.9487-.6288-1.5181v-8.5877c0-.5694.2262-1.1155.6288-1.5181.4027-.4026.9488-.6288 1.5182-.6288z" fill="#5387ed"/><path d="m55.6837 43.5415 9.7127-8.0939c.2822-.2351.6256-.3849.9898-.4318.3643-.0469.7345.011 1.067.1669.3326.156.6138.4034.8108.7135.1969.31.3014.6697.3012 1.037v26.0981c.0002.3673-.1043.727-.3012 1.037-.197.3101-.4782.5575-.8108.7135-.3325.1559-.7027.2138-1.067.1669-.3642-.0469-.7076-.1967-.9898-.4318l-9.7127-8.0939h-17.1754c-.5694 0-1.1155-.2262-1.5182-.6288-.4026-.4026-.6288-.9487-.6288-1.5181v-8.5877c0-.5694.2262-1.1155.6288-1.5181.4027-.4026.9488-.6288 1.5182-.6288z" stroke="#253053" stroke-linecap="round" stroke-linejoin="round" stroke-width="4"/><path d="m51.39 43.541v23.6162c0 .5694-.2262 1.1155-.6288 1.5181-.4027.4026-.9487.6288-1.5181.6288h-2.147c-.5694 0-1.1154-.2262-1.5181-.6288-.4026-.4026-.6288-.9487-.6288-1.5181v-10.7346" stroke="#253053" stroke-linecap="round" stroke-linejoin="round" stroke-width="4"/></svg>