<svg fill="none" viewBox="0 0 77 77" xmlns="http://www.w3.org/2000/svg"><g stroke="#253053" stroke-width="4"><rect height="54" rx="4" transform="matrix(-1 0 0 -1 150 150)" width="73" x="75" y="75"/><g stroke-linecap="round"><path d="m21 57.5 7.403-7.2195c.374-.3647.9658-.3801 1.3582-.0352l3.9333 3.4564c.3944.3466.9897.3292 1.3632-.04l9.884-9.7715c.3896-.3852 1.0165-.3852 1.4061 0l3.3462 3.3081c.3834.379.9983.3859 1.3901.0154l12.9159-12.2137m0 0v7.6098m0-7.6098h-7.6974" stroke-linejoin="round"/><path d="m12 35v28c0 1.1046.8954 2 2 2h50"/><path d="m39 38c9.9411 0 18-8.0589 18-18s-8.0589-18-18-18-18 8.0589-18 18 8.0589 18 18 18z" fill="#5387ed" stroke-linejoin="round"/><path d="m44.6 14.0017c-.3623-.6283-.8887-1.1463-1.5228-1.4985-.6342-.3522-1.3522-.5253-2.0772-.5009h-4c-1.0609 0-2.0783.4213-2.8284 1.1712-.7502.7499-1.1716 1.7671-1.1716 2.8276 0 1.0606.4214 2.0777 1.1716 2.8277.7501.7499 1.7675 1.1712 2.8284 1.1712h4c1.0609 0 2.0783.4213 2.8284 1.1712.7502.75 1.1716 1.7671 1.1716 2.8277 0 1.0605-.4214 2.0777-1.1716 2.8276-.7501.7499-1.7675 1.1712-2.8284 1.1712h-4c-.725.0244-1.443-.1487-2.0772-.5009-.6341-.3522-1.1605-.8702-1.5228-1.4985" stroke-linejoin="round"/><path d="m39 28v4m0-24v4z" stroke-linejoin="round"/></g></g></svg>