<svg fill="none" viewBox="0 0 77 78" xmlns="http://www.w3.org/2000/svg"><g stroke="#253053" stroke-linecap="round" stroke-linejoin="round" stroke-width="4"><path d="m16.0396 4.52425c.8165-3.36567 5.6043-3.36567 6.4208 0 .1225.50562.3627.97516.701 1.37042.3382.39525.7651.70505 1.2457.90418.4806.19912 1.0015.28195 1.5202.24173.5186-.04021 1.0205-.20233 1.4647-.47316 2.9574-1.80167 6.3442 1.58316 4.5425 4.54248-.2704.444-.4323.9456-.4724 1.4639-.0402.5184.0426 1.0388.2415 1.5192.1989.4803.5083.9069.9031 1.2452.3948.3382.8639.5785 1.369.7014 3.3657.8165 3.3657 5.6043 0 6.4208-.5056.1225-.9751.3627-1.3704.701-.3952.3382-.705.7651-.9041 1.2457-.1992.4806-.282 1.0015-.2418 1.5202.0402.5186.2024 1.0205.4732 1.4647 1.8017 2.9574-1.5832 6.3442-4.5425 4.5425-.444-.2704-.9456-.4323-1.4639-.4724-.5184-.0402-1.0388.0426-1.5192.2415-.4803.1989-.9069.5083-1.2452.9031-.3382.3948-.5785.8639-.7014 1.369-.8165 3.3657-5.6043 3.3657-6.4208 0-.1225-.5056-.3627-.9751-.701-1.3704-.3382-.3952-.7651-.705-1.2457-.9041-.4806-.1992-1.0015-.282-1.5202-.2418-.5186.0402-1.0205.2024-1.4647.4732-2.95742 1.8017-6.34417-1.5832-4.5425-4.5425.27044-.444.43231-.9456.47243-1.4639.04012-.5184-.04263-1.0388-.24153-1.5192-.19889-.4803-.50832-.9069-.90313-1.2452-.39481-.3382-.86386-.5785-1.36902-.7014-3.36567-.8165-3.36567-5.6043 0-6.4208.50562-.1225.97516-.3627 1.37042-.701.39525-.3382.70505-.7651.90418-1.2457.19912-.4806.28195-1.0015.24173-1.5202-.04021-.5186-.20233-1.0205-.47316-1.4647-1.80167-2.95742 1.58316-6.34417 4.54248-4.5425 1.9167 1.16533 4.4007.13417 4.9297-2.04125z" fill="#5387ed"/><path d="m19.25 25c3.1756 0 5.75-2.5744 5.75-5.75s-2.5744-5.75-5.75-5.75-5.75 2.5744-5.75 5.75 2.5744 5.75 5.75 5.75z" fill="#fff"/><path d="m55.1637 29.0548c2.9166-4.1589 9.3381-1.5126 8.6117 3.5489-.1093.7602-.0413 1.5361.1985 2.2645s.6446 1.3887 1.1815 1.9271c.5368.5384 1.1906.9397 1.908 1.1713.7175.2316 1.4783.2869 2.2207.1615 4.9416-.8333 7.6521 5.675 3.6341 8.7328-.603.4587-1.0916 1.0563-1.4259 1.7441s-.5051 1.4465-.4982 2.2144c.0068.7678.1909 1.5232.5374 2.2048.3464.6815.8455 1.2699 1.4565 1.7174 4.0723 2.9787 1.4811 9.5369-3.4749 8.795-.7445-.1116-1.5042-.0422-2.2174.2027s-1.3597.6583-1.8869 1.2066-.9202 1.216-1.1469 1.9487c-.2268.7327-.281 1.5097-.1581 2.2678.8159 5.0468-5.5569 7.815-8.5509 3.7115-.4492-.6159-1.0343-1.1148-1.7078-1.4562-.6735-.3415-1.4164-.5158-2.1682-.5089-.7519.007-1.4916.195-2.1589.5489-.6673.3538-1.2435.8635-1.6817 1.4875-2.9166 4.1589-9.3381 1.5126-8.6117-3.5489.1093-.7602.0413-1.5361-.1985-2.2645s-.6446-1.3887-1.1815-1.9271c-.5368-.5384-1.1906-.9397-1.908-1.1713-.7175-.2316-1.4783-.2869-2.2207-.1615-4.9416.8333-7.6521-5.675-3.6341-8.7328.603-.4587 1.0916-1.0563 1.4259-1.7441s.505-1.4465.4982-2.2144-.1909-1.5233-.5374-2.2048c-.3464-.6815-.8455-1.2699-1.4565-1.7174-4.0723-2.9787-1.4811-9.5369 3.4749-8.795.7445.1116 1.5042.0422 2.2174-.2027s1.3597-.6583 1.8869-1.2066.9202-1.216 1.1469-1.9487c.2268-.7327.281-1.5097.1581-2.2678-.8159-5.0468 5.5569-7.815 8.5509-3.7115 1.94 2.6556 5.8297 2.6161 7.7166-.0713z"/><path d="m48.3881 58.8762c4.2593 1.7552 9.1053-.3482 10.824-4.6981 1.7186-4.3498-.341-9.299-4.6002-11.0542-4.2593-1.7552-9.1053.3482-10.8239 4.698-1.7187 4.3499.3409 9.2991 4.6001 11.0543z"/></g></svg>