<svg fill="none" viewBox="0 0 77 79" xmlns="http://www.w3.org/2000/svg"><g stroke="#253053" stroke-width="4"><path d="m60 54c4.4183 0 8-3.5817 8-8s-3.5817-8-8-8-8 3.5817-8 8 3.5817 8 8 8z" fill="#5387ed" stroke-linejoin="round"/><path d="m16 19c4.4183 0 8-3.5817 8-8 0-4.41828-3.5817-8-8-8s-8 3.58172-8 8c0 4.4183 3.5817 8 8 8z" stroke-linejoin="round"/><g stroke-linecap="round"><path d="m48.8313 64.7337c-1.8129 1.7503-2.8313 4.1243-2.8313 6.5996v4.6667h29v-4.6667c0-2.4753-1.0184-4.8493-2.8313-6.5996-1.8129-1.7504-4.2716-2.7337-6.8354-2.7337h-9.6666c-2.5638 0-5.0225.9833-6.8354 2.7337z" fill="#5387ed" stroke-linejoin="round"/><path d="m4.8313 29.7337c-1.81285 1.7503-2.8313 4.1243-2.8313 6.5996v4.6667h29v-4.6667c0-2.4753-1.0184-4.8493-2.8313-6.5996-1.8129-1.7504-4.2716-2.7337-6.8354-2.7337h-9.6666c-2.56379 0-5.02255.9833-6.8354 2.7337z" stroke-linejoin="round"/><path d="m39 9.36426h16.0016c2.2092 0 3.9984 1.79084 3.9984 4.00004v9"/><path d="m43.3633 16.0928c-.1918-.1918-3.6249-3.6249-5.8402-5.8402-.3905-.39052-.3896-1.0228.0009-1.41332l5.8393-5.83928"/><path d="m37 69.6357c-.535 0-9.3254 0-16.0016 0-2.2092 0-3.9984-1.7908-3.9984-4v-9"/><path d="m32.6357 62.9072c.1918.1918 3.6249 3.6249 5.8402 5.8402.3905.3905.3896 1.0228-.0009 1.4133l-5.8393 5.8393"/></g></g></svg>