<svg fill="none" viewBox="0 0 79 80" xmlns="http://www.w3.org/2000/svg" xmlns:xlink="http://www.w3.org/1999/xlink"><clipPath id="a"><path d="m0 0h78.3333v80h-78.3333z"/></clipPath><g clip-path="url(#a)"><path d="m50.2274 16.1844-11.9331-7.37202 12.0363-7.04464 11.8095 6.84358zm14.1244-8.17966-13.6185-7.891975c-.2525-.1459009-.5615-.1449381-.8127.001664l-13.6185 7.970811c-.0082.00508-.0138.01192-.022.0171-.0418.02639-.081.05682-.1177.0911-.0108.0099-.0225.01848-.033.02875-.0413.04313-.0798.09005-.1123.14319-.0007.00236-.0017.00446-.0032.00648-.0056.01026-.009.02086-.0145.03183-.0251.0463-.0458.09355-.0611.14249-.006.0185-.0099.03734-.0144.0555-.0108.04594-.018.09144-.0206.13704-.0014.01192-.005.02324-.0055.03525l-.1474 6.27773-2.358 1.8564c-.2018.1585-.3176.4045-.3121.6623.0053.2584.131.4989.34.6489l2.4113 1.7363.1448 5.0397c.0079.2778.1552.5321.3905.6765l1.994 1.2178c.3842.2347.8829.111 1.1152-.276h.0003c.232-.3867.1094-.8895-.2738-1.1237l-1.6162-.9875-.1433-5.0005c-.0072-.2555-.1328-.4936-.3397-.6423l-1.855-1.3357 1.804-1.4203c.1924-.1508.3064-.3809.3125-.6258l.123-5.2441 11.8774 7.3379.4443.2743c.1302.0805.2768.1209.4243.1209.15 0 .3005-.0425.4324-.1265l.3223-.2044 12.141-7.71866-.0703 14.58336-12.0707 7.1232v-.0285c-.8423.6148-1.5248.1775-1.6233.1048-.0072-.0055-.018-.013-.019-.0137l-5.7339-3.5028c-.3841-.2343-.8831-.1105-1.1148.2758v.0004c-.2327.3866-.1102.8893.2733 1.1236l6.902 4.217c.1292.0787.2754.1184.4207.1184.1412 0 .2832-.0375.4103-.1124l13.7749-8.1281c.2475-.1467.4005-.4135.4018-.7025l.0785-16.25769c.0013-.29452-.1543-.56685-.4073-.71337z" fill="#fabf0a"/><path d="m53.095 19.9901c-.285-.3487-.7974-.3984-1.1427-.1104l-4.9675 4.1352c-.2297.1915-.337.4938-.2797.7887.057.295.2704.534.5544.6238l2.3683.7458 2.9188.9194.3852.1213c.0802.0257.1618.0375.242.0375.3457 0 .6663-.2242.7752-.575.1335-.4312-.105-.8905-.533-1.0252l-4.242-1.336 3.8121-3.1726c.3455-.288.3944-.8039.1089-1.1525z" fill="#fabf0a"/><path d="m18.3623 39.3377-15.9426-9.5555 15.3823-8.9341 15.7038 8.8841zm20.8469-1.418-3.3035-2.1263v-6.101c0-.0098-.0034-.0185-.0039-.0277-.0015-.0538-.0086-.1065-.0213-.159-.004-.0185-.0088-.037-.0142-.0548-.0146-.0475-.0343-.0938-.0578-.139-.0078-.0143-.0128-.0288-.021-.042-.0027-.0048-.0042-.009-.0065-.0133-.0322-.0522-.0707-.0984-.1117-.1405-.0085-.0087-.0183-.0152-.0273-.023-.0403-.0377-.0832-.0702-.1293-.0987-.0079-.0043-.0135-.0113-.0217-.016l-17.2977-9.7857c-.249-.1415-.5545-.1395-.8021.0044l-16.984112 9.8648c-.009171.0055-.015965.0133-.025135.0195-.041781.0263-.080845.0568-.117871.0918-.011889.0105-.024797.0205-.035667.0319-.04246.0445-.081524.0925-.113793.1476-.001359.002-.001699.0044-.003058.0062-.005095.0085-.007472.0182-.0122279.0267-.0264953.05-.047216.1011-.0628413.153-.0050954.0181-.0084922.0361-.012908.0543-.0108699.0492-.0173239.0995-.01902232.1497-.00033968.0105-.0040762.0208-.0040762.0318l.01800312 4.7148c.0016985.451.3648206.8155.8118436.8155h.003057c.448378-.0016.810478-.3696.808448-.8216l-.01223-3.2695 16.01769 9.6.3122.187c.1282.0766.2712.1151.4148.1151.1502 0 .2999-.0418.4329-.1258l.4636-.2942 15.0112-9.5215v5.0682c0 .2797.1413.5398.3753.6902l2.6177 1.6848-2.5463 1.6745c-.2275.15-.3662.4045-.3682.6785l-.0747 8.7007-15.015 9.2678c-.8876.7627-1.623.1698-1.6235.1695l-15.94703-9.446-.03771-9.8503c-.0017-.4522-.35327-.8187-.814563-.8155-.000679 0-.000679 0-.000679 0-.448381.002-.8101439.3698-.8084455.822l.0397429 10.3165c.0010191.2895.1531976.5561.4008266.7028l17.453558 10.3382c.1272.0753.2692.113.4113.113.1472 0 .2939-.04.4234-.1205l16.7501-10.3382c.2389-.1477.3852-.409.3879-.6915l.0743-8.7153 3.2358-2.1284c.231-.1513.37-.4113.3687-.6891-.0013-.2784-.1427-.5367-.3753-.6864z" fill="#5566ba"/><path d="m13.3774 52.6812c.1461.2757.4267.4332.7171.4332.1287 0 .2595-.0312.3814-.0965l6.5399-3.5182c.2453-.1318.4067-.3805.4276-.6598.0209-.2792-.1005-.55-.323-.7178l-5.892-4.4474c-.3585-.2703-.8676-.197-1.1363.1647-.2691.3617-.1953.8752.1634 1.1457l4.8696 3.6765-5.4135 2.9116c-.3957.2134-.5451.709-.3342 1.108z" fill="#5566ba"/><g fill="#253053"><path d="m58.3285 55.9822-16.8826-10.594 17.4061-9.8545 17.0282 9.883zm19.1564 2.8887h.0003c.448 0 .8115-.3665.8115-.8187v-12.6483c0-.0105-.0033-.0205-.0037-.0307-.002-.0512-.0085-.101-.0201-.1512-.0041-.0175-.007-.0348-.0122-.052-.016-.0523-.037-.1041-.0638-.1545-.0044-.0081-.0072-.0168-.0119-.0253-.0015-.0017-.0018-.0037-.0026-.0058-.033-.0552-.0722-.1037-.1147-.1484-.0102-.0105-.0213-.0191-.0325-.0293-.038-.0357-.0785-.0672-.1224-.0947-.0084-.0051-.0141-.0126-.0231-.0173l-18.6275-10.8122c-.2478-.1438-.5534-.1456-.8027-.0041l-19.0971 10.8118c-.2567.1452-.4149.4185-.4145.7148l.0115 8.3152-3.4205 2.0413c-.2254.1347-.372.3704-.3952.6334-.0227.2626.0815.521.2802.6925l3.5321 3.0528-.0866 7.5882c-.003.289.1448.5581.3893.7083l18.6282 11.4433c.1301.0795.2761.1195.4225.1195.1423 0 .284-.0376.4115-.1126l19.1756-11.3644c.2477-.1468.4002-.4155.4002-.7055v-4.6723c0-.4525-.3635-.819-.8115-.819h-.0003c-.448 0-.8115.3665-.8115.819v4.2038l-17.4335 10.3315c-.0462.0275-.0917.0584-.1367.0809-.0192.01-.0373.0138-.0563.023-.91.4233-1.5952-.0919-1.6237-.114v.0081l-16.9247-10.3966.0852-7.5047c.0028-.2423-.1008-.4733-.2835-.6312l-2.9587-2.5571 2.8442-1.697c.2468-.148.3983-.4159.398-.7057l-.0105-7.4168 16.85 10.5738.4675.2933c.1313.0824.2798.1235.4288.1235.1442 0 .2879-.0388.4164-.1158l.311-.1872 17.6265-10.6106v11.2063c0 .4522.3635.8187.8115.8187z"/><path d="m63.2958 62.1275c-.2552-.3713-.7612-.4638-1.1295-.206l-6.862 4.8013c-.2318.1624-.3633.4334-.348.7172.0152.2837.1755.5392.4232.6747l4.7083 2.5805 1.316.721.5557.3048c.1236.0672.2561.0993.3873.0993.288 0 .5668-.1551.714-.4278.2143-.3973.0682-.8943-.3255-1.11l-5.423-2.9717 5.7797-4.0441c.3683-.2577.4591-.7679.2038-1.1392z"/></g></g></svg>