<svg fill="none" viewBox="0 0 81 80" xmlns="http://www.w3.org/2000/svg" xmlns:xlink="http://www.w3.org/1999/xlink"><clipPath id="a"><path d="m.333984 0h80v80h-80z"/></clipPath><g clip-path="url(#a)"><path d="m45.6028 74.9182c-.1693.351-.4703.621-.8378.751-.3673.1302-.7713.11-1.1238-.0563l-16.3889-7.817c-.3511-.1692-.6211-.4702-.7513-.8375-.1302-.3672-.11-.771.0563-1.1235l1.7594-3.649c.1691-.3422.4643-.6055.8233-.735.3592-.1295.7545-.1152 1.1032.0403l16.3801 7.817c.1747.0829.3312.1995.4607.343s.2295.311.294.4934c.0647.1821.0925.3751.0823.5681-.0103.193-.0585.3822-.1421.5564zm-32.4521-15.4758c-.1693.351-.4704.6208-.8378.751-.3675.13-.7714.1098-1.124-.0563l-9.97578-4.7395c-.351126-.1692-.621172-.4702-.751334-.8375-.130163-.3672-.1099-.771.056375-1.1235l1.759399-3.649c.17101-.3517.47375-.6219.8426-.7519s.7741-.1095 1.12793.0572l10.01101 4.7833c.1747.083.3312.1995.4608.343.1295.1435.2294.3112.2939.4934.0646.1821.0926.3751.0823.5681s-.0585.3822-.142.5565z" fill="#f1564a"/><path d="m78.7037 30.9701c-.1692.3532-.4718.6248-.8413.755-.3695.1303-.7757.1085-1.1292-.0603l-10.0287-4.7835c-.351-.1692-.6211-.4702-.7513-.8375-.1302-.3672-.1098-.771.0565-1.1234l1.7593-3.6491c.1694-.351.4704-.621.8379-.751.3673-.1302.7713-.11 1.124.0563l10.0373 4.7833c.3517.171.622.4737.752.8424.1302.3686.1097.7736-.057 1.1273zm-26.1007-12.4512c-.083.1747-.1995.3312-.3431.4605-.1435.1295-.3112.2294-.4935.294-.1822.0645-.3754.0925-.5685.0822-.193-.0103-.3822-.0585-.5567-.142l-16.292-7.7819c-.3533-.1694-.6255-.4713-.7572-.8401-.1318-.3689-.1126-.77483.0534-1.12957l1.7595-3.64037c.171-.3516.4736-.62168.8425-.7517.369-.13003.7741-.10953 1.128.05703l16.292 7.76431c.3518.171.622.4736.7521.8423.13.3686.1095.7737-.0571 1.1274z" fill="#f1564a"/><path d="m17.6998 17.3023-1.739 3.6427c-.3515.7361-.0393 1.618.6974 1.9693l10.0115 4.7754c.7366.3513 1.6188.0393 1.9703-.6971l1.739-3.6426c.3515-.7364.0393-1.618-.6973-1.9693l-10.0115-4.7754c-.7367-.3514-1.6189-.0393-1.9704.697z" fill="#f1564a"/><path d="m43.7838 29.7496-1.739 3.6425c-.3515.7364-.0393 1.6182.6973 1.9695l16.379 7.8124c.7365.3515 1.6187.0393 1.9702-.697l1.739-3.6425c.3515-.7364.0393-1.6182-.6973-1.9695l-16.379-7.8124c-.7365-.3515-1.6187-.0393-1.9702.697z" fill="#f1564a"/><path d="m52.2701 53.7095-1.739 3.6427c-.3515.7363-.0393 1.618.6974 1.9693l10.0433 4.7905c.7367.3514 1.6188.0394 1.9703-.697l1.739-3.6425c.3515-.7363.0394-1.6181-.6973-1.9695l-10.0433-4.7905c-.7367-.3513-1.6189-.0393-1.9704.697z" fill="#f1564a"/><path d="m19.8544 38.2564-1.7388 3.6425c-.3515.7363-.0393 1.6182.6973 1.9695l16.3392 7.7935c.7367.3513 1.6188.0393 1.9703-.697l1.739-3.6427c.3515-.7361.0394-1.618-.6973-1.9693l-16.3393-7.7935c-.7367-.3513-1.6187-.0393-1.9704.697z" fill="#f1564a"/><g fill="#97d6d7"><path d="m12.9951 27.1666-7.8121 16.3639c-.35152.7363-.03932 1.618.69733 1.9693l3.64418 1.7383c.73669.3514 1.61879.0392 1.97029-.6971l7.8122-16.3639c.3515-.7363.0393-1.618-.6974-1.9693l-3.6442-1.7382c-.7367-.3515-1.6188-.0393-1.9703.697z"/><path d="m25.3994 1.19686-4.7281 9.90404c-.3515.7363-.0394 1.618.6973 1.9694l3.6442 1.7382c.7366.3514 1.6188.0393 1.9703-.697l4.7282-9.90403c.3515-.73632.0393-1.61807-.6974-1.96944l-3.6441-1.738201c-.7367-.351365-1.6189-.039297-1.9704.697031z"/><path d="m53.9278 66.5962-4.7282 9.904c-.3515.7364-.0393 1.6182.6973 1.9695l3.6442 1.7382c.7367.3513 1.6188.0393 1.9703-.697l4.7282-9.904c.3515-.7363.0393-1.6182-.6973-1.9695l-3.6442-1.7382c-.7367-.3513-1.6188-.0393-1.9703.697z"/><path d="m69.4112 34.1744-7.8122 16.3638c-.3515.7363-.0393 1.6182.6973 1.9695l3.6442 1.7382c.7367.3513 1.6188.0393 1.9703-.697l7.812-16.3639c.3517-.7363.0394-1.618-.6973-1.9695l-3.6442-1.7381c-.7365-.3514-1.6186-.0394-1.9701.697z"/><path d="m57.8438 16.6696-4.7282 9.904c-.3515.7363-.0393 1.618.6973 1.9693l3.6442 1.7383c.7367.3514 1.6188.0392 1.9703-.6971l4.7282-9.904c.3515-.7364.0393-1.618-.6973-1.9694l-3.6442-1.7382c-.7367-.3514-1.6188-.0393-1.9703.6971z"/><path d="m45.4491 42.648-7.812 16.3638c-.3515.7364-.0393 1.618.6973 1.9694l3.6442 1.7383c.7367.3513 1.6188.0392 1.9703-.697l7.812-16.3638c.3515-.7364.0394-1.6182-.6973-1.9695l-3.6442-1.7382c-.7366-.3513-1.6186-.0393-1.9703.697z"/><path d="m21.4834 51.1237-4.7281 9.904c-.3516.7363-.0393 1.618.6973 1.9693l3.6442 1.7383c.7366.3513 1.6188.0392 1.9703-.6972l4.7282-9.9039c.3515-.7364.0393-1.618-.6974-1.9694l-3.6441-1.7381c-.7367-.3515-1.6189-.0394-1.9704.697z"/><path d="m36.9664 18.6939-7.8122 16.3638c-.3515.7363-.0393 1.6182.6973 1.9695l3.6442 1.7382c.7367.3513 1.6188.0393 1.9703-.697l7.8122-16.3639c.3515-.7363.0393-1.618-.6973-1.9695l-3.6442-1.7381c-.7367-.3514-1.6188-.0392-1.9703.697z"/></g></g></svg>