<svg fill="none" viewBox="0 0 81 80" xmlns="http://www.w3.org/2000/svg" xmlns:xlink="http://www.w3.org/1999/xlink"><clipPath id="a"><path d="m.333984 0h80v80h-80z"/></clipPath><g clip-path="url(#a)"><path d="m40.334 0c-22.0913 0-40.000016 17.9087-40.000016 40 0 .5583.011438 1.114.034093 1.6667l27.465923-20v24.1666l33.3333-24.1666v24.1666l18.4647-13.3333c-3.5105-18.5065-19.77-32.5-39.298-32.5z" fill="#51c8e9"/><path d="m40.3342 80c22.0913 0 40-17.9087 40-40 0-.8397-.0259-1.6732-.0769-2.5l-23.2565 17.5v-25l-33.3333 24.1667v-24.1667l-22.780293 16.6667c3.173853 18.9181 19.626993 33.3333 39.446993 33.3333z" fill="#0076bd"/></g></svg>