<svg fill="none" viewBox="0 0 81 80" xmlns="http://www.w3.org/2000/svg" xmlns:xlink="http://www.w3.org/1999/xlink"><clipPath id="a"><path d="m.333984 0h80v80h-80z"/></clipPath><g clip-path="url(#a)"><path clip-rule="evenodd" d="m40.334 80c22.0913 0 40-17.9087 40-40s-17.9087-40-40-40-40.000016 17.9087-40.000016 40 17.908716 40 40.000016 40zm-15.6903-43.3333h-2.643c-.9205 0-1.6667-.7462-1.6667-1.6667s.7462-1.6667 1.6667-1.6667h4.3096c.442 0 .866.1757 1.1785.4882l7.357 7.357c.3125.3125.7365.4882 1.1785.4882h2.643c.9205 0 1.6667.7461 1.6667 1.6666s-.7462 1.6667-1.6667 1.6667h-4.3096c-.4421 0-.8661-.1757-1.1786-.4882l-7.3569-7.357c-.3125-.3125-.7365-.4881-1.1785-.4881zm15 0h-2.6431c-.9204 0-1.6666-.7462-1.6666-1.6667s.7462-1.6667 1.6666-1.6667h4.3097c.442 0 .866.1757 1.1785.4882l7.357 7.357c.3125.3125.7365.4882 1.1785.4882h2.643c.9205 0 1.6667.7461 1.6667 1.6666s-.7462 1.6667-1.6667 1.6667h-4.3096c-.4421 0-.8661-.1757-1.1786-.4882l-7.3569-7.357c-.3125-.3125-.7365-.4881-1.1785-.4881zm-17.643 5c-.9205 0-1.6667.7461-1.6667 1.6666s.7462 1.6667 1.6667 1.6667h3.3333c.9205 0 1.6667-.7462 1.6667-1.6667s-.7462-1.6666-1.6667-1.6666zm28.3333-8.3334c-.9205 0-1.6667.7462-1.6667 1.6667s.7462 1.6667 1.6667 1.6667h8.3333v3.3333c0 .9205.7462 1.6667 1.6667 1.6667s1.6666-.7462 1.6666-1.6667v-5c0-.9205-.7461-1.6667-1.6666-1.6667z" fill="#0090be" fill-rule="evenodd"/></g></svg>