<svg fill="none" viewBox="0 0 66 80" xmlns="http://www.w3.org/2000/svg" xmlns:xlink="http://www.w3.org/1999/xlink"><clipPath id="a"><path d="m.333984 0h65v80h-65z"/></clipPath><g clip-path="url(#a)"><path clip-rule="evenodd" d="m20.1858 17.553c-1.2066-9.8914-9.6345-17.553-19.851816-17.553v47.5 2.5l.089158-.0743c.191122 2.5903.685858 5.0963 1.448758 7.4823 2.08068 6.5075 10.2585 6.8903 15.0895 2.0593l3.1254-3.1253c.5627-.5628.6394-1.4402.2623-2.141-1.073-1.9952-1.6818-4.277-1.6818-6.701 0-7.824 6.3427-14.1667 14.1667-14.1667s14.1666 6.3427 14.1666 14.1667-6.3426 14.1667-14.1666 14.1667c-1.4758 0-2.899-.2257-4.2369-.6445-.6368-.1994-1.3421-.0632-1.8141.4086l-5.6515 5.6515c-3.6562 3.6562-3.097 9.822 1.8298 11.391 3.1135.9915 6.4305 1.5267 9.8727 1.5267 17.9493 0 32.5-14.5507 32.5-32.5s-14.5507-32.5-32.5-32.5c-4.4865 0-8.7605.9091-12.6482 2.553zm5.1482 29.947c0 4.1422 3.3578 7.5 7.5 7.5s7.5-3.3578 7.5-7.5-3.3578-7.5-7.5-7.5-7.5 3.3578-7.5 7.5z" fill="#fcb620" fill-rule="evenodd"/></g></svg>