<svg fill="none" viewBox="0 0 91 80" xmlns="http://www.w3.org/2000/svg"><path d="m21.4911 13.929c-5.823-1.0326-11.84742.0466-16.16614-4.79049-1.52622-1.72991-2.69773-3.91188-4.06093-6.29566-.712214-1.2454.1783-2.84283182 1.61296-2.84285h1.64161 55.8253c6.8231 0 13.5686 5.83869 14.5844 12.6091.1385.6302.0845 1.2877-.1551 1.8867-1.5672 2.831-3.188 5.6279-5.094 8.9357-.6961 1.2082-2.4437 1.2218-3.167.0298-1.3321-2.1947-2.4745-4.0526-3.4623-5.9918-1.667-3.2687-4.1094-4.6042-7.7535-4.511-7.1023.1863-14.2044.132-21.3068 0-3.1711-.0466-5.4274 1.0637-6.9781 3.8821-3.67 6.5324-7.4072 13.0233-11.2115 19.4726-.7586 1.1215-1.1595 2.4469-1.1498 3.8014.0097 1.3543.4296 2.6739 1.204 3.7843 3.7916 6.3124 7.4434 12.7023 11.0101 19.1466 1.4654 2.6554 3.5201 4.0918 6.4818 4.1073 7.6244.0465 15.2436.0465 22.8574 0 3.1013 0 5.3112-1.4441 6.7533-4.3169 1.0009-1.9819 2.1915-3.8731 3.614-6.2032.7426-1.2167 2.5559-1.18 3.2698.0538 2.0976 3.6254 4.1124 6.7369 5.0101 10.1402 1.0933 4.0995-6.9162 12.8732-11.4674 12.9662-12.4057.2407-24.8113.3727-37.1704-.1863-2.6285-.1163-5.9779-2.7874-7.5208-5.2175-6.0013-9.3947-11.37448-19.1078-16.85621-28.7821-1.009503-1.7435-1.528187-3.7283-1.500881-5.7436.027305-2.0151.59958-3.9854 1.655941-5.7007 2.65947-4.7285 5.19486-9.5501 8.23425-14.0301 1.2638-1.8712 3.5433-3.2144 5.6058-4.3557 1.698-.9706 3.7604-1.2656 5.6601-1.8479z" fill="#253053"/><path d="m32.2122 31.5769c-.0151-.0578-.0171-.1182-.0056-.1769.0112-.0587.0358-.114.0716-.1618s.082-.0869.1351-.1141c.0529-.0275.1114-.0426.1712-.044 5.5669 0 16.7862.1396 16.7862.1396 7.207.4417 9.7617 6.5531 11.8939 12.2598.0776.2018 0 .5125-.2325.5125-17.7944-.0156-25.579 1.4209-28.8199-12.4151z" fill="#253053"/><path d="m82.5275 27.3927c.0982-.1658.2376-.3032.4048-.3985.1673-.0954.3563-.1456.5489-.1456.1925 0 .3815.0502.5488.1456.1672.0953.3067.2327.4048.3985 2.2253 3.8821 4.0241 6.9878 5.7298 10.0935.1705.3439.2676.7199.2849 1.1034.0174.3838-.0453.7668-.184 1.125-1.7446 3.2376-3.5899 6.4209-5.8618 10.3885-.0976.1674-.2374.3065-.4054.403-.1679.0967-.3583.1474-.5521.1474-.1937 0-.3841-.0507-.552-.1474-.168-.0965-.3078-.2356-.4054-.403-2.2409-3.9365-4.1172-7.182-5.8927-10.4896-.13-.3609-.1827-.745-.1547-1.1277.028-.3824.1361-.7549.3174-1.0929 1.7292-3.0978 3.5434-6.1724 5.7687-10.0002z" fill="#196601"/></svg>