<svg fill="none" viewBox="0 0 138 80" xmlns="http://www.w3.org/2000/svg"><g fill="#253053"><path d="m97.9982 72.0508c-11.4198 0-21.7294-5.8685-25.4567-8.8028 2.855 3.5687 11.9432 10.7061 25.4567 10.7061 13.5138 0 21.6498-6.9787 24.0288-10.4681-3.251 2.8549-12.609 8.5648-24.0288 8.5648z"/><path d="m34.4732 67.768c-12.9424 17.3201-28.07371 7.2167-34.02154 0 9.27861 14.2748 20.22264 13.0852 27.83584 10.944s16.416-14.9885 18.5572-18.0814c2.1412-3.0928 20.2226-33.3078 26.1705-42.1106 4.7582-7.0422 12.768-13.24383 16.1781-15.46436-2.6964-.55513-10.1351.23791-18.3194 7.85116-10.2302 9.5165-20.2226 35.2111-36.4007 56.8612z"/><path d="m62.7846 48.4971c-8.5648 18.8427-15.7815 28.6288-18.3193 31.1666 4.6834-2.1076 10.5193-11.1296 13.1972-15.2696l.126-.1947c2.617-4.0445 16.416-24.743 22.8396-34.9733 6.4237-10.2302 14.9886-18.5572 25.2189-18.5572 20.698 0 30.929 20.4605 21.65 35.9249s-19.509 15.4644-27.36 15.9402c-7.8511.4758-17.447-3.0136-21.6501-4.9962 2.855 2.0619 11.9432 6.5188 18.7951 6.8995 15.988 1.142 24.029-4.2032 26.884-6.8995 24.981-22.1259 9.215-45.2334.714-51.38918-13.799-9.9924-29.9771-6.185828-36.6387-.00009-6.6615 6.18577-14.7506 18.79517-25.4567 42.34857z"/><path d="m118.22 19.4714c-5.9-5.9002-16.495-4.6789-20.4602-3.3307 21.1742 3.8066 22.1262 19.9847 22.1262 24.505 3.33-4.2824 5.71-13.799-1.666-21.1743z"/></g></svg>