<svg fill="none" viewBox="0 0 81 82" xmlns="http://www.w3.org/2000/svg" xmlns:xlink="http://www.w3.org/1999/xlink"><linearGradient id="a" gradientUnits="userSpaceOnUse" x1="23.4641" x2="39.9641" y1="12" y2="40.5788"><stop offset="0" stop-color="#f0ad43"/><stop offset="1" stop-color="#c3cb9c"/></linearGradient><linearGradient id="b" gradientUnits="userSpaceOnUse" x1="57.9641" x2="41.4641" y1="11" y2="39.5788"><stop offset="0" stop-color="#e81c23"/><stop offset="1" stop-color="#cebb95"/></linearGradient><linearGradient id="c" gradientUnits="userSpaceOnUse" x1="76" x2="43" y1="41" y2="41"><stop offset="0" stop-color="#9f2163"/><stop offset="1" stop-color="#807674"/></linearGradient><linearGradient id="d" gradientUnits="userSpaceOnUse" x1="6" x2="39" y1="41" y2="41"><stop offset="0" stop-color="#2bb673"/><stop offset="1" stop-color="#73ad87"/></linearGradient><linearGradient id="e" gradientUnits="userSpaceOnUse" x1="23.9539" x2="40.4539" y1="70.6172" y2="42.0384"><stop offset="0" stop-color="#0e73b8"/><stop offset="1" stop-color="#6f8d8f"/></linearGradient><linearGradient id="f" gradientUnits="userSpaceOnUse" x1="57.9636" x2="41.4636" y1="70.5791" y2="42.0003"><stop offset="0" stop-color="#4c519e"/><stop offset="1" stop-color="#a1bfb7"/></linearGradient><path d="m37.2321 39.8468-16.7321-24.9808 6.4282-4.866 14.75 25.5477-1.7141 5.0311z" fill="url(#a)"/><path d="m40.7321 36.8468 13.2679-26.98077 7.4282 3.13397-14.75 25.5477-5.2141 1.0311z" fill="url(#b)"/><path d="m45 39 30-2 1 8h-29.5l-3.5-4z" fill="url(#c)"/><path d="m37 43-30 2-1-8h29.5l3.5 4z" fill="url(#d)"/><path d="m41.1859 44.7704-13.2679 26.9808-7.4282-3.134 14.75-25.5478 5.2141-1.031z" fill="url(#e)"/><path d="m44.1957 42.7323 16.732 24.9808-6.4282 4.866-14.75-25.5477 1.7141-5.0311z" fill="url(#f)"/><path clip-rule="evenodd" d="m75.2972 61.0004c-11.0457 19.1317-35.5093 25.6867-54.641 14.641-19.13175-11.0457-25.68676-35.5093-14.64106-54.641 11.04566-19.13171 35.50926-25.68672 54.64106-14.64102 19.1317 11.04572 25.6867 35.50932 14.641 54.64102zm-22.187 7.452c.8122 1.4068 2.611 1.8887 4.0177 1.0766 1.4068-.8122 1.8888-2.611 1.0766-4.0178-.8122-1.4067-2.611-1.8887-4.0177-1.0765-1.4068.8122-1.8888 2.611-1.0766 4.0177zm-.3961-6.566c-1.4067.8122-2.6961.0361-3.5083-1.3706-.8122-1.4068-1.7219-4.4397-.3152-5.2519s3.5785 1.4922 4.3906 2.8989c.8122 1.4068.8397 2.9114-.5671 3.7236zm-7.9966-10.3239c.8121 1.4068 1.5921 2.477 2.9988 1.6648 1.4068-.8122.8699-2.0227.0577-3.4295-.8122-1.4067-4.2392-7.0618-5.6459-6.2496-1.4068.8122 1.7772 6.6076 2.5894 8.0143zm-20.5331-39.0907c.9109-.5259 1.9861-.5092 2.8515-.0501.0169.0089.0337.0181.0504.0274.4503.2499.8407.6214 1.117 1.0999.8122 1.4068.3302 3.2056-1.0765 4.0178-.9108.5258-1.986.5091-2.8513.0502l-.0289-.0155-.023-.0127c-.4498-.2499-.8398-.6212-1.1158-1.0993-.8122-1.4067-.3302-3.2055 1.0766-4.0177zm7.9221 9.0132c-.8122-1.4067-2.1016-2.1828-3.5083-1.3706-1.4068.8121-1.3793 2.3168-.5671 3.7236.8121 1.4067 2.9839 3.7111 4.3906 2.8989 1.4068-.8122.497-3.8451-.3152-5.2519zm1.4895 7.2885c1.4067-.8122 2.1867.258 2.9989 1.6648.8121 1.4067 3.9961 7.2021 2.5893 8.0143-1.4067.8122-4.8337-4.8429-5.6459-6.2496-.8122-1.4068-1.3491-2.6173.0577-3.4295zm37.0602 15.1676c1.6244 0 2.9412-1.3168 2.9412-2.9411 0-1.6244-1.3168-2.9412-2.9412-2.9412-1.6243 0-2.9411 1.3168-2.9411 2.9412 0 1.6243 1.3168 2.9411 2.9411 2.9411zm-5.8839-2.9412c0 1.6244-1.3168 2.353-2.9412 2.353s-4.7059-.7286-4.7059-2.353c0-1.6243 3.0815-2.3529 4.7059-2.3529s2.9412.7286 2.9412 2.3529zm-12.9409 1.7645c1.6244 0 2.9412-.1403 2.9412-1.7647s-1.3168-1.7647-2.9412-1.7647c-1.6243 0-8.2353.1403-8.2353 1.7647s6.611 1.7647 8.2353 1.7647zm-39.5206-4.1955c-.4717-.3219-1.0419-.5102-1.6561-.5102-1.62437 0-2.94118 1.3168-2.94118 2.9412 0 1.0108.50987 1.9024 1.28644 2.4319.47169.3219 1.04194.5102 1.65614.5102 1.6243 0 2.9411-1.3168 2.9411-2.9412 0-1.0107-.5098-1.9024-1.2864-2.4319zm7.1704.0791c-1.6244 0-2.9412.7286-2.9412 2.3529 0 1.6244 1.3168 2.353 2.9412 2.353 1.6243 0 4.7058-.7286 4.7058-2.353 0-1.6243-3.0815-2.3529-4.7058-2.3529zm7.0585 2.3531c0-1.6244 1.3168-1.7647 2.9412-1.7647 1.6243 0 8.2353.1403 8.2353 1.7647 0 1.6243-6.611 1.7647-8.2353 1.7647-1.6244 0-2.9412-.1404-2.9412-1.7647zm-3.4296 24.5106c-.8121 1.4067-.3302 3.2055 1.0766 4.0177 1.4067.8122 3.2055.3302 4.0177-1.0765.8122-1.4068.3302-3.2056-1.0765-4.0178-1.4068-.8122-3.2056-.3302-4.0178 1.0766zm5.488-3.625c-1.4067-.8122-1.3793-2.3169-.5671-3.7236.8122-1.4068 2.9839-3.7111 4.3906-2.899 1.4068.8122.497 3.8452-.3152 5.2519-.8122 1.4068-2.1016 2.1829-3.5083 1.3707zm4.9413-12.0898c-.8122 1.4067-1.3491 2.6173.0576 3.4295 1.4068.8121 2.1867-.2581 2.9989-1.6648.8122-1.4068 3.9961-7.2022 2.5894-8.0143-1.4068-.8122-4.8338 4.8428-5.6459 6.2496zm19.1749-29.6829c1.4067.8122 1.3793 2.3169.5671 3.7236-.8122 1.4068-2.9839 3.7111-4.3907 2.8989-1.4067-.8121-.4969-3.8451.3153-5.2518.8121-1.4068 2.1015-2.1829 3.5083-1.3707zm-4.9412 12.0897c.8121-1.4067 1.349-2.6173-.0577-3.4295-1.4068-.8121-2.1867.2581-2.9989 1.6648-.8122 1.4068-3.9961 7.2022-2.5894 8.0144 1.4068.8121 4.8338-4.8429 5.646-6.2497zm6.4141-14.6367c-1.4067-.8122-1.8887-2.611-1.0765-4.0177.8121-1.4068 2.6109-1.8888 4.0177-1.0766 1.4067.8122 1.8887 2.611 1.0765 4.0177-.8122 1.4068-2.611 1.8888-4.0177 1.0766z" fill="#000" fill-rule="evenodd"/></svg>