<svg fill="none" height="80" viewBox="0 0 80 80" width="80" xmlns="http://www.w3.org/2000/svg" xmlns:xlink="http://www.w3.org/1999/xlink"><clipPath id="a"><path d="m0 0h80v80h-80z"/></clipPath><g clip-path="url(#a)" fill="#ff9d47"><path d="m12.0249 29.056v9.8253h6.7981l14.2388 23.4965v-23.4965h14.1638v23.4965l14.2389-23.4965h6.7976v-9.8253h-19.2696v-28.064238c-2.8485-.64122-5.807-.99078544-8.849-.99078544-3.0415 0-5.9999.34956544-8.8485.99078544v28.064238z"/><path d="m51.922 1.76074v24.36386h19.2698v15.6873h-8.078l-18.8205 31.0585v-31.0585h-8.3018v31.0585l-18.8207-31.0585h-8.07792v-15.6873h19.26982v-24.36386c-16.4209 5.03369-28.3627 20.31166-28.3627 38.38236 0 22.1695 17.9723 40.1418 40.1422 40.1418 22.1698 0 40.1421-17.9723 40.1421-40.1418 0-18.0707-11.9415-33.34867-28.3623-38.38236z"/></g></svg>