<svg clip-rule="evenodd" fill-rule="evenodd" stroke-linejoin="round" stroke-miterlimit="2" viewBox="0 0 537 165" xmlns="http://www.w3.org/2000/svg"><g fill="#253053"><g fill-rule="nonzero" transform="matrix(7.75491 0 0 7.75491 -1508.259 -576.301)"><path d="m225.333 87.595c-1.496.16-2.816.24-3.96.24-.544 0-.98-.164-1.308-.492s-.492-.764-.492-1.308v-2.76c0-.6.17-1.07.51-1.41s.81-.51 1.41-.51h3.84v1.62h-3.18c-.32 0-.48.16-.48.48v2.34c0 .12.04.22.12.3s.18.12.3.12c.72 0 1.8-.06 3.24-.18z"/><path d="m229.953 83.095c-.504 0-1.024.12-1.56.36v4.26h-2.1v-6.36h1.86l.12.78c.688-.6 1.408-.9 2.16-.9h.54v1.86z"/><path d="m233.493 89.875c-.424 0-.944-.04-1.56-.12v-1.56h1.08c.304 0 .502-.084.594-.252s.074-.404-.054-.708l-2.46-5.88h2.22l1.5 4.08 1.26-4.08h2.22l-2.4 6.6c-.232.632-.532 1.11-.9 1.434s-.868.486-1.5.486z"/><path d="m242.193 82.975c-.424 0-.904.08-1.44.24v2.88h1.8c.32 0 .48-.16.48-.48v-2.22c0-.12-.04-.22-.12-.3s-.18-.12-.3-.12zm-1.44 4.74v2.04h-2.1v-8.4h1.86l.12.6c.376-.248.762-.43 1.158-.546s.73-.174 1.002-.174h.54c.544 0 .98.164 1.308.492s.492.764.492 1.308v2.76c0 .6-.17 1.07-.51 1.41s-.81.51-1.41.51z"/><path d="m250.653 87.715c-.776.08-1.536.12-2.28.12-.544 0-.98-.164-1.308-.492s-.492-.764-.492-1.308v-3.06h-.72v-1.62h.72l.24-1.44h1.86v1.44h1.5v1.62h-1.5v2.76c0 .12.04.22.12.3s.18.12.3.12h1.56z"/><path d="m257.973 85.915c0 .6-.17 1.07-.51 1.41s-.81.51-1.41.51h-2.76c-.6 0-1.07-.17-1.41-.51s-.51-.81-.51-1.41v-2.76c0-.6.17-1.07.51-1.41s.81-.51 1.41-.51h2.76c.6 0 1.07.17 1.41.51s.51.81.51 1.41zm-2.1-2.58c0-.32-.16-.48-.48-.48h-1.44c-.32 0-.48.16-.48.48v2.4c0 .32.16.48.48.48h1.44c.32 0 .48-.16.48-.48z"/><path d="m262.713 83.095c-.504 0-1.024.12-1.56.36v4.26h-2.1v-6.36h1.86l.12.78c.688-.6 1.408-.9 2.16-.9h.54v1.86z"/></g><path d="m739.5 528.349h21v124.873h-21z" transform="matrix(-.606096 -.606096 .50508 -.50508 282.375 841.32)"/><path d="m739.5 528.349h21v124.873h-21z" transform="matrix(-.606096 -.606096 .50508 -.50508 194.078 828.706)"/><path d="m739.5 528.349h21v124.873h-21z" transform="matrix(-.606096 -.606096 .101016 -.101016 432.795 640.44706)"/><path d="m739.5 528.349h21v124.873h-21z" transform="matrix(-.606096 -.606096 .101016 -.101016 495.865 526.92)"/><path d="m739.5 528.349h21v124.873h-21z" transform="matrix(-.606096 -.606096 .101016 -.101016 458.025 665.6753)"/><path d="m739.5 528.349h21v124.873h-21z" transform="matrix(-.606096 -.606096 .101016 -.101016 521.095 552.1482)"/></g><path d="m739.5 528.349h21v124.873h-21z" fill="#1358df" transform="matrix(-.606096 .606096 -.101016 -.101016 640.445 -268.697)"/><path d="m739.5 528.349h21v124.873h-21z" fill="#1358df" transform="matrix(-.606096 .606096 -.101016 -.101016 526.925 -331.767)"/><path d="m739.5 528.349h21v124.873h-21z" fill="#1358df" transform="matrix(-.606096 .606096 -.101016 -.101016 665.675 -293.925)"/><path d="m739.5 528.349h21v124.873h-21z" fill="#1358df" transform="matrix(-.606096 .606096 -.101016 -.101016 552.155 -356.995)"/><path d="m739.5 528.349h21v124.873h-21z" fill="#253053" transform="matrix(.606096 -.606096 .50508 .50508 -677.224 282.375)"/><path d="m739.5 528.349h21v124.873h-21z" fill="#253053" transform="matrix(.606096 -.606096 .50508 .50508 -664.609 194.076)"/></svg>