<svg fill="none" viewBox="0 0 56 56" xmlns="http://www.w3.org/2000/svg" xmlns:xlink="http://www.w3.org/1999/xlink"><filter id="a" color-interpolation-filters="sRGB" filterUnits="userSpaceOnUse" height="56" width="56" x="0" y="0"><feFlood flood-opacity="0" result="BackgroundImageFix"/><feColorMatrix in="SourceAlpha" type="matrix" values="0 0 0 0 0 0 0 0 0 0 0 0 0 0 0 0 0 0 127 0"/><feOffset/><feGaussianBlur stdDeviation="3.5"/><feColorMatrix type="matrix" values="0 0 0 0 0 0 0 0 0 0 0 0 0 0 0 0 0 0 0.1 0"/><feBlend in2="BackgroundImageFix" mode="normal" result="effect1_dropShadow"/><feBlend in="SourceGraphic" in2="effect1_dropShadow" mode="normal" result="shape"/></filter><g filter="url(#a)"><circle cx="28" cy="28" fill="#fff" r="21"/></g><g stroke="#1358df" stroke-linecap="round" stroke-linejoin="round" stroke-width="2"><path d="m38.6666 26.6667c-.3261-2.3464-1.4146-4.5205-3.0978-6.1874-1.6833-1.6668-3.8679-2.7341-6.2173-3.0372-2.3495-.3032-4.7334.1746-6.7846 1.3596-2.0513 1.185-3.656 3.0116-4.567 5.1983m-.6666-5.3333v5.3333h5.3333"/><path d="m17.3333 29.3333c.326 2.3463 1.4145 4.5204 3.0978 6.1873 1.6832 1.6669 3.8678 2.7341 6.2173 3.0372 2.3494.3032 4.7334-.1745 6.7846-1.3595 2.0512-1.1851 3.6559-3.0116 4.5669-5.1984m.6667 5.3334v-5.3334h-5.3334"/></g></svg>