<svg fill="none" viewBox="0 0 80 80" xmlns="http://www.w3.org/2000/svg"><path d="m20 29h57v49h-57z" fill="#253053"/><path d="m0 0v79.625h80v-79.625zm43.5357 62.1004c0 7.7492-4.5714 11.2861-11.2321 11.2861-6.0179 0-9.5-3.0926-11.2857-6.8428l6.125-3.679c1.1785 2.0794 2.25 3.839 4.8392 3.839 2.4643 0 4.0358-.9598 4.0358-4.71v-25.4337h7.5178zm17.7857 11.2861c-6.9821 0-11.5-3.3058-13.6964-7.6426l6.125-3.5191c1.6071 2.6127 3.7143 4.55 7.4107 4.55 3.1072 0 5.1072-1.5463 5.1072-3.6969 0-2.5593-2.0358-3.4658-5.4822-4.9765l-1.875-.7998c-5.4286-2.2928-9.0178-5.1899-9.0178-11.2862 0-5.6164 4.3035-9.882 11-9.882 4.7857 0 8.2142 1.6529 10.6785 5.9896l-5.8571 3.7325c-1.2857-2.2928-2.6786-3.1993-4.8393-3.1993-2.1964 0-3.5893 1.3864-3.5893 3.1993 0 2.2394 1.3929 3.1459 4.625 4.55l1.875.7998c6.3929 2.7193 9.9822 5.5097 9.9822 11.766 0 6.7183-5.3215 10.4152-12.4465 10.4152z" fill="#f8e541"/></svg>