<svg fill="none" viewBox="0 0 80 80" xmlns="http://www.w3.org/2000/svg" xmlns:xlink="http://www.w3.org/1999/xlink"><clipPath id="a"><path d="m0 0h80v80h-80z"/></clipPath><g clip-path="url(#a)" clip-rule="evenodd" fill-rule="evenodd"><path d="m67.3776 65.756c-.5356-1.0265-1.3215-1.8059-2.3603-2.3175-.8702-.428-1.8059-.616-2.7682-.6433-.7211-.0207-1.4447.0162-2.1671.0253-.6413.0078-1.2832.0188-1.9245.013-.7542-.0078-1.5083-.0305-2.2624-.0519-.1252-.0039-.214.0214-.2724.1485-.0914.1978-.1997.3884-.3119.605l.1258.0402c.3742.0661.7503.1226 1.1225.1971.4785.0954.6938.3703.7158.7736.0325.5745.0454 1.1504.0435 1.7262-.0097 2.2786-.026 4.5572-.0428 6.8351-.0013.1505-.0039.3074-.0448.4488-.0473.1634-.0985.3748-.2204.4552-.2108.14-.4721.2347-.723.2755-.3638.0597-.4248.0759-.5382.4338l-.0493.179c-.0545.1952-.0253.2335.1783.2354 1.1685.013 2.3363.0383 3.5042.0344 1.0653-.0039 2.1307.0609 3.1922-.1394 1.0031-.1887 1.9395-.5194 2.7941-1.079 1.1089-.7269 1.9064-1.6983 2.3273-2.966.3398-1.0239.4156-2.0685.3002-3.1391-.0785-.7386-.2769-1.4343-.6186-2.0899zm-2.0471 6.2646c-.6251 1.1633-1.5576 1.9401-2.8901 2.145-.8345.1277-1.6704.0908-2.466-.225-.5039-.1997-.6912-.6348-.7068-1.1491-.0149-.5038-.0208-1.0083-.0214-1.5121-.0026-1.7728-.0026-3.5457 0-5.3178.0013-.5583.011-1.1179.0201-1.6769.0065-.393.0888-.5246.472-.5564 1.6834-.1413 3.2896.0402 4.6234 1.2249.8248.7328 1.2943 1.6672 1.4895 2.7403.081.4475.1057.9053.1562 1.3592-.0408 1.0362-.1809 2.0445-.6769 2.9679zm14.1288-1.9201c-.332-.8079-.961-1.3144-1.7515-1.6386-.2697-.1109-.5479-.2023-.839-.3099l.1018-.0649c.3145-.2016.6646-.3644.9357-.6127.6588-.6037.9324-1.3631.804-2.265-.1219-.8579-.5498-1.4875-1.3143-1.8961-.6939-.3696-1.4422-.5044-2.2164-.5038-1.3397.0013-2.68.0214-4.0197.024-.4617.0006-.9234-.0337-1.385-.0402-.0895-.0013-.2224.0214-.2607.081-.1057.1622-.1757.3489-.2509.5292-.0435.105-.0007.1627.1193.1783.3222.0441.6439.0992.9668.1472.4461.0668.662.2989.6893.7483l.0058.2665c.0007 1.3974.0052 2.7948-.0006 4.1921-.0072 1.3948-.0227 2.7909-.0396 4.1864-.0019.1757-.0259.3521-.0512.5265-.0383.2633-.179.4448-.4487.5019l-.7633.1504c-.0901.0182-.2204.0156-.2574.0713-.14.2095-.2529.4384-.2373.7146l.0785.0214 2.5632.0629.5142-.0019c.8871-.0104 1.7755.0071 2.6612-.0383.9591-.048 1.8597-.3326 2.6923-.8222.8864-.522 1.5686-1.21 1.8111-2.2449.1556-.6608.1563-1.3254-.1076-1.9635zm-6.5123-5.9533c.0039-.2807.1278-.4027.4066-.4098.6867-.0188 1.3688-.0149 2.0315.2218.8573.306 1.3845 1.0453 1.3747 1.9485-.0045.347.0007.6906-.1271 1.0239-.2522.6562-.7359 1.0025-1.422 1.0699-.3579.0364-.7191.0402-1.0381.0571l-1.0648-.0467c-.1413-.0052-.2029-.0674-.2023-.2127zm4.4133 8.75c-.343.7464-.9681 1.1387-1.7508 1.2749-.6257.1089-1.2567.0771-1.8753-.0824-.4578-.1174-.6445-.485-.736-.8929-.0616-.273-.0512-.5978-.0564-.8819-.0084-.4383-.0019-1.348-.0019-1.348h-.0091c0-.6485.002-1.21-.0019-1.8319-.0007-.1342.022-.201.1861-.1958.5823.0175 1.1665.0272 1.7488.0499.5207.0201 1.0083.1744 1.4668.4215.6977.3761 1.1179.9519 1.2333 1.743.0882.5998.0506 1.1899-.2036 1.7436zm-63.9275.6991.0123-3.5256c.0019-.5304-.0655-1.0505-.2393-1.5536-.4792-1.3858-1.8007-2.0167-3.1767-1.5193-.62571.2263-1.18661.5693-1.72222.9584-.3119.2269-.3119.2269-.53755-.0967-.63871-.9156-1.55107-1.2288-2.61321-.8909-.68669.2179-1.28715.5907-1.85582 1.0239-.05318.0402-.16017.0849-.19194.0609-.05317-.0395-.09014-.1336-.08884-.2042l.03891-.6264c.00324-.1317-.02205-.2639-.03502-.4021-.25678.0889-.46169.1777-.67632.2296-.66335.1621-1.33124.3112-1.998482.4636-.161461.037-.3320005.0856-.34756299.2711-.01621091.1822.15951599.2126.29568699.2671.28661.1154.571274.238.854638.3625.23798.105.32682.295.32552.5505-.00454 1.0926.00259 2.184-.00389 3.2766-.0026.4442-.02335.8877-.04345 1.3319-.01815.3936-.15238.5583-.533661.6575-.202313.0532-.407867.0888-.611477.1368-.044742.0104-.121258.0389-.121906.0609-.00843.1926-.018805.3898.013617.5772.006485.0337.210094.0337.322922.0467l.075867-.0046c.785908-.0117 1.571808-.024 2.358368-.0324.41694-.0045.83324-.0007 1.28585-.0007l.04863-.6289c-.25937-.0474-.49086-.083-.71911-.133-.356-.0778-.50773-.2665-.51681-.6257l-.00648-.5142c-.00389-1.3339-.00908-2.6671-.00908-4.0009 0-.1939.08041-.3475.25094-.4636.36118-.2438.74247-.4377 1.1646-.546.88965-.2276 1.6613.0888 2.00367.8456.10829.2386.19324.5025.21723.7619.12579 1.3371.07133 2.6754-.00454 4.0125-.01621.2886-.15174.4338-.4364.5045l-.66919.1413c-.05382.0137-.13228-.0226-.13617.0221-.01491.1848-.00648.4682-.00648.4682h.15951l2.03739.0668c.55831-.0013 1.11726.0661 1.67492.0804.09986.0019.18869.0168.19453-.0986.00908-.1829.00129-.3547-.00713-.5375l-.10635-.0189-.57387-.129c-.38711-.0914-.52069-.2386-.52199-.6303-.00454-.9655.00843-1.9304 0-2.8953-.00454-.5518-.02594-1.1036-.0616-1.6541-.00973-.1466.01297-.2425.12969-.3249.34367-.2451.71522-.4338 1.12309-.5414 1.25477-.3307 2.28187.3573 2.34667 1.6509.0636 1.2476.037 2.4997.0273 3.7499-.0033.4351-.1472.5667-.5759.6835l-.1478.0382c-.439.1051-.4351.1051-.4092.5713.0085.1459.0487.1835.2043.1796.8942-.0201 1.7884-.0253 2.6826-.0331.3657-.0032.7314 0 1.1296 0l.081-.6069c-.3495-.0927-.6718-.1615-.983-.2633-.275-.0933-.3722-.2593-.3709-.5498zm30.7936-5.3438c.3683-.3417.3709-.7931.2678-1.2943-.2918.3054-.6186.4461-.9914.4727-.5.0357-.9908-.0078-1.4564-.2068-1.2593-.5408-2.4991-.5026-3.735.0907-1.0395.498-1.6788 1.2742-1.743 2.4511-.0409.7542.1005 1.4681.6037 2.0679.3015.3592.6886.592 1.125.7528.1881.0694.2023.1589.0448.2789-.1155.0888-.238.1692-.3612.2464-.2633.1653-.5285.3287-.795.4889-.1563.0947-.2095.2153-.1582.4001.1498.5434.5356.8572 1.018 1.0861l.1757.1226-.1536.1537c-.4727.3832-.9643.745-1.4169 1.1516-.38.3417-.5025.7995-.3877 1.3046.2315 1.0084.9 1.6321 1.8487 1.9188 1.658.5018 3.2149.2139 4.6343-.7684.8417-.583 1.4454-1.3417 1.6289-2.3856.2056-1.1731-.4461-2.1911-1.6126-2.4012-.7717-.1401-1.5615-.1803-2.3422-.2698-.3644-.0415-.734-.0661-1.0887-.1497-.3015-.0714-.4513-.3171-.4235-.557.0279-.2361.2789-.4559.5661-.4786.5784-.0467 1.1452-.1368 1.6782-.3806 1.4123-.6459 2.0679-1.7768 1.9038-3.2993-.0214-.2049-.0681-.4072-.1102-.6458.4519.0758.9143.1906 1.2806-.1498zm-4.2855 7.1438c.5745.0169 1.2281.0525 1.8597.2373.5557.1622 1.0129.4462 1.1478 1.0667.1627.7496-.1978 1.4953-.9234 1.8961-.6796.3748-1.4175.4059-2.1658.3287-.6407-.0661-1.2171-.2879-1.6788-.7613-.6082-.6231-.6115-1.4855-.0026-2.1067.544-.5551.8352-.6699 1.7631-.6608zm1.4376-4.5144c-.3346 1.0706-1.3086 1.2184-2.0718.876-.6504-.2911-.9337-.8643-1.0822-1.5186-.0577-.2516-.0713-.5129-.1051-.7703.0137-.369.0746-.7231.2335-1.0551.487-1.0225 1.6833-.9616 2.3454-.4986.284.1984.4818.4682.6056.7879.275.7158.3028 1.4453.0746 2.1787zm-6.0759 3.4127c-.2302-.0369-.4617-.0849-.6854-.153-.3942-.1206-.4422-.1945-.4467-.6115-.0117-1.162-.0195-2.324-.0325-3.4853-.0064-.5227-.0687-1.0382-.2289-1.5375-.4214-1.3163-1.7125-2.0231-3.0042-1.6347-.7158.2159-1.3306.6173-1.9031 1.0887l-.2088.1602.0006-.2146c.0136-.2471.0402-.4941.0383-.7412-.0013-.129-.0506-.2587-.0746-.3722-.4883.1472-.926.295-1.3727.4079-.4481.1128-.9053.1893-1.3585.2814-.225.0454-.3904.1816-.3865.3365.0059.2186.1868.2607.345.3262.2866.1174.5726.236.8559.3618.2023.0902.2847.2575.2827.4747-.0142 1.5102-.0233 3.021-.0453 4.5319-.0065.4773-.1271.603-.5966.7081l-.2049.0408c-.4345.0746-.4468.0921-.417.5506l.0026.0758c-.0052.1764.072.2335.2536.2315 1.1542-.0136 2.3091-.0201 3.4633-.0155.4947.0019.5479-.037.5375-.5454l-.0233-.2185c-.2827-.0473-.5531-.0817-.8177-.1401-.2769-.0616-.3761-.175-.402-.4564-.024-.2575-.0318-.5188-.0344-.7782-.013-1.1873-.0233-2.3745-.0292-3.5612-.0013-.2989.0538-.5765.3288-.769.4169-.2912.8734-.4598 1.3779-.4941 1.0297-.0707 1.8124.5395 1.8682 1.5659.0687 1.2664.0479 2.5374.0642 3.8064.0013.0946-.0156.1899-.0286.284-.0246.1854-.1154.3248-.3034.3728-.1835.048-.3696.0908-.557.1193-.2795.0415-.2854.0396-.3068.3217l.0072.19c.033.3281.0337.3183.3657.3151 1.1166-.0091 2.2326-.0149 3.3485-.0136.4669.0013.5-.0208.5039-.5019l-.0013-.1141c.0071-.1232-.048-.1732-.1745-.1933zm15.5962-7.3422c-1.1704-.286-2.2805-.0733-3.3349.472-1.0245.5298-1.7092 1.3488-1.9699 2.4797-.2633 1.1432-.1375 2.2585.3676 3.32.3288.6892.8346 1.2223 1.5232 1.5685 1.612.8119 3.5839.4436 4.8484-.6426.9979-.8566 1.3643-1.9972 1.3864-3.4088-.0137-.1414-.0273-.4137-.0649-.6835-.212-1.5368-1.2761-2.7435-2.7559-3.1053zm.8865 5.9364c-.3106 1.223-1.3682 1.7664-2.5614 1.3462-.6088-.214-1.0641-.6232-1.3701-1.1763-.7042-1.2709-.8397-2.6223-.439-4.0086.2671-.9234 1.0271-1.4285 1.931-1.365.808.0564 1.4292.4442 1.8851 1.1017.4804.6938.6659 1.483.7152 2.3117.0084.1329.0013.2658.0013.3994l.057.0065c-.0713.4623-.105.9337-.2191 1.3844zm-30.3236-5.9565c-1.2313-.2815-2.3849-.0033-3.4535.6225-.9241.5408-1.5213 1.3487-1.7502 2.4044-.2146.9862-.1271 1.9557.2224 2.9004.2127.5758.535 1.0823 1.0077 1.4772.9954.8306 2.1587 1.0407 3.3965.8092 1.0479-.1965 1.9687-.662 2.6379-1.5329.6264-.8144.865-1.7495.8896-2.763-.0369-.3209-.046-.6478-.1141-.961-.3385-1.5633-1.2528-2.5957-2.8363-2.9568zm1.0045 5.9526c-.3003 1.2165-1.3747 1.7735-2.5594 1.3533-.7606-.2704-1.256-.8274-1.5692-1.5413-.5019-1.1471-.6044-2.3409-.2795-3.5509.249-.9253.9992-1.6068 2.1476-1.4434.7049.0999 1.2547.4598 1.6645 1.0323.5538.7723.736 1.6568.7613 2.586v.19l.0467.0071c-.0681.4565-.1018.9208-.212 1.3669z" fill="#253053"/><path d="m52.0286 21.1865c-1.6886-5.2575-4.3971-9.9107-8.2138-13.91481-.9649-1.01286-2.0374-1.94078-2.7105-3.20069-.4253-.79758-.8306-1.60618-1.245-2.40895l-.2632-.66205-.0733.26067c-.0344 1.30985-.7762 2.19756-1.6996 3.02691-1.0401.93245-2.0075 1.94531-3.0061 2.9238l-3.071 4.03912-2.4829 4.5663-1.6606 4.4839-.05.0694c-.9136 3.0016-1.3643 6.0882-1.5854 9.2046-.0836 1.1717.0123 2.3597.0778 3.5372.094 1.6834.3865 3.3375.8248 4.967 1.5932 5.9177 4.827 10.8257 9.2487 14.9965.8209.7748 1.7086 1.4797 2.5652 2.2163l.3793 1.3021.3528 2.0205.1686 2.1094c-.002.4279-.0195.8579.0058 1.2845.0072.1096.1498.2108.2302.3158l.7159.2516.745.2899-.1277-1.8747-.0058-1.8467.2574-2.8129.1867-.6122.535-.9473c.6601-.5305 1.3676-1.0129 1.9687-1.6036 1.0874-1.068 2.1729-2.1509 3.1462-3.3213 1.2625-1.518 2.3493-3.1748 3.2221-4.9515.5829-1.1886 1.1328-2.4011 1.5874-3.6429.4007-1.0946.649-2.2455.9648-3.3719l.083-.2431c.6517-3.0399.7613-6.1109.522-9.2014-.1926-2.4906-.7781-4.8944-1.5925-7.2495z" fill="#01cba7"/></g></svg>