<svg fill="none" viewBox="0 0 80 80" xmlns="http://www.w3.org/2000/svg"><g fill="#61dafb"><path d="m45 39.5c0 3.0376-2.4624 5.5-5.5 5.5s-5.5-2.4624-5.5-5.5 2.4624-5.5 5.5-5.5 5.5 2.4624 5.5 5.5z"/><path clip-rule="evenodd" d="m64.227 14.697c5.73 0 8.2934 2.1212 9.4997 3.9394 2.4127 3.7878.9048 9.5454-4.0713 16.2121-1.3571 1.8182-2.865 3.4848-4.3729 5.1515 1.5079 1.5152 3.0158 3.1818 4.3729 5 5.1269 6.8182 6.6348 12.5758 4.2221 16.3636-1.0555 1.8182-3.6189 3.9394-9.4998 3.9394-3.9205-.1515-7.841-.7575-11.46-1.9697-2.7142 10.1515-7.5395 16.6667-12.8172 16.6667-5.2776 0-9.9521-6.5152-12.8171-16.6667-3.7698 1.2122-7.5396 1.8182-11.4601 1.9697-5.88081 0-8.44425-2.1212-9.65057-3.9394-2.41264-3.7878-.90474-9.5454 4.22217-16.3636 1.3571-1.6667 2.865-3.3333 4.3729-5-1.5079-1.6666-3.0158-3.3334-4.3729-5.1515-5.12691-6.6667-6.63481-12.4243-4.37296-16.2121 1.20632-1.8182 3.76976-3.9394 9.65056-3.9394 3.9206.1515 7.8411.7575 11.4601 1.9697 2.865-10.15155 7.5395-16.6667 12.8171-16.6667 5.2777 0 9.9522 6.51515 12.8172 16.6667 3.7698-1.2122 7.5395-1.8182 11.4601-1.9697zm-55.64162 45.1515c1.35711 2.1212 4.67452 2.5757 7.08712 2.5757 3.619-.1515 7.2379-.7575 10.5553-1.9697-.9047-3.9393-1.5079-7.8787-1.8095-11.9697-2.5634-1.9696-5.1268-4.0909-7.5395-6.3636-1.5079 1.5152-2.865 3.1818-4.2221 4.8485-4.22211 5.6061-5.73002 10.303-4.07132 12.8788zm15.68222-15.303c0-.7576-.0377-1.5152-.0754-2.2728-.0377-.7575-.0754-1.5151-.0754-2.2727s.0377-1.5152.0754-2.2727c.0377-.7576.0754-1.5152.0754-2.2728-1.9603 1.5152-3.619 3.0303-5.2777 4.5455 1.6587 1.5151 3.4682 3.0303 5.2777 4.5455zm-7.3888-6.6667c2.5635-2.2727 4.9761-4.394 7.6903-6.3636.3016-4.091.9048-8.0304 1.9603-12.1213-3.4682-1.0606-7.0871-1.6666-10.7061-1.8181-2.5634 0-5.73.4545-7.08713 2.5757-1.6587 2.5758-.1508 7.2727 4.07133 12.8788 1.2063 1.6667 2.5634 3.3333 4.0713 4.8485zm31.3644-11.2121c1.3571.7575 2.5634 1.5151 3.7698 2.4242-.3016-2.8788-.754-5.7576-1.5079-8.6364-2.5635.9091-4.9761 1.9697-7.3888 3.1819 1.8095.9091 3.4682 1.9697 5.1269 3.0303zm1.6587-9.0909c-2.4127-9.24247-6.3332-14.69701-9.9522-14.69701-3.6189 0-7.5395 5.45454-9.9521 14.54541 3.3174 1.2122 6.7855 2.7273 9.9521 4.394 3.1666-1.6667 6.6348-3.0303 9.9522-4.2424zm-13.2695 6.0606c-2.4127-1.2122-4.8253-2.2728-7.3888-3.1819-.6031 2.8788-1.0555 5.7575-1.5079 8.6363.4516-.2835.903-.5882 1.3624-.8983.7681-.5185 1.5582-1.0518 2.4074-1.5258.6801-.3987 1.3389-.7973 1.9844-1.1879 1.0719-.6486 2.1072-1.275 3.1425-1.8424zm-5.9891 29.1764c-.9604-.634-1.8586-1.2268-2.7568-1.9037.3016 2.8788.754 5.7576 1.5079 8.7879 2.4127-.9091 4.8253-1.9697 7.3887-3.1819-1.8094-.909-3.4681-1.9696-5.1267-3.0302-.3467-.2322-.6836-.4546-1.0131-.6721zm-.6457 9.6114c2.4126 9.2425 6.3332 14.697 9.9521 14.697 3.619 0 7.5395-5.4545 9.9522-14.5454-.419-.1723-.8405-.3445-1.2634-.5174-2.9253-1.1956-5.9222-2.4204-8.6888-3.8766-3.1666 1.6667-6.4839 3.0303-9.9521 4.2424zm13.2695-6.0606c2.5635 1.2122 4.9761 2.2728 7.3887 3.1819.6032-2.8788 1.0556-5.7576 1.5079-8.7879-1.2063.9091-2.5634 1.8182-3.7697 2.5757-.6801.3987-1.3389.7973-1.9845 1.1879-1.0719.6486-2.1071 1.275-3.1424 1.8424zm5.6682-6.9424c1.211-.8073 2.3999-1.5999 3.53-2.4515.1508-2.2727.3016-4.5455.3016-6.9697s-.1508-4.6969-.3016-6.9695c-1.8094-1.3637-3.7697-2.7275-5.73-3.9396-2.2619-1.5151-4.5237-2.7273-6.7856-3.9394-2.2618 1.2121-4.5236 2.5757-6.7854 3.9394-.736.5119-1.4721 1.0026-2.2001 1.4879-1.211.8073-2.4 1.5999-3.53 2.4515-.1508 2.2727-.3016 4.5455-.3016 6.9697s.1508 4.6969.3015 6.9695c1.8095 1.3637 3.7698 2.7275 5.7301 3.9396 2.2618 1.3636 4.5237 2.7273 6.7855 3.9394 2.2618-1.2121 4.5236-2.5757 6.7854-3.9393.736-.512 1.4722-1.0027 2.2002-1.488zm22.228 10.4273c1.6587-2.5758.1508-7.2727-4.0713-12.8788-1.3571-1.6667-2.7143-3.3333-4.3729-4.8485-2.4127 2.2727-4.8253 4.394-7.5396 6.3636-.3015 4.091-.9047 8.0304-1.8094 11.9697 3.4681 1.2122 7.0871 1.8182 10.7061 1.9697 2.5634 0 5.73-.4545 7.0871-2.5757zm-10.2537-19.8485c-1.6587-1.5152-3.4682-3.0303-5.2777-4.5455 0 .7576.0377 1.5152.0754 2.2728.0377.7575.0754 1.5151.0754 2.2727s-.0377 1.5152-.0754 2.2727c-.0377.7576-.0754 1.5152-.0754 2.2728 1.9603-1.5152 3.619-3.0303 5.2777-4.5455zm-5.4285-8.4848c2.5635 1.9696 5.1269 4.0909 7.5395 6.3636.4126-.4606.8251-.9351 1.2461-1.4194.964-1.109 1.9724-2.2691 3.1268-3.4291 4.2222-5.6061 5.7301-10.303 4.0714-12.8788-1.3571-2.1212-4.6745-2.5757-7.0872-2.5757-3.6189.1515-7.2379.7575-10.7061 1.9697.9048 3.9393 1.5079 8.0303 1.8095 11.9697z" fill-rule="evenodd"/></g></svg>