<svg fill="none" viewBox="0 0 152 80" xmlns="http://www.w3.org/2000/svg"><path d="m44.4077 28.6359h-5.9897l-3.2632 16.7823h5.32c3.5102 0 6.1322-.6654 7.866-2.0009 1.7052-1.3118 2.869-3.5409 3.4627-6.635.589-2.9705.3182-5.076-.7648-6.3118-1.1162-1.2119-3.3202-1.8298-6.631-1.8298zm31.5923-28.6359c-41.9852 0-76 17.923-76 40s34.0148 40 76 40c41.985 0 76-17.923 76-40s-34.015-40-76-40zm-20.6577 47.2291c-1.634 1.5827-3.6338 2.7709-5.7903 3.4838-2.128.6702-4.845 1.0409-8.1368 1.0409h-7.5002l-2.052 10.6464h-8.7352l7.7947-40.0761h16.7723c5.0492 0 8.7352 1.3118 11.058 3.9592 2.3037 2.6473 3.021 6.364 2.0757 11.1169-.342 1.8821-1.0118 3.6882-1.9237 5.3755-.9168 1.6017-2.0758 3.0941-3.5673 4.4534zm25.5074 4.5247 3.4391-17.7424c.3942-2.0105.247-3.3888-.4513-4.1397-.665-.7177-2.128-1.0884-4.351-1.0884h-6.9018l-4.4507 22.9705h-8.683l7.79-40.0998h8.6593l-2.0758 10.6701h7.7188c4.8782 0 8.2127.8413 10.0462 2.5238 1.8572 1.711 2.3987 4.4534 1.6862 8.2462l-3.6432 18.6645zm48.0893-14.3536c-.342 1.8821-.988 3.6882-1.924 5.3755-.893 1.6017-2.076 3.0941-3.539 4.4534-1.657 1.5589-3.634 2.7709-5.814 3.4838-2.128.6702-4.85 1.0409-8.136 1.0409h-7.472l-2.076 10.6464h-8.7352l7.7947-40.0761h16.7725c5.049 0 8.735 1.3118 11.058 3.9877 2.303 2.6236 3.021 6.3355 2.075 11.0884zm-16.421-8.7643h-5.966l-3.263 16.7823h5.296c3.534 0 6.156-.6654 7.866-2.0009 1.729-1.3118 2.893-3.5409 3.491-6.635.589-2.9705.318-5.076-.798-6.3118-1.083-1.2119-3.311-1.8298-6.626-1.8298z" fill="#777bb3"/></svg>