<svg fill="none" viewBox="0 0 80 80" xmlns="http://www.w3.org/2000/svg"><g clip-rule="evenodd" fill="#f3503f" fill-rule="evenodd"><path d="m10.1125 0c-.71525.0561937-1.41781.0472538-2.11021.238185-1.51491.418259-2.861 1.086835-4.04843 2.117475-.69811.60536-1.30737 1.25798-1.82461 2.02681-.79839 1.18709-1.342286 2.46294-1.615185 3.89907.10916.19221.224032.394.345884.59898.773641 1.30138 1.547911 2.59388 2.323451 3.89398l2.03849 3.4106c.62703 1.051 1.2528 2.1028 1.87856 3.1538l2.92445 4.9093c.6645 1.1162 1.3296 2.2331 1.9947 3.3486.9691 1.6252 1.9408 3.2491 2.9086 4.8748l3.5598 5.984c1.0262 1.7235 2.0543 3.4457 3.0824 5.1679l.1371.2005c.1492.0479.2678.0071.391-.0223 1.3543-.3269 2.7087-.652 4.063-.9777 2.1965-.528 4.393-1.0542 6.5895-1.5829l3.4405-.8283c2.2206-.5338 4.4419-1.0664 6.6625-1.6015 2.2448-.5402 4.4889-1.083 6.7343-1.6239 1.1347-.2739 2.2695-.5466 3.4049-.8192 2.1965-.5275 4.393-1.0537 6.5895-1.5798l7.1766-1.7197.3878-.1054-.106-.2113-3.8929-5.5409-2.069-2.9399-1.9775-2.818-3.9831-5.6628c-.6607-.9387-1.3226-1.8761-1.9839-2.8141l-1.0453-1.4853c-.1599-.228-.2875-.4738-.3725-.7401-.2069-.6456.0292-1.07537.4036-1.39274.2425-.20625.5217-.35759.8238-.44699.4208-.12452.8454-.24393 1.2756-.32567.8625-.16411 1.7307-.30332 2.5964-.44827l2.9346-.48148c.6188-.10281 1.2369-.21073 1.8557-.31609.8409-.14304 1.6818-.28671 2.5234-.42784.8168-.13793 1.6336-.27458 2.4504-.40996l2.6737-.43997 1.8558-.31353c.7057-.11878 1.4108-.23691 2.1159-.35313.8796-.14431 1.7586-.28991 2.6382-.42848.5242-.08237 1.0485-.11111 1.5689.0396.3903.11302.7457.29693 1.0763.53192l.4576.3212c.0457-.106-.0203-.16347-.0508-.22414-.66-1.34418-1.5599-2.49998-2.7036-3.46229-1.063-.89527-2.2568-1.553632-3.5768-1.973169-.78-.2484019-1.5816-.1328217-2.3978-.19476247zm24.5958 80c-.0393 0-.0742-.2874-.1187-.3633-.9519-1.6348-1.9141-3.3895-2.8546-5.03-1.1849-2.0677-2.359-4.1417-3.5268-6.2196-1.2471-2.221-2.4833-4.4483-3.7209-6.6743-1.1767-2.1162-2.3495-4.2343-3.5217-6.3525-.7076-1.2803-1.4108-2.5632-2.1178-3.8441l-.1879-.2931-.3439.0683c-.6804.1769-1.3595.3551-2.0385.5351-.9457.2503-1.8906.5051-2.8369.7535-2.1242.5562-4.24835 1.1092-6.37252 1.6635-2.16034.5645-4.41144 1.1303-6.572419 1.6922-.131373.0338.138988.0453-.495661.0677v13.5024c.261475.4189.236724.2216.253225.3595.050137.3998.131372.8027.201184 1.1986.261475 1.4751.849791 2.8257 1.700221 4.0555 1.24709 1.8046 2.90796 3.0945 4.94265 3.8838.72667.281 1.48508.4789 2.26062.5747l.7876.2095"/><path d="m2.52336 48.5454c2.49989-.5983 5.0004-1.196 7.50024-1.7931 1.098-.2618 2.1966-.5204 3.2945-.7835.549-.1316 1.0992-.2567 1.6437-.4049.4849-.1315.5446-.2931.2952-.733-.3605-.636-.7274-1.2682-1.0923-1.9023l-6.42643-11.1372c-1.08969-1.8889-2.18065-3.7778-3.27098-5.666-.93357-1.6156-1.86713-3.2311-2.80007-4.8467-.40363-.6986-.893583-1.3991-1.299124-2.0971-.075523-.127.266553-.279-.368096-.3467v30.2654c0-.0204.287496-.0377.384597-.0613zm76.94994 21.6333c-.9799.3506-1.9605.7037-2.9397 1.0568-2.2308.8046-4.4616 1.6092-6.6924 2.4144-1.2395.4477-2.4764.9004-3.7165 1.3461-2.5272.9074-5.0556 1.8116-7.5834 2.7171-1.4648.5249-2.9302 1.1737-4.3943 1.7011-.4011.145-.7965.5856-1.1938.5856h16.8118l.3618-.2088c.4277-.0185.8485-.1462 1.2686-.2235 1.7257-.3174 3.271-1.0683 4.64-2.166 1.0516-.8436 1.9071-1.8748 2.5773-3.0511.6892-1.2107 1.0986-2.5204 1.2953-3.8958.0171-.1188.0539-.2536-.0451-.3762-.1396-.0108-.2627.055-.3896.1003zm-1.4439-22.7144c-.7412-1.0204-1.4844-2.0389-2.2244-3.06-1.0212-1.4093-2.0404-2.8199-3.0603-4.2298-.4144-.5722-.8346-1.1399-1.2388-1.7184-.1219-.1744-.2609-.221-.4506-.1692l-.1085.0312c-1.8773.4592-3.7553.917-5.6332 1.3749l-3.3649.8218c-2.194.5358-4.3886 1.0722-6.5826 1.6086-2.1698.5306-4.3397 1.0619-6.5102 1.5913l-6.7666 1.6487c-2.2194.5422-4.4375 1.0862-6.6562 1.629l-6.4366 1.5722c-1.1341.2771-2.2683.5529-3.4011.8314-.1669.0408-.3465.051-.5242.1864l.1516.2906c.9501 1.6513 1.9002 3.302 2.8528 4.952 1.0783 1.8685 2.1572 3.7363 3.2386 5.6028 1.1893 2.0517 2.3818 4.1021 3.5731 6.1532.6848 1.1782 1.3651 2.3576 2.0556 3.5325.7673 1.3053 1.5371 2.608 2.3184 3.9049.2342.3876.5001.7579.7679 1.1232.1796.2439.4017.4521.6638.6111.2704.1641.5617.2159.8689.1462.1586-.0364.3141-.0887.4677-.1423l.5649-.2108c2.0543-.7069 4.108-1.4138 6.163-2.1181 1.6031-.5492 3.2082-1.0958 4.8126-1.6417 1.5923-.5435 3.1859-1.0843 4.7789-1.6252l4.7433-1.6117c1.6171-.5498 3.2336-1.0996 4.85-1.6507 1.9839-.6775 3.9672-1.3576 5.9524-2.0338 1.9135-.6514 3.8288-1.2989 5.7429-1.9489.1174-.0396.2469-.0562.344-.1859l.0121-.2803c.0006-3.9942-.0007-7.9891.0038-11.9833 0-.2133-.0565-.3857-.1834-.5575-.6017-.8103-1.1913-1.6289-1.7847-2.4444zm-.3293-37.63571c-.4456-.56768-1.0129-.74776-1.7085-.56513-.3027.07982-.6137.13027-.9222.1871-1.0116.18646-2.0245.36973-3.0361.55424-1.4813.2708-2.9619.5441-4.4432.8123-1.1728.212-2.3463.4208-3.5198.6277l-4.7078.8289c-.1974.0344-.3966.0689-.587.1302-.2774.0894-.3573.2644-.2304.5268.1034.2146.2323.4196.3719.6124.9735 1.3499 1.9515 2.6967 2.9295 4.0441 1.348 1.8575 2.6967 3.7145 4.0453 5.5708 1.1411 1.5709 2.2834 3.1417 3.4252 4.712.8974 1.2337 1.7948 2.4674 2.6934 3.7004l.1771.2159 7.7878-1.9368.0184-.4061c.0006-5.4348-.0007-10.8697.0038-16.3051 0-.2401-.0578-.433-.2082-.6233-.6549-.832-1.2978-1.6736-1.9458-2.5114zm2.0949 26.33501c-1.1779.2848-2.3602.5556-3.5667.8768.1276.2279 3.4366 4.7222 3.6289 4.9354l.1206.0671.0133-.274.0007-1.892c.0006-1.0977.0031-2.1954.0006-3.2931 0-.1335.0374-.2771-.0539-.4125z"/></g></svg>