<svg fill="none" viewBox="0 0 131 80" xmlns="http://www.w3.org/2000/svg" xmlns:xlink="http://www.w3.org/1999/xlink"><clipPath id="a"><path d="m0 0h131v80h-131z"/></clipPath><g clip-path="url(#a)"><path d="m64.7427 80c-.4299 0-.8597-.123-1.2486-.3266l-3.93-2.3266c-.5936-.3265-.3071-.4495-.1023-.5105.7778-.2656.9415-.3265 1.7808-.8163.0818-.0436.2046-.0218.2865.0217l3.0294 1.796c.1023.0653.2661.0653.3684 0l11.8309-6.8177c.1024-.0653.1842-.1839.1842-.3265v-13.6129c0-.1425-.0613-.2655-.1842-.3265l-11.8309-6.7961c-.1023-.0653-.2456-.0653-.3685 0l-11.8309 6.7961c-.1228.0653-.1842.2046-.1842.3265v13.6129c0 .123.0819.2449.1842.3059l3.2341 1.8572c1.7603.8773 2.8451-.1632 2.8451-1.1837v-13.4496c0-.1839.1433-.3472.348-.3472h1.4942c.1842 0 .348.1426.348.3472v13.4496c0 2.347-1.2691 3.6736-3.5002 3.6736-.6754 0-1.2281 0-2.7223-.7347l-3.1113-1.7756c-.7573-.4488-1.2486-1.2652-1.2486-2.1427v-13.6129c0-.8773.4708-1.7143 1.2486-2.1428l11.831-6.8166c.7573-.4289 1.7398-.4289 2.4767 0l11.8309 6.8166c.7574.4484 1.2486 1.2653 1.2486 2.1428v13.6129c0 .8773-.4708 1.7143-1.2486 2.1429l-11.8309 6.8166c-.348.2245-.7778.347-1.2281.347zm9.5589-13.4291c0-2.5512-1.7194-3.2246-5.3628-3.7145-3.6844-.4898-4.0529-.7347-4.0529-1.5919 0-.714.3071-1.6531 3.0294-1.6531 2.4358 0 3.3364.5301 3.7049 2.1633.0409.1633.1637.2656.3275.2656h1.5351c.1023 0 .1842-.0435.2456-.098.0615-.0762.1023-.1632.0819-.2656-.2456-2.8164-2.1083-4.1226-5.895-4.1226-3.3773 0-5.3833 1.4287-5.3833 3.7961 0 2.5919 2.006 3.2858 5.24 3.6123 3.8686.3875 4.1757.9394 4.1757 1.694 0 1.3266-1.0644 1.8777-3.5616 1.8777-3.1317 0-3.8277-.7761-4.0528-2.3267-.0205-.1632-.1638-.2862-.348-.2862h-1.5351c-.1843 0-.348.1426-.348.3472 0 1.9797 1.0848 4.3472 6.2634 4.3472 3.7867 0 5.936-1.4695 5.936-4.041zm11.1554-10.225c0 1.245-1.0234 2.2655-2.272 2.2655s-2.272-1.0199-2.272-2.2655c0-1.2857 1.0643-2.2653 2.272-2.2653 1.2281-.0218 2.272.9796 2.272 2.2653zm-.3684 0c0-1.0612-.8597-1.898-1.9241-1.898-1.0439 0-1.9036.8371-1.9036 1.898 0 1.0613.8597 1.9185 1.9036 1.9185 1.0644-.0218 1.9241-.8773 1.9241-1.9185zm-.9211 1.2654h-.5322c-.0205-.123-.1023-.7761-.1023-.7957-.0409-.1426-.0818-.2242-.2661-.2242h-.4503v1.0199h-.4912v-2.5511h.8801c.3071 0 .9006 0 .9006.6738 0 .4691-.307.5714-.4912.6324.348.0218.3684.2449.4298.5714.0205.2036.0613.5505.1228.6735zm-.5731-1.796c0-.3472-.2457-.3472-.3685-.3472h-.4093v.714h.3889c.3275 0 .3889-.2242.3889-.3668zm-55.4908-29.0828c0-.5507-.2866-1.0405-.7573-1.3061l-12.5474-7.2045c-.2047-.1219-.4503-.1839-.6959-.2046h-.1228c-.2457 0-.4708.0871-.696.2046l-12.526856 7.2045c-.470781.2652-.757344.7755-.757344 1.3061l.0205239 19.3886c0 .2656.1432801.5105.3684371.6531.225156.1426.511719.1426.757339 0l7.45063-4.2656c.47078-.2862.75734-.775.75734-1.3061v-9.0616c0-.5301.28657-1.0406.75733-1.3062l3.1727-1.8164c.2456-.1425.4912-.2046.7573-.2046s.5322.0653.7574.2046l3.1726 1.8164c.4708.2656.7574.7761.7574 1.3062v9.0616c0 .5311.2865 1.0405.7573 1.3061l7.4506 4.2656c.2252.1426.5322.1426.7574 0 .2251-.123.3684-.3875.3684-.6531zm68.6112-21.16413v36.00143c0 .5301-.2865 1.0406-.7573 1.3062l-12.5473 7.2248c-.4708.2656-1.044.2656-1.5147 0l-12.5474-7.2248c-.4708-.2656-.7573-.775-.7573-1.3062v-14.4495c0-.5301.2865-1.0406.7573-1.3062l12.5474-7.2248c.4707-.2656 1.0439-.2656 1.5147 0l3.1317 1.796c.3479.2046.7983-.0653.7983-.4485v-19.184406c0-.571452.614-.939357 1.1257-.6530872l7.4711 4.1634332c.4708.24491.7778.75486.7778 1.30563zm-9.4156 26.30723c0-.1426-.0819-.2656-.1842-.3265l-4.2984-2.4899c-.1228-.0653-.2661-.0653-.3889 0l-4.2985 2.4899c-.1228.0653-.1842.1839-.1842.3265v4.9593c0 .1426.0819.2656.1842.3266l4.2985 2.4695c.1228.0653.2661.0653.3684 0l4.2984-2.4695c.1228-.0653.1842-.184.1842-.3266v-4.9593zm42.9438-.1426c.47-.2656.757-.7759.757-1.3065v-3.4899c0-.5301-.287-1.0406-.757-1.3061l-12.466-7.2248c-.471-.2656-1.044-.2656-1.515 0l-12.547 7.2248c-.471.2655-.757.776-.757 1.3061v14.4496c0 .5508.286 1.0406.757 1.3062l12.466 7.0818c.45.2656 1.023.2656 1.494 0l7.532-4.1838c.512-.2862.512-1.0199 0-1.3061l-12.629-7.2248c-.246-.1426-.389-.3875-.389-.6531v-4.5308c0-.2656.143-.5105.389-.6531l3.93-2.2654c.225-.1426.532-.1426.758 0l3.93 2.2654c.225.1426.388.3875.388.6531v3.5512c0 .5714.635.9393 1.147.6531zm-15.823.7141c-.082.0653-.143.1425-.143.2449v2.7756c0 .0979.061.2046.143.2449l2.416 1.3878c.082.0653.204.0653.286 0l2.415-1.3878c.082-.0653.144-.1426.144-.2449v-2.7756c0-.098-.061-.2047-.144-.2449l-2.415-1.3879c-.082-.0653-.204-.0653-.286 0zm-52.0312 8.8778v-14.3679c0-.5301-.3276-1.0406-.7983-1.3062l-12.5064-7.1839c-.4299-.245-1.0235-.2863-1.5147 0l-12.5064 7.1839c-.4708.2656-.7983.7554-.7983 1.3062v14.3679c0 .5715.3889 1.0613.8187 1.3062l12.5269 7.1839c.4913.2863 1.0644.2656 1.5147 0l12.4859-7.1839c.3685-.2047.6346-.5508.7369-.959.0205-.0979.041-.2242.041-.3472zm.3889 1.0817-.0819-.1426v.184l.0819-.0435z" fill="#253053"/><path d="m64.7426 80.0002c-.4298 0-.8597-.123-1.2486-.3265l-3.93-2.3267c-.5936-.3265-.307-.4495-.1023-.5105.7778-.2655.9416-.3265 1.7808-.8163.0819-.0435.2047-.0218.2866.0218l3.0294 1.796c.1022.0653.266.0653.3684 0l11.8309-6.8177c.1024-.0654.1842-.184.1842-.3266v-13.6128c0-.1426-.0614-.2656-.1842-.3266l-11.831-6.7961c-.1023-.0653-.2456-.0653-.3684 0l-11.8309 6.7961c-.1229.0653-.1843.2047-.1843.3266v13.6128c0 .123.0819.2449.1843.3059l3.234 1.8573c1.7603.8773 2.8452-.1633 2.8452-1.1838v-13.4495c0-.184.1433-.3473.3479-.3473h1.4943c.1842 0 .3479.1426.3479.3473v13.4495c0 2.347-1.269 3.6736-3.5001 3.6736-.6755 0-1.2281.0001-2.7224-.7347l-3.1112-1.7756c-.7574-.4488-1.2486-1.2651-1.2486-2.1427v-13.6128c0-.8774.4708-1.7144 1.2486-2.1429l11.8309-6.8166c.7574-.4289 1.7399-.4289 2.4767 0l11.831 6.8166c.7573.4484 1.2486 1.2653 1.2486 2.1429v13.6128c0 .8773-.4708 1.7144-1.2486 2.1429l-11.831 6.8166c-.3479.2246-.7778.347-1.2281.347zm9.5589-13.4291c0-2.5512-1.7194-3.2246-5.3628-3.7144-3.6844-.4899-4.0528-.7348-4.0528-1.5919 0-.7141.307-1.6532 3.0294-1.6532 2.4358 0 3.3364.5301 3.7048 2.1633.041.1633.1638.2656.3275.2656h1.5352c.1023 0 .1842-.0435.2456-.0979.0615-.0762.1023-.1633.0819-.2656-.2456-2.8165-2.1083-4.1226-5.895-4.1226-3.3774 0-5.3833 1.4286-5.3833 3.796 0 2.5919 2.0059 3.2858 5.24 3.6124 3.8686.3875 4.1756.9393 4.1756 1.694 0 1.3265-1.0644 1.8776-3.5615 1.8776-3.1318 0-3.8277-.7761-4.0529-2.3266-.0205-.1633-.1637-.2863-.3479-.2863h-1.5352c-.1842 0-.348.1426-.348.3472 0 1.9797 1.0849 4.3472 6.2635 4.3472 3.7867 0 5.9359-1.4695 5.9359-4.041zm11.1555-10.225c0 1.245-1.0235 2.2655-2.272 2.2655-1.2486 0-2.2721-1.0199-2.2721-2.2655 0-1.2857 1.0644-2.2653 2.2721-2.2653 1.2281-.0218 2.272.9796 2.272 2.2653zm-.3684 0c0-1.0612-.8597-1.8979-1.9241-1.8979-1.0439 0-1.9036.837-1.9036 1.8979 0 1.0613.8597 1.9185 1.9036 1.9185 1.0644-.0218 1.9241-.8773 1.9241-1.9185zm-.9211 1.2654h-.5322c-.0206-.123-.1023-.7761-.1023-.7957-.041-.1426-.0819-.2242-.2661-.2242h-.4503v1.0199h-.4913v-2.5511h.8802c.307 0 .9006 0 .9006.6738 0 .4691-.307.5715-.4912.6324.3479.0218.3684.2449.4298.5715.0204.2035.0613.5504.1228.6734zm-.5732-1.796c0-.3472-.2456-.3472-.3684-.3472h-.4094v.714h.3889c.3275 0 .3889-.2242.3889-.3668zm30.8257-23.3682c-.082.0653-.143.1426-.143.2449v2.7756c0 .098.061.2046.143.2449l2.416 1.3878c.081.0653.204.0653.286 0l2.415-1.3878c.082-.0653.144-.1426.144-.2449v-2.7756c0-.098-.061-.2047-.144-.2449l-2.415-1.3878c-.082-.0653-.205-.0653-.286 0zm-52.0313 8.8778v-14.3679c0-.5301-.3275-1.0406-.7983-1.3062l-12.5064-7.1839c-.4298-.2449-1.0234-.2863-1.5147 0l-12.5064 7.1839c-.4708.2656-.7983.7554-.7983 1.3062v14.3679c0 .5715.389 1.0613.8188 1.3062l12.5269 7.184c.4912.2862 1.0643.2656 1.5147 0l12.4859-7.184c.3684-.2046.6345-.5508.7369-.9589.0205-.098.0409-.2243.0409-.3473zm.3889 1.0818-.0819-.1426v.1839l.0819-.0435z" fill="#01cba7"/></g></svg>