<svg fill="none" viewBox="0 0 200 80" xmlns="http://www.w3.org/2000/svg" xmlns:xlink="http://www.w3.org/1999/xlink"><linearGradient id="a" gradientUnits="userSpaceOnUse" x1="88.12" x2="88.12" y1="1.17067" y2="97.1071"><stop offset="0" stop-color="#0994dc"/><stop offset=".35" stop-color="#66cef5"/><stop offset=".846" stop-color="#127bca"/><stop offset="1" stop-color="#127bca"/></linearGradient><linearGradient id="b" gradientUnits="userSpaceOnUse" x1="91.7316" x2="91.7316" y1="-1.13658" y2="96.9932"><stop offset="0" stop-color="#0e76bc"/><stop offset=".36" stop-color="#36aee8"/><stop offset=".846" stop-color="#00adef"/><stop offset="1" stop-color="#00adef"/></linearGradient><linearGradient id="c" gradientUnits="userSpaceOnUse" x1="111.15" x2="111.15" y1="75.6228" y2="-2.45743"><stop offset="0" stop-color="#1c63b7"/><stop offset=".5" stop-color="#33bdf2"/><stop offset="1" stop-color="#33bdf2" stop-opacity=".42"/></linearGradient><linearGradient id="d" gradientUnits="userSpaceOnUse" x1="105.874" x2="105.874" y1="-11.3882" y2="90.7567"><stop offset="0" stop-color="#166ab8"/><stop offset=".4" stop-color="#36aee8"/><stop offset=".846" stop-color="#0798dd"/><stop offset="1" stop-color="#0798dd"/></linearGradient><linearGradient id="e" gradientUnits="userSpaceOnUse" x1="98.3482" x2="98.3482" y1="-10.5906" y2="98.0274"><stop offset="0" stop-color="#124379"/><stop offset=".39" stop-color="#1487cb"/><stop offset=".78" stop-color="#165197"/><stop offset="1" stop-color="#165197"/></linearGradient><linearGradient id="f" gradientUnits="userSpaceOnUse" x1="53.5951" x2="68.9263" y1="21.4775" y2="21.4775"><stop offset="0" stop-color="#33bdf2" stop-opacity=".698"/><stop offset="1" stop-color="#1dacd8"/></linearGradient><linearGradient id="g" gradientUnits="userSpaceOnUse" x1="169.695" x2="169.695" y1="73.5927" y2="-2.46807"><stop offset="0" stop-color="#136ab4"/><stop offset=".6" stop-color="#59caf5" stop-opacity=".549"/><stop offset="1" stop-color="#59caf5" stop-opacity=".235"/></linearGradient><linearGradient id="h" gradientUnits="userSpaceOnUse" x1="-.814768" x2="56.0569" y1="39.6668" y2="39.6668"><stop offset="0" stop-color="#05a1e6" stop-opacity=".247"/><stop offset="1" stop-color="#05a1e6"/></linearGradient><linearGradient id="i" gradientUnits="userSpaceOnUse" x1="31.8089" x2="31.8089" y1="75.5549" y2="-2.32529"><stop offset="0" stop-color="#318ed5"/><stop offset="1" stop-color="#38a7e4"/></linearGradient><linearGradient id="j" gradientUnits="userSpaceOnUse" x1="36.0071" x2="36.0071" y1="75.9688" y2=".070506"><stop offset="0" stop-color="#05a1e6"/><stop offset="1" stop-color="#05a1e6" stop-opacity=".549"/></linearGradient><linearGradient id="k" gradientUnits="userSpaceOnUse" x1="40.7666" x2="40.7666" y1="79.937" y2="15.8021"><stop offset="0" stop-color="#1959a6"/><stop offset=".5" stop-color="#05a1e6"/><stop offset=".918" stop-color="#7ec5ea"/><stop offset="1" stop-color="#7ec5ea"/></linearGradient><linearGradient id="l" gradientUnits="userSpaceOnUse" x1="42.8184" x2="30.5878" y1="75.6761" y2="6.3134"><stop offset="0" stop-color="#165096"/><stop offset="1" stop-color="#0d82ca"/></linearGradient><linearGradient id="m" gradientUnits="userSpaceOnUse" x1="156.151" x2="156.151" y1="36.3453" y2=".096582"><stop offset="0" stop-color="#05a1e6"/><stop offset=".874" stop-color="#0495d6"/><stop offset="1" stop-color="#0495d6"/></linearGradient><linearGradient id="n" gradientUnits="userSpaceOnUse" x1="173.892" x2="159.153" y1="-2.80664" y2="80.7805"><stop offset="0" stop-color="#38a7e4" stop-opacity=".329"/><stop offset=".962" stop-color="#0e88d3"/><stop offset="1" stop-color="#0e88d3"/></linearGradient><linearGradient id="o" gradientUnits="userSpaceOnUse" x1="159.908" x2="159.908" y1="-.128919" y2="78.9508"><stop offset="0" stop-color="#168cd4"/><stop offset=".5" stop-color="#1c87cc"/><stop offset="1" stop-color="#154b8d"/></linearGradient><linearGradient id="p" gradientUnits="userSpaceOnUse" x1="55.3294" x2="147.279" y1="-6.98946" y2="31.1502"><stop offset="0" stop-color="#97d6ee"/><stop offset=".703" stop-color="#55c1ea"/><stop offset="1" stop-color="#55c1ea"/></linearGradient><linearGradient id="q" gradientUnits="userSpaceOnUse" x1="71.3625" x2="143.986" y1="13.8555" y2="-19.0657"><stop offset="0" stop-color="#7accec"/><stop offset="1" stop-color="#3fb7ed"/></linearGradient><linearGradient id="r" gradientUnits="userSpaceOnUse" x1="149.119" x2="149.119" y1="4.1712" y2="81.5191"><stop offset="0" stop-color="#1da7e7"/><stop offset="1" stop-color="#37abe7" stop-opacity="0"/></linearGradient><clipPath id="s"><path d="m0 0h200v80h-200z"/></clipPath><g clip-path="url(#s)"><path d="m69.7524 16.3366c7.2379 22.1331 9.9794 61.6146 31.1436 61.6146 1.61 0 3.24-.1574 4.874-.4687-19.2379-4.485-21.5189-43.537-33.2597-63.7628-.9209.8374-1.832 1.7091-2.7579 2.6169z" fill="url(#a)"/><path d="m72.5098 13.7202c11.7408 20.2241 14.0218 59.2762 33.2592 63.7628 1.513-.2769 3.027-.6981 4.544-1.2273-17.2694-8.462-22.0412-46.3834-35.3748-64.6395-.8062.6719-1.6173 1.3748-2.4284 2.104z" fill="url(#b)"/><path d="m89.4259 1.69434c-1.6059 0-3.2396.1573-4.8783.46865-4.2801.80785-8.6323 2.65131-13.0173 5.44192 1.1962 1.1831 2.3383 2.53499 3.41 4.01139 4.462-3.70168 8.8929-6.43658 13.3057-8.08178 1.6583-.61449 3.3085-1.07494 4.9635-1.37973-1.1946-.30151-2.4531-.46045-3.7836-.46045z" fill="#14559a"/><path d="m123.794 68.4579c1.767-1.4043 3.536-2.9578 5.309-4.6537-7.354-22.0283-9.987-62.07666-31.2993-62.07666-1.5239 0-3.0609.14256-4.5947.42604 19.413 4.82908 21.9 47.06502 30.585 66.30432z" fill="url(#c)"/><path d="m93.2112 2.15448c-1.1946-.30315-2.4547-.4621-3.7869-.4621l8.38.03113c-1.5223 0-3.0593.14093-4.5931.43097z" fill="#3092c4"/><path d="m123.421 73.1356c-.832-.7947-1.623-1.6665-2.402-2.5956-3.585 2.5383-7.157 4.4637-10.705 5.7173 1.263.6161 2.586 1.0749 3.992 1.3584 1.088.2228 2.217.3376 3.4.3376 3.983 0 7.133-.472 9.81-1.7567-1.474-.7996-2.828-1.832-4.095-3.061z" fill="#1969bc"/><path d="m88.2451 3.53797c17.3879 9.09443 18.8999 50.28003 32.7749 67.00233.93-.6554 1.851-1.3502 2.771-2.0827-8.685-19.2393-11.168-61.48012-30.5775-66.30428-1.6567.3097-3.3101.76852-4.9684 1.38465z" fill="url(#d)"/><path d="m74.939 11.6166c13.3336 18.2561 18.1053 56.1791 35.375 64.6411 3.549-1.2536 7.121-3.1774 10.705-5.7172-13.874-16.7224-15.387-57.9063-32.7743-67.00241-4.4128 1.64191-8.8437 4.37681-13.3057 8.07851z" fill="url(#e)"/><path d="m61.2226 15.8044c-2.0893 4.7242-4.2244 10.9363-6.8037 19.0427 5.1306-7.2313 10.2465-13.4598 15.3328-18.5085-.7013-2.1531-1.4535-4.1408-2.2646-5.9089-2.0794 1.5895-4.1769 3.3821-6.2645 5.3747z" fill="url(#f)"/><path d="m69.3414 9.06445c-.6128.43916-1.2306.88815-1.8517 1.36335.8112 1.7697 1.5617 3.7558 2.2614 5.9106.9242-.9045 1.8418-1.7796 2.7594-2.6169-.9848-1.6927-2.0319-3.2544-3.1691-4.65705z" fill="#2b74b1"/><path d="m71.5307 7.60352c-.7292.46209-1.4551.95041-2.1909 1.46002 1.1389 1.40106 2.1844 2.96596 3.1725 4.66026.8111-.7341 1.6206-1.4403 2.4284-2.1089-1.0717-1.4748-2.2121-2.82829-3.41-4.01138z" fill="#125a9e"/><path d="m190.132.00819495c-9.834 37.92470505-30.374 68.38700505-47.593 76.06570505h-.034l-.93.3982-.113.0442-.263.1016-.118.0492-.431.1524-.177.0622-.215.0705-.207.0721-.183.0623-.367.1114-.157.041-.248.0671-.169.0459-.27.0705-.329.0721c.778.2867 1.589.4326 2.463.4326 16.329 0 32.794-29.2629 60.036-77.9272h-10.697z" fill="url(#g)"/><path d="m50.8716 3.23409.0311-.02621.0377-.02458h.0213l.2638-.1016.0525-.02622.0688-.02786.2835-.10159h.0147l.6276-.21958.0934-.02458.2688-.0803.1229-.03932.2703-.08029.1033-.02786.898-.23269.1228-.02785.2622-.0508.1278-.03933.2639-.04916h.0622l.5457-.1016h.1082l.2523-.04424.1426-.02458.2408-.03605.1328-.02622.5866-.05243c-.5653-.05244-1.1454-.08849-1.7386-.08849-18.3905 0-43.7271 34.11974-55.1386 78.30734h2.20069c3.65253-6.5136 6.93309-12.6765 9.93341-18.4609 7.995-31.298 24.2748-52.64297 38.7375-58.29792" fill="url(#h)"/><path d="m61.2231 15.804c2.0893-1.9926 4.1851-3.7852 6.2646-5.3764-.4736-1.03886-.9652-2.00238-1.4928-2.88561-1.6813 2.04175-3.2183 4.73571-4.7718 8.26201z" fill="#0d82ca"/><path d="m62.7346 3.49169c1.2012 1.00613 2.2778 2.39242 3.2609 4.05236.3097-.38016.6244-.73247.9504-1.06348-1.3666-1.27486-2.8414-2.32031-4.4439-3.1085l.1966.0934z" fill="#0d82ca"/><path d="m12.1362 61.5294c16.7682-32.3124 24.7124-52.76263 38.7375-58.29795-14.461 5.65986-30.7442 27.00315-38.7375 58.29795z" fill="url(#i)"/><path d="m66.9441 6.48047c-.3261.33428-.6375.68332-.9504 1.06348.5276.88159 1.0176 1.84183 1.496 2.88405.6194-.47525 1.2388-.9226 1.8501-1.3634-.7571-.93566-1.5584-1.80414-2.3957-2.58413z" fill="#127bca"/><path d="m19.7494 79.8438-.3047.0361h-.0574l-.2589.0262h-.0426l-.6161.041h-.0639c16.9697-.4752 24.7287-8.9716 28.5778-21.2974 2.925-9.3419 5.3289-17.2139 7.4346-23.8177-7.1085 10.0056-14.2497 21.9316-21.4285 35.2947-3.4608 6.4399-8.7258 9.1305-13.2403 9.704" fill="url(#j)"/><path d="m19.7502 79.8372c4.5144-.5751 9.7794-3.2625 13.2402-9.7056 7.1789-13.3566 14.3233-25.2859 21.4252-35.2931 2.5842-8.1096 4.716-14.3168 6.8069-19.0426-14.1562 13.4745-28.3665 35.8797-41.474 64.0331" fill="url(#k)"/><path d="m12.1372 61.5303c-3.00033 5.7844-6.28088 11.9473-9.93505 18.4609h6.39725c.84718-6.4694 2.0467-12.6356 3.5362-18.4577" fill="#05a1e6"/><path d="m56.2903 1.83544-.136.02622-.2392.03441-.1409.02458-.2524.04424-.1081.02622-.5457.09504h-.0623l-.2654.05244-.1328.03605-.2572.0508-.1213.02949-.8996.23269-.1032.0295-.2721.08029-.1229.03441-.2671.08029-.0983.02622-.6243.21958-.2835.09832-.118.04916-.2638.09831-.0885.04261c-14.0235 5.53369-21.9676 25.98389-38.7358 58.29629-1.4895 5.8204-2.69555 11.9883-3.53618 18.4576h.89634l6.15314-.0262h2.8233l.6145-.0409h.0393l.259-.0263h.0606l.3048-.036c13.1091-28.1551 27.3194-50.5586 41.474-64.0332 1.5567-3.5263 3.0921-6.22025 4.77-8.25872-.9831-1.65995-2.0581-3.04952-3.2576-4.05728l-.0344-.02622-.1999-.09668-.1983-.09995-.1917-.09341-.2278-.09504-.1769-.07701-.372-.15567-.159-.059-.2769-.11142-.1491-.04916-.3851-.13273h-.0311l-.4457-.12617-.1-.03114-.3752-.10487-.0869-.02458c-.3031-.08193-.6161-.1442-.9324-.20483l-.0967-.02622-.4047-.06555-.0803-.02458-.4785-.0639h-.0835l-.3704-.04097-.5866.05408" fill="url(#l)"/><path d="m151.723 21.0038c-3.228 10.3349-5.839 18.8607-8.115 25.8758 8.854-12.1833 17.575-27.5079 25.878-45.1921-9.689 3.04296-14.854 10.0072-17.763 19.3163z" fill="url(#m)"/><path d="m143.888 75.4295c-.451.2294-.905.4474-1.349.6456 17.219-7.6803 37.761-38.1426 47.593-76.0672875h-1.993c-22.593 40.3613875-29.859 67.3808875-44.251 75.4216875z" fill="url(#n)"/><path d="m132.643 72.0396c3.748-4.5735 6.797-12.3472 10.964-25.1597-4.806 6.6021-9.643 12.2767-14.485 16.9042l-.025.041c1.057 3.1642 2.216 5.9581 3.536 8.2128" fill="#079ae1"/><path d="m132.643 72.0391c-1.274 1.5567-2.626 2.7414-4.127 3.6197-.328.1917-.662.372-1 .5358 1.586.8554 3.315 1.4289 5.254 1.6567l.858.0754h.051l.413.0262h1.401l.159-.0262.31-.0262h.15l.336-.0361h.028l.103-.0245.359-.0558h.105l.403-.0672h.066l.804-.1704c-2.223-.8127-4.083-2.7316-5.684-5.4632" fill="#1969bc"/><path d="m100.898 77.9528c1.609 0 3.238-.1573 4.872-.4719 1.514-.2736 3.028-.6948 4.544-1.2241 1.263.6162 2.587 1.075 3.99 1.3617 1.088.2213 2.218.336 3.403.336h-16.809z" fill="#1e5cb3"/><path d="m117.707 77.9526c3.98 0 7.133-.4719 9.809-1.7583 1.586.857 3.315 1.4289 5.253 1.6583l.859.0738h.051l.413.0262h.495z" fill="#1e5cb3"/><path d="m134.586 77.9528h.919l.159-.0263.313-.0262h.151l.334-.036h.028l.102-.0262.358-.0541.11-.0246.405-.0656h.064l.805-.1704c.778.2868 1.589.4326 2.462.4326l-6.207.0263z" fill="#1d60b5"/><path d="m129.109 63.826v-.0262c-1.773 1.696-3.542 3.2494-5.309 4.6537-.922.7325-1.843 1.4273-2.774 2.0828.78.9307 1.571 1.8025 2.405 2.5972 1.265 1.2273 2.617 2.2613 4.094 3.0593.336-.1655.672-.3457.998-.5358 1.504-.8783 2.853-2.0647 4.129-3.6197-1.321-2.2548-2.479-5.0503-3.535-8.2129" fill="#175fab"/><path d="m181.831.0078125h-10.03l-1.59.0770113-.739 1.5829262c-8.305 17.68585-17.022 33.01045-25.876 45.19375-4.162 12.8108-7.216 20.5862-10.962 25.158 1.601 2.7333 3.464 4.6537 5.679 5.4681l.174-.0376h.036l.123-.0263.279-.0688.165-.0475.247-.0639.154-.0443.371-.1114.183-.0622.207-.0754.213-.0672.174-.0656.432-.1524.12-.0442.265-.1032.112-.041.93-.3982h.033c.444-.195.897-.4162 1.346-.6456 14.395-8.0425 21.662-35.0604 44.256-75.4200743h-6.311z" fill="url(#o)"/><path d="m56.8804 1.78302.1032.02622.2622.02785h.0885l.4785.06227.0803.02622.4031.06719.1016.02457.9291.20647.0852.02622.3736.10488.1032.03113.4441.12618.0344.02621.3884.13273.1474.04752.2786.11307.1573.05572.3703.15402.1803.07702.2229.09668.1966.09341.195.10159c1.6042.78654 3.079 1.83692 4.4456 3.11014.5047-.52928 1.0291-1.00449 1.5764-1.43217-2.9872-2.11877-6.3743-3.32644-10.2759-3.32644-.4523 0-.9046.02621-1.3634.06063" fill="#7dcbec"/><path d="m66.9443 6.481c.8374.77835 1.6387 1.64683 2.3957 2.58414.7341-.50962 1.4617-1.00121 2.1909-1.46003-.9553-.95533-1.9631-1.81562-3.0135-2.55628-.5456.42604-1.0684.90453-1.5731 1.43217z" fill="#5ec5ed"/><path d="m56.4468 1.88896 1.3641-.05781c3.9043 0 7.2881 1.2075 10.2742 3.3251 3.1516-2.48983 6.9644-3.35817 12.2584-3.35817h-25.6345z" fill="url(#p)"/><path d="m80.3433 1.79757c-5.294 0-9.0985.86834-12.2583 3.35817 1.0422.73619 2.0515 1.59664 3.011 2.55617 4.3924-2.78761 8.7349-4.64067 13.0197-5.44304 1.6378-.30606 3.2673-.46323 4.8721-.46323h-8.6445z" fill="url(#q)"/><path d="m143.609 46.8864c2.279-7.02 4.883-15.5426 8.117-25.8807 2.912-9.3141 8.071-16.27829 17.755-19.31633l.747-1.582925c-15.79.945495-23.17 8.978105-26.882 20.872955-6.495 20.7665-10.43 34.228-14.218 42.8062 4.837-4.6258 9.674-10.3037 14.481-16.8992z" fill="url(#r)"/></g></svg>