<svg fill="none" viewBox="0 0 275 118" xmlns="http://www.w3.org/2000/svg"><g stroke="#253053" stroke-opacity=".05"><path d="m0 40h275"/><path d="m0 18h275"/><path d="m0 62h275"/><path d="m0 84h275"/><path d="m0 106h275"/></g><path d="m55 67v30" stroke="#137ddf"/><path d="m78 26v33" stroke="#137ddf"/><path d="m101 16v15" stroke="#ec4a4a"/><path d="m125 55v15" stroke="#ec4a4a"/><path d="m148 98v15" stroke="#137ddf"/><path d="m171 67v35" stroke="#ec4a4a"/><path d="m194 69v33" stroke="#ec4a4a"/><path d="m217 90v28" stroke="#ec4a4a"/><path d="m240 11v84" stroke="#137ddf"/><path d="m263 0v22" stroke="#137ddf"/><path d="m11 22v9" stroke="#ec4a4a"/><rect fill="#fff" height="37" rx="2.5" stroke="#ec4a4a" width="7" x="7.5" y="31.5"/><path d="m32 69v12" stroke="#137ddf"/><rect fill="#137ddf" height="10" rx="3" width="8" x="28" y="59"/><rect fill="#137ddf" height="24" rx="3" width="8" x="51" y="69"/><rect fill="#137ddf" height="47" rx="3" width="8" x="74" y="31"/><rect fill="#fff" height="19" rx="2.5" stroke="#ec4a4a" width="7" x="97.5" y="31.5"/><rect fill="#fff" height="15" rx="2.5" stroke="#ec4a4a" width="7" x="121.5" y="46.5"/><rect fill="#137ddf" height="50" rx="3" width="8" x="144" y="59"/><rect fill="#fff" height="29" rx="2.5" stroke="#ec4a4a" width="7" x="167.5" y="68.5"/><rect fill="#fff" height="18" rx="2.5" stroke="#ec4a4a" width="7" x="190.5" y="81.5"/><rect fill="#fff" height="15" rx="2.5" stroke="#ec4a4a" width="7" x="213.5" y="91.5"/><rect fill="#137ddf" height="68" rx="3" width="8" x="236" y="19"/><rect fill="#137ddf" height="31" rx="3" width="8" x="259" y="7"/></svg>