<svg fill="none" viewBox="0 0 336 72" xmlns="http://www.w3.org/2000/svg"><g opacity=".2" stroke="#1358df" stroke-linecap="round" stroke-linejoin="round" stroke-width="2"><path d="m79.75 42.5 6.5-6.5"/><path d="m79.75 29.5 6.5 6.5"/><path d="m97.75 42.5 6.5-6.5"/><path d="m97.75 29.5 6.5 6.5"/><path d="m116.75 42.5 6.5-6.5"/><path d="m116.75 29.5 6.5 6.5"/></g><g opacity=".2" stroke="#1358df" stroke-linecap="round" stroke-linejoin="round" stroke-width="2"><path d="m256.25 29.5-6.5 6.5"/><path d="m256.25 42.5-6.5-6.5"/><path d="m238.25 29.5-6.5 6.5"/><path d="m238.25 42.5-6.5-6.5"/><path d="m219.25 29.5-6.5 6.5"/><path d="m219.25 42.5-6.5-6.5"/></g><path d="m172 2.1547c-2.475-1.429062-5.525-1.429062-8 0l-23.311 13.4585c-2.475 1.4291-4 4.0701-4 6.9283v26.917c0 2.8582 1.525 5.4992 4 6.9282l23.311 13.4586c2.475 1.4291 5.525 1.4291 8 0l23.311-13.4586c2.475-1.429 4-4.07 4-6.9282v-26.917c0-2.8582-1.525-5.4992-4-6.9283z" fill="#1358df" fill-opacity=".1" stroke="#1358df" stroke-width="2"/><path d="m38.75 2.58771c-2.3205-1.33974-5.1795-1.33974-7.5 0l-23.31089 13.45859c-2.32051 1.3397-3.75 3.8157-3.75 6.4952v26.917c0 2.6795 1.42949 5.1555 3.75 6.4952l23.31089 13.4586c2.3205 1.3397 5.1795 1.3397 7.5 0l23.3109-13.4586c2.3205-1.3397 3.75-3.8157 3.75-6.4952v-26.917c0-2.6795-1.4295-5.1555-3.75-6.4952z" fill="#ec4a4a" fill-opacity=".1" stroke="#ec4a4a"/><path d="m304.75 2.58771c-2.321-1.33974-5.179-1.33974-7.5 0l-23.311 13.45859c-2.32 1.3397-3.75 3.8157-3.75 6.4952v26.917c0 2.6795 1.43 5.1555 3.75 6.4952l23.311 13.4586c2.321 1.3397 5.179 1.3397 7.5 0l23.311-13.4586c2.32-1.3397 3.75-3.8157 3.75-6.4952v-26.917c0-2.6795-1.43-5.1555-3.75-6.4952z" fill="#ec4a4a" fill-opacity=".1" stroke="#ec4a4a"/><path d="m167 11.5774c.619-.3573 1.381-.3573 2 0l19.651 11.3452c.618.3573 1 1.0176 1 1.7321v22.6906c0 .7145-.382 1.3748-1 1.7321l-19.651 11.3452c-.619.3573-1.381.3573-2 0l-19.651-11.3452c-.618-.3573-1-1.0176-1-1.7321v-22.6906c0-.7145.382-1.3748 1-1.7321z" fill="#fff"/><path d="m34 11.5774c.6188-.3573 1.3812-.3573 2 0l19.6506 11.3452c.6188.3573 1 1.0176 1 1.7321v22.6906c0 .7145-.3812 1.3748-1 1.7321l-19.6506 11.3452c-.6188.3573-1.3812.3573-2 0l-19.6506-11.3452c-.6188-.3573-1-1.0176-1-1.7321v-22.6906c0-.7145.3812-1.3748 1-1.7321z" fill="#fff"/><path d="m300 11.5774c.619-.3573 1.381-.3573 2 0l19.651 11.3452c.618.3573 1 1.0176 1 1.7321v22.6906c0 .7145-.382 1.3748-1 1.7321l-19.651 11.3452c-.619.3573-1.381.3573-2 0l-19.651-11.3452c-.618-.3573-1-1.0176-1-1.7321v-22.6906c0-.7145.382-1.3748 1-1.7321z" fill="#fff"/><g stroke-linecap="round" stroke-linejoin="round"><path d="m163.999 26.667h-2.666c-.708 0-1.386.2809-1.886.781s-.781 1.1784-.781 1.8857v16c0 .7072.281 1.3855.781 1.8856s1.178.781 1.886.781h13.333c.707 0 1.386-.2809 1.886-.781s.781-1.1784.781-1.8856v-16c0-.7073-.281-1.3856-.781-1.8857s-1.179-.781-1.886-.781h-2.667" stroke="#1358df"/><path d="m169.333 24h-2.666c-1.473 0-2.667 1.1939-2.667 2.6667 0 1.4727 1.194 2.6666 2.667 2.6666h2.666c1.473 0 2.667-1.1939 2.667-2.6666 0-1.4728-1.194-2.6667-2.667-2.6667z" stroke="#1358df"/><path d="m164 36h.013" stroke="#1358df"/><path d="m169.334 36h2.667" stroke="#1358df"/><path d="m164 41.333h.013" stroke="#1358df"/><path d="m169.334 41.333h2.667" stroke="#1358df"/><path d="m30.9993 34.6667c2.9456 0 5.3334-2.3878 5.3334-5.3334 0-2.9455-2.3878-5.3333-5.3334-5.3333-2.9455 0-5.3333 2.3878-5.3333 5.3333 0 2.9456 2.3878 5.3334 5.3333 5.3334z" stroke="#ec4a4a"/><path d="m23 48v-2.6667c0-1.4145.5619-2.771 1.5621-3.7712s2.3567-1.5621 3.7712-1.5621h5.3334c1.4145 0 2.771.5619 3.7712 1.5621s1.5621 2.3567 1.5621 3.7712v2.6667" stroke="#ec4a4a"/><path d="m40.334 34.6667 2.6667 2.6666 5.3333-5.3333" stroke="#ec4a4a"/><path d="m296.999 34.6667c2.946 0 5.334-2.3878 5.334-5.3334 0-2.9455-2.388-5.3333-5.334-5.3333-2.945 0-5.333 2.3878-5.333 5.3333 0 2.9456 2.388 5.3334 5.333 5.3334z" stroke="#ec4a4a"/><path d="m289 48v-2.6667c0-1.4145.562-2.771 1.562-3.7712s2.357-1.5621 3.771-1.5621h5.334c1.414 0 2.771.5619 3.771 1.5621s1.562 2.3567 1.562 3.7712v2.6667" stroke="#ec4a4a"/><path d="m306.334 34.6667 2.667 2.6666 5.333-5.3333" stroke="#ec4a4a"/></g></svg>