<svg fill="none" viewBox="0 0 198 72" xmlns="http://www.w3.org/2000/svg"><g opacity=".2" stroke="#1358df" stroke-linecap="round" stroke-linejoin="round" stroke-width="2"><path d="m76.75 42.5 6.5-6.5"/><path d="m76.75 29.5 6.5 6.5"/><path d="m94.75 42.5 6.5-6.5"/><path d="m94.75 29.5 6.5 6.5"/><path d="m113.75 42.5 6.5-6.5"/><path d="m113.75 29.5 6.5 6.5"/></g><path d="m169 2.1547c-2.475-1.429062-5.525-1.429062-8 0l-23.311 13.4585c-2.475 1.4291-4 4.0701-4 6.9283v26.917c0 2.8582 1.525 5.4992 4 6.9282l23.311 13.4586c2.475 1.4291 5.525 1.4291 8 0l23.311-13.4586c2.475-1.429 4-4.07 4-6.9282v-26.917c0-2.8582-1.525-5.4992-4-6.9283z" fill="#1358df" fill-opacity=".1" stroke="#1358df" stroke-width="2"/><path d="m35.75 2.58771c-2.3205-1.33974-5.1795-1.33974-7.5 0l-23.31089 13.45859c-2.32051 1.3397-3.75 3.8157-3.75 6.4952v26.917c0 2.6795 1.42949 5.1555 3.75 6.4952l23.31089 13.4586c2.3205 1.3397 5.1795 1.3397 7.5 0l23.3109-13.4586c2.3205-1.3397 3.75-3.8157 3.75-6.4952v-26.917c0-2.6795-1.4295-5.1555-3.75-6.4952z" fill="#ec4a4a" fill-opacity=".1" stroke="#ec4a4a"/><path d="m164 11.5774c.619-.3573 1.381-.3573 2 0l19.651 11.3452c.618.3573 1 1.0176 1 1.7321v22.6906c0 .7145-.382 1.3748-1 1.7321l-19.651 11.3452c-.619.3573-1.381.3573-2 0l-19.651-11.3452c-.618-.3573-1-1.0176-1-1.7321v-22.6906c0-.7145.382-1.3748 1-1.7321z" fill="#fff"/><path d="m31 11.5774c.6188-.3573 1.3812-.3573 2 0l19.6506 11.3452c.6188.3573 1 1.0176 1 1.7321v22.6906c0 .7145-.3812 1.3748-1 1.7321l-19.6506 11.3452c-.6188.3573-1.3812.3573-2 0l-19.6506-11.3452c-.6188-.3573-1-1.0176-1-1.7321v-22.6906c0-.7145.3812-1.3748 1-1.7321z" fill="#fff"/><g stroke-linecap="round" stroke-linejoin="round"><path d="m25.1566 24.207c.351-1.4467 2.409-1.4467 2.7599 0 .0527.2173.1559.4191.3013.589s.3289.3031.5355.3887c.2066.0855.4304.1211.6534.1039.2229-.0173.4387-.087.6296-.2034 1.2712-.7744 2.7269.6805 1.9525 1.9525-.1162.1908-.1858.4064-.2031.6292-.0172.2228.0184.4466.1039.653.0855.2065.2185.3899.3882.5353.1697.1453.3713.2486.5884.3014 1.4467.351 1.4467 2.409 0 2.7599-.2173.0527-.4191.1559-.589.3013s-.3031.3289-.3887.5355-.1212.4304-.1039.6534c.0173.2229.087.4387.2034.6296.7744 1.2712-.6805 2.7269-1.9525 1.9525-.1909-.1162-.4065-.1858-.6293-.2031-.2228-.0172-.4465.0184-.653.1039-.2064.0855-.3898.2185-.5352.3882s-.2487.3713-.3015.5884c-.3509 1.4467-2.4089 1.4467-2.7599 0-.0526-.2173-.1559-.4191-.3013-.589s-.3288-.3031-.5354-.3887-.4305-.1212-.6534-.1039c-.223.0173-.4387.087-.6296.2034-1.2712.7744-2.727-.6805-1.9525-1.9525.1162-.1909.1858-.4065.203-.6293.0173-.2228-.0183-.4465-.1038-.653-.0855-.2064-.2185-.3898-.3882-.5352s-.3713-.2487-.5884-.3015c-1.4467-.3509-1.4467-2.4089 0-2.7599.2173-.0526.4191-.1559.589-.3013s.3031-.3288.3887-.5354c.0855-.2066.1211-.4305.1039-.6534-.0173-.223-.087-.4387-.2034-.6296-.7744-1.2712.6805-2.727 1.9525-1.9525.8238.5009 1.8916.0576 2.1189-.8774z" stroke="#ec4a4a"/><path d="m33.7909 36.3677c-.2054-1.3022 1.4772-2.0025 2.2565-.9392.117.1598.2701.2897.4468.3791.1766.0894.372.1359.57.1355.198-.0003.3932-.0474.5696-.1374s.329-.2204.4455-.3805c.7758-1.0658 2.4611-.3717 2.2608.9319-.0301.1956-.0136.3955.0481.5835.0618.1881.167.3589.3071.4986.1402.1397.3113.2444.4996.3055.1882.0611.3882.0769.5837.0462 1.3022-.2054 2.0025 1.4772.9392 2.2565-.1598.117-.2897.2701-.3791.4467-.0894.1767-.1358.3721-.1355.5701s.0474.3932.1374.5696.2204.329.3805.4455c1.0658.7758.3717 2.4611-.9319 2.2608-.1956-.0301-.3955-.0136-.5835.0481-.188.0618-.3589.167-.4986.3071-.1397.1402-.2443.3113-.3055.4996-.0611.1882-.0769.3882-.0462.5837.2054 1.3022-1.4772 2.0025-2.2564.9392-.1171-.1598-.2701-.2897-.4468-.3791s-.372-.1358-.5701-.1355c-.198.0003-.3932.0474-.5696.1374s-.329.2204-.4455.3805c-.7758 1.0658-2.4611.3717-2.2608-.9319.0301-.1956.0136-.3955-.0481-.5835-.0617-.1881-.167-.3589-.3071-.4986-.1402-.1397-.3113-.2443-.4995-.3055-.1883-.0611-.3883-.0769-.5838-.0462-1.3022.2054-2.0025-1.4772-.9392-2.2565.1598-.117.2897-.27.3791-.4467s.1359-.372.1355-.5701c-.0003-.198-.0474-.3932-.1374-.5696s-.2204-.329-.3805-.4455c-1.0658-.7758-.3716-2.4611.9319-2.2608.844.1291 1.5661-.5966 1.4338-1.4385z" stroke="#ec4a4a"/><path d="m26.5365 33.2683c1.5087 0 2.7317-1.223 2.7317-2.7317 0-1.5086-1.223-2.7317-2.7317-2.7317s-2.7317 1.2231-2.7317 2.7317c0 1.5087 1.223 2.7317 2.7317 2.7317z" stroke="#ec4a4a"/><path d="m37.9354 43.0098c1.0696-.4763 1.5506-1.7295 1.0743-2.7991s-1.7295-1.5505-2.7991-1.0742-1.5506 1.7295-1.0742 2.7991c.4763 1.0696 1.7295 1.5505 2.799 1.0742z" stroke="#ec4a4a"/><path d="m170.333 32c3.682 0 6.667-1.7909 6.667-4s-2.985-4-6.667-4c-3.681 0-6.666 1.7909-6.666 4s2.985 4 6.666 4z" stroke="#1358df"/><path d="m163.667 28v5.3333c0 2.2094 2.985 4 6.666 4 3.682 0 6.667-1.7906 6.667-4v-5.3333" stroke="#1358df"/><path d="m163.667 33.3333v5.3333c0 2.2093 2.985 4 6.666 4 3.682 0 6.667-1.7907 6.667-4v-5.3333" stroke="#1358df"/><path d="m163.667 38.6667v5.3334c0 2.2093 2.985 4 6.666 4 3.682 0 6.667-1.7907 6.667-4v-5.3334" stroke="#1358df"/><path d="m158.333 32h-3.333c-.53 0-1.039.2107-1.414.5858s-.586.8838-.586 1.4142.211 1.0391.586 1.4142.884.5858 1.414.5858h1.333c.531 0 1.039.2107 1.415.5858.375.3751.585.8838.585 1.4142s-.21 1.0391-.585 1.4142c-.376.3751-.884.5858-1.415.5858h-3.333" stroke="#1358df"/><path d="m155.667 30.6667v1.3334m0 8v1.3333z" stroke="#1358df"/></g></svg>