<svg fill="none" viewBox="0 0 406 131" xmlns="http://www.w3.org/2000/svg"><path d="m206.75 61.5877c-2.321-1.3397-5.179-1.3397-7.5 0l-23.311 13.4586c-2.32 1.3397-3.75 3.8157-3.75 6.4952v26.9175c0 2.679 1.43 5.155 3.75 6.495l23.311 13.458c2.321 1.34 5.179 1.34 7.5 0l23.311-13.458c2.32-1.34 3.75-3.816 3.75-6.495v-26.9175c0-2.6795-1.43-5.1555-3.75-6.4952z" fill="#f46565" fill-opacity=".1" stroke="#ec4a4a"/><path d="m37 2.1547c-2.4752-1.429062-5.5248-1.429062-8 0l-23.31089 13.4585c-2.47521 1.4291-4 4.0701-4 6.9283v26.917c0 2.8582 1.52479 5.4992 4 6.9282l23.31089 13.4586c2.4752 1.4291 5.5248 1.4291 8 0l23.3109-13.4586c2.4752-1.429 4-4.07 4-6.9282v-26.917c0-2.8582-1.5248-5.4992-4-6.9283z" fill="#1358df" fill-opacity=".1" stroke="#1358df" stroke-width="2"/><path d="m104.75 2.58771c-2.321-1.33974-5.1795-1.33974-7.5 0l-23.3109 13.45859c-2.3205 1.3397-3.75 3.8157-3.75 6.4952v26.917c0 2.6795 1.4295 5.1555 3.75 6.4952l23.3109 13.4586c2.3205 1.3397 5.179 1.3397 7.5 0l23.311-13.4586c2.32-1.3397 3.75-3.8157 3.75-6.4952v-26.917c0-2.6795-1.43-5.1555-3.75-6.4952z" fill="#f46565" fill-opacity=".1" stroke="#ec4a4a"/><path d="m308.75 2.58771c-2.321-1.33974-5.179-1.33974-7.5 0l-23.311 13.45859c-2.32 1.3397-3.75 3.8157-3.75 6.4952v26.917c0 2.6795 1.43 5.1555 3.75 6.4952l23.311 13.4586c2.321 1.3397 5.179 1.3397 7.5 0l23.311-13.4586c2.32-1.3397 3.75-3.8157 3.75-6.4952v-26.917c0-2.6795-1.43-5.1555-3.75-6.4952z" fill="#f46565" fill-opacity=".1" stroke="#ec4a4a"/><path d="m100 11.5774c.619-.3573 1.381-.3573 2 0l19.651 11.3452c.618.3573 1 1.0176 1 1.7321v22.6906c0 .7145-.382 1.3748-1 1.7321l-19.651 11.3452c-.619.3573-1.381.3573-2 0l-19.6506-11.3452c-.6188-.3573-1-1.0176-1-1.7321v-22.6906c0-.7145.3812-1.3748 1-1.7321z" fill="#fff"/><path d="m106.334 32c3.682 0 6.666-1.7909 6.666-4s-2.984-4-6.666-4-6.667 1.7909-6.667 4 2.985 4 6.667 4z" stroke="#ec4a4a" stroke-linecap="round" stroke-linejoin="round"/><path d="m99.667 28v5.3333c0 2.2094 2.985 4 6.667 4 3.681 0 6.666-1.7906 6.666-4v-5.3333" stroke="#ec4a4a" stroke-linecap="round" stroke-linejoin="round"/><path d="m99.667 33.3333v5.3333c0 2.2093 2.985 4 6.667 4 3.681 0 6.666-1.7907 6.666-4v-5.3333" stroke="#ec4a4a" stroke-linecap="round" stroke-linejoin="round"/><path d="m99.667 38.6667v5.3334c0 2.2093 2.985 4 6.667 4 3.681 0 6.666-1.7907 6.666-4v-5.3334" stroke="#ec4a4a" stroke-linecap="round" stroke-linejoin="round"/><path d="m94.3333 32h-3.3333c-.5304 0-1.0391.2107-1.4142.5858s-.5858.8838-.5858 1.4142.2107 1.0391.5858 1.4142.8838.5858 1.4142.5858h1.3333c.5305 0 1.0392.2107 1.4142.5858.3751.3751.5858.8838.5858 1.4142s-.2107 1.0391-.5858 1.4142c-.375.3751-.8837.5858-1.4142.5858h-3.3333" stroke="#ec4a4a" stroke-linecap="round" stroke-linejoin="round"/><path d="m91.667 30.6667v1.3334m0 8v1.3333z" stroke="#ec4a4a" stroke-linecap="round" stroke-linejoin="round"/><path d="m275 61.1547c-2.475-1.4291-5.525-1.4291-8 0l-23.311 13.4585c-2.475 1.4291-4 4.0701-4 6.9283v26.9175c0 2.858 1.525 5.499 4 6.928l23.311 13.458c2.475 1.429 5.525 1.429 8 0l23.311-13.458c2.475-1.429 4-4.07 4-6.928v-26.9175c0-2.8582-1.525-5.4992-4-6.9283z" fill="#1358df" fill-opacity=".1" stroke="#1358df" stroke-width="2"/><path d="m173 2.1547c-2.475-1.429062-5.525-1.429062-8 0l-23.311 13.4585c-2.475 1.4291-4 4.0701-4 6.9283v26.917c0 2.8582 1.525 5.4992 4 6.9282l23.311 13.4586c2.475 1.4291 5.525 1.4291 8 0l23.311-13.4586c2.475-1.429 4-4.07 4-6.9282v-26.917c0-2.8582-1.525-5.4992-4-6.9283z" fill="#1358df" fill-opacity=".1" stroke="#1358df" stroke-width="2"/><path d="m168 11.5774c.619-.3573 1.381-.3573 2 0l19.651 11.3452c.618.3573 1 1.0176 1 1.7321v22.6906c0 .7145-.382 1.3748-1 1.7321l-19.651 11.3452c-.619.3573-1.381.3573-2 0l-19.651-11.3452c-.618-.3573-1-1.0176-1-1.7321v-22.6906c0-.7145.382-1.3748 1-1.7321z" fill="#fff"/><path d="m304 11.5774c.619-.3573 1.381-.3573 2 0l19.651 11.3452c.618.3573 1 1.0176 1 1.7321v22.6906c0 .7145-.382 1.3748-1 1.7321l-19.651 11.3452c-.619.3573-1.381.3573-2 0l-19.651-11.3452c-.618-.3573-1-1.0176-1-1.7321v-22.6906c0-.7145.382-1.3748 1-1.7321z" fill="#fff"/><path d="m32 11.5774c.6188-.3573 1.3812-.3573 2 0l19.6506 11.3452c.6188.3573 1 1.0176 1 1.7321v22.6906c0 .7145-.3812 1.3748-1 1.7321l-19.6506 11.3452c-.6188.3573-1.3812.3573-2 0l-19.6506-11.3452c-.6188-.3573-1-1.0176-1-1.7321v-22.6906c0-.7145.3812-1.3748 1-1.7321z" fill="#fff"/><path d="m377 2.1547c-2.475-1.429062-5.525-1.429062-8 0l-23.311 13.4585c-2.475 1.4291-4 4.0701-4 6.9283v26.917c0 2.8582 1.525 5.4992 4 6.9282l23.311 13.4586c2.475 1.4291 5.525 1.4291 8 0l23.311-13.4586c2.475-1.429 4-4.07 4-6.9282v-26.917c0-2.8582-1.525-5.4992-4-6.9283z" fill="#1358df" fill-opacity=".1" stroke="#1358df" stroke-width="2"/><path d="m71 61.1547c-2.4752-1.4291-5.5248-1.4291-8 0l-23.3109 13.4585c-2.4752 1.4291-4 4.0701-4 6.9283v26.9175c0 2.858 1.5248 5.499 4 6.928l23.3109 13.458c2.4752 1.429 5.5248 1.429 8 0l23.3109-13.458c2.4752-1.429 4-4.07 4-6.928v-26.9175c0-2.8582-1.5248-5.4992-4-6.9283z" fill="#1358df" fill-opacity=".1" stroke="#1358df" stroke-width="2"/><path d="m30.3334 24.2667c-2.0857.4835-4.0041 1.5163-5.5561 2.9911-1.5521 1.4749-2.6813 3.3381-3.2705 5.3965s-.617 4.2369-.0804 6.3096c.5365 2.0727 1.6178 3.9642 3.1318 5.4781 1.5139 1.5139 3.4053 2.5953 5.4781 3.1318 2.0727.5365 4.2512.5088 6.3096-.0804 2.0583-.5893 3.9216-1.7185 5.3964-3.2705 1.4749-1.5521 2.5076-3.4704 2.9911-5.5562 0-.3536-.1404-.6927-.3905-.9428-.25-.25-.5892-.3905-.9428-.3905h-9.0667c-.7072 0-1.3855-.281-1.8856-.7811s-.781-1.1783-.781-1.8856v-9.3333c-.0166-.158-.0643-.3111-.1405-.4504-.0762-.1394-.1793-.2623-.3033-.3615-.1241-.0992-.2666-.1728-.4193-.2166-.1526-.0437-.3125-.0567-.4703-.0382z" stroke="#1358df" stroke-linecap="round" stroke-linejoin="round"/><path d="m37 24.6666c1.693.5961 3.2306 1.5644 4.4998 2.8336 1.2691 1.2691 2.2374 2.8068 2.8335 4.4998h-6c-.3536 0-.6927-.1405-.9428-.3906-.25-.25-.3905-.5892-.3905-.9428z" stroke="#1358df" stroke-linecap="round" stroke-linejoin="round"/><path d="m372 11.5774c.619-.3573 1.381-.3573 2 0l19.651 11.3452c.618.3573 1 1.0176 1 1.7321v22.6906c0 .7145-.382 1.3748-1 1.7321l-19.651 11.3452c-.619.3573-1.381.3573-2 0l-19.651-11.3452c-.618-.3573-1-1.0176-1-1.7321v-22.6906c0-.7145.382-1.3748 1-1.7321z" fill="#fff"/><path d="m270 70.5774c.619-.3573 1.381-.3573 2 0l19.651 11.3452c.618.3573 1 1.0176 1 1.7321v22.6903c0 .715-.382 1.375-1 1.732l-19.651 11.346c-.619.357-1.381.357-2 0l-19.651-11.346c-.618-.357-1-1.017-1-1.732v-22.6903c0-.7145.382-1.3748 1-1.7321z" fill="#fff"/><path d="m202 70.5774c.619-.3573 1.381-.3573 2 0l19.651 11.3452c.618.3573 1 1.0176 1 1.7321v22.6903c0 .715-.382 1.375-1 1.732l-19.651 11.346c-.619.357-1.381.357-2 0l-19.651-11.346c-.618-.357-1-1.017-1-1.732v-22.6903c0-.7145.382-1.3748 1-1.7321z" fill="#fff"/><path d="m65 70.5774c.6188-.3573 1.3812-.3573 2 0l19.6506 11.3452c.6188.3573 1 1.0176 1 1.7321v22.6903c0 .715-.3812 1.375-1 1.732l-19.6506 11.346c-.6188.357-1.3812.357-2 0l-19.6506-11.346c-.6188-.357-1-1.017-1-1.732v-22.6903c0-.7145.3812-1.3748 1-1.7321z" fill="#fff"/><g stroke-linecap="round" stroke-linejoin="round"><path d="m162.333 34.6667c2.946 0 5.334-2.3878 5.334-5.3334 0-2.9455-2.388-5.3333-5.334-5.3333-2.945 0-5.333 2.3878-5.333 5.3333 0 2.9456 2.388 5.3334 5.333 5.3334z" stroke="#1358df"/><path d="m162.333 24v5.3333h5.334" stroke="#1358df"/><path d="m165 42.6666v5.3334" stroke="#1358df"/><path d="m175.667 38.6666v9.3334" stroke="#1358df"/><path d="m170.333 37.3334v10.6666" stroke="#1358df"/><path d="m181 36v12" stroke="#1358df"/><path d="m298.333 44c-1.663 0-3.259-.6322-4.435-1.7574-1.177-1.1252-1.837-2.6513-1.837-4.2426s.66-3.1174 1.837-4.2427c1.176-1.1252 2.772-1.7573 4.435-1.7573.393-1.7505 1.543-3.2887 3.196-4.2764.818-.4891 1.736-.8282 2.7-.9981.964-.17 1.956-.1673 2.919.0078s1.878.5192 2.694 1.0126c.815.4935 1.514 1.1266 2.058 1.8633.543.7367.92 1.5625 1.109 2.4302.188.8678.185 1.7605-.009 2.6272h1.333c1.238 0 2.425.4917 3.3 1.3669.875.8751 1.367 2.0621 1.367 3.2998s-.492 2.4247-1.367 3.2998c-.875.8752-2.062 1.3669-3.3 1.3669z" stroke="#ec4a4a"/><path d="m373 48c6.627 0 12-5.3726 12-12s-5.373-12-12-12-12 5.3726-12 12 5.373 12 12 12z" stroke="#1358df"/><path d="m373 29.3334v6.6666l4 4" stroke="#1358df"/><path d="m281.667 84.3333h-21.334c-.736 0-1.333.597-1.333 1.3333v13.3334c0 .7364.597 1.333 1.333 1.333h21.334c.736 0 1.333-.5966 1.333-1.333v-13.3334c0-.7363-.597-1.3333-1.333-1.3333z" stroke="#1358df"/><path d="m264.333 105.667h13.334" stroke="#1358df"/><path d="m267 100.333v5.334" stroke="#1358df"/><path d="m275 100.333v5.334" stroke="#1358df"/><path d="m265.667 95 4-4 2.666 2.6667 4-4" stroke="#1358df"/><path d="m200 93.6667c2.945 0 5.333-2.3878 5.333-5.3334 0-2.9455-2.388-5.3333-5.333-5.3333-2.946 0-5.333 2.3878-5.333 5.3333 0 2.9456 2.387 5.3334 5.333 5.3334z" stroke="#ec4a4a"/><path d="m192 107v-2.667c0-1.414.562-2.771 1.562-3.771 1-1.0001 2.357-1.562 3.771-1.562h5.334c1.414 0 2.771.5619 3.771 1.562 1 1 1.562 2.357 1.562 3.771v2.667" stroke="#ec4a4a"/><path d="m209.333 83.1733c1.148.2938 2.165.961 2.891 1.8965.726.9354 1.12 2.086 1.12 3.2702s-.394 2.3348-1.12 3.2703c-.726.9354-1.743 1.6026-2.891 1.8964" stroke="#ec4a4a"/><path d="m216 107v-2.667c-.007-1.177-.403-2.319-1.126-3.247-.724-.929-1.734-1.5917-2.874-1.886" stroke="#ec4a4a"/><path d="m62.0002 84.3333h-5.3334c-.7364 0-1.3333.597-1.3333 1.3333v5.3334c0 .7364.5969 1.3333 1.3333 1.3333h5.3334c.7363 0 1.3333-.5969 1.3333-1.3333v-5.3334c0-.7363-.597-1.3333-1.3333-1.3333z" stroke="#1358df"/><path d="m62.0002 97.6667h-5.3334c-.7364 0-1.3333.5969-1.3333 1.3333v5.333c0 .737.5969 1.334 1.3333 1.334h5.3334c.7363 0 1.3333-.597 1.3333-1.334v-5.333c0-.7364-.597-1.3333-1.3333-1.3333z" stroke="#1358df"/><path d="m75.3332 97.6667h-5.3334c-.7363 0-1.3333.5969-1.3333 1.3333v5.333c0 .737.597 1.334 1.3333 1.334h5.3334c.7364 0 1.3333-.597 1.3333-1.334v-5.333c0-.7364-.5969-1.3333-1.3333-1.3333z" stroke="#1358df"/><path d="m68.6665 88.3333h8" stroke="#1358df"/><path d="m72.6665 84.3333v8" stroke="#1358df"/></g></svg>