<svg fill="none" viewBox="0 0 201 41" xmlns="http://www.w3.org/2000/svg"><g stroke="#1358df" stroke-linecap="round" stroke-linejoin="round" stroke-width="2"><path d="m170.25 10.25h13.667c1.359 0 2.662.54 3.624 1.5011.961.9611 1.501 2.2647 1.501 3.6239s-.54 2.6628-1.501 3.6239c-.962.9611-2.265 1.5011-3.624 1.5011 1.359 0 2.662.54 3.624 1.5011.961.9611 1.501 2.2647 1.501 3.6239s-.54 2.6628-1.501 3.6239c-.962.9611-2.265 1.5011-3.624 1.5011h-13.667"/><path d="m173.667 10.25v20.5"/><path d="m173.667 20.5h10.25"/><path d="m175.375 5.125v5.125"/><path d="m182.208 5.125v5.125"/><path d="m175.375 30.75v5.125"/><path d="m182.208 30.75v5.125"/><g opacity=".2"><path d="m10.25 20.5 10.25-15.375 10.25 15.375-10.25 15.375z"/><path d="m10.25 20.5 10.25-5.125 10.25 5.125-10.25 3.4167z"/></g></g><circle cx="59.5" cy="20.5" fill="#1358df" fill-opacity=".3" r="4.5"/><circle cx="100.5" cy="20.5" fill="#1358df" fill-opacity=".5" r="4.5"/><circle cx="80.5" cy="20.5" fill="#1358df" fill-opacity=".4" r="4.5"/><circle cx="120.5" cy="20.5" fill="#1358df" fill-opacity=".6" r="4.5"/><circle cx="141.5" cy="20.5" fill="#1358df" fill-opacity=".7" r="4.5"/></svg>