<svg fill="none" viewBox="0 0 420 153" xmlns="http://www.w3.org/2000/svg" xmlns:xlink="http://www.w3.org/1999/xlink"><linearGradient id="a" gradientUnits="userSpaceOnUse" x1="219.5" x2="219.5" y1="0" y2="148"><stop offset="0" stop-color="#137ddf" stop-opacity=".56"/><stop offset="1" stop-color="#137ddf" stop-opacity="0"/></linearGradient><path d="m3.366 152.132c-.484 0-.913-.11-1.287-.33-.36667-.227-.66-.528-.88-.902-.212667-.374-.374-.777-.484-1.21-.102667-.433-.154-.884-.154-1.353s.051333-.92.154-1.353c.11-.433.271333-.832.484-1.199.22-.374.51333-.671.88-.891.374-.227.803-.341 1.287-.341.47667 0 .902.114 1.276.341.374.22.66733.517.88.891.22.367.38133.766.484 1.199.11.433.165.884.165 1.353s-.055.92-.165 1.353c-.10267.433-.264.836-.484 1.21-.21267.374-.506.675-.88.902-.374.22-.79933.33-1.276.33zm-1.1-1.265c.29333.301.66.451 1.1.451s.80667-.15 1.1-.451c.29333-.308.495-.675.605-1.1s.165-.902.165-1.43-.055-1.005-.165-1.43-.31167-.788-.605-1.089-.66-.451-1.1-.451-.80667.15-1.1.451-.495.664-.605 1.089-.165.902-.165 1.43.055 1.005.165 1.43.31167.792.605 1.1z" fill="#253053" fill-opacity=".2"/><path d="m5.632 130h-5.038v-.726c.76267-.601 1.353-1.078 1.771-1.43.42533-.359.83233-.737 1.221-1.133.396-.403.67467-.759.836-1.067.16133-.315.242-.627.242-.935 0-.44-.15033-.774-.451-1.001s-.66-.341-1.078-.341c-.84333 0-1.507.308-1.991.924l-.561-.583c.278667-.367.64167-.649 1.089-.847.45467-.205.94233-.308 1.463-.308.66733 0 1.243.187 1.727.561.49133.374.737.906.737 1.595 0 .682-.29333 1.364-.88 2.046-.58667.675-1.48133 1.485-2.684 2.431h3.597z" fill="#253053" fill-opacity=".2"/><path d="m4.752 108h-.913v-1.859h-3.487v-.759l3.146-4.719h1.254v4.675h1.034v.803h-1.034zm-.913-2.662v-3.828l-2.574 3.828z" fill="#253053" fill-opacity=".2"/><path d="m3.388 86.132c-.49133 0-.924-.1027-1.298-.308s-.671-.484-.891-.836c-.212667-.3593-.374-.759-.484-1.199-.102667-.4473-.154-.9277-.154-1.441 0-.6893.102667-1.3127.308-1.87.20533-.5573.53533-1.0157.99-1.375.462-.3667 1.023-.55 1.683-.55.84333 0 1.52167.2933 2.035.88l-.462.682c-.42533-.4987-.94967-.748-1.573-.748-.45467 0-.84333.143-1.166.429-.31533.286-.54633.6417-.693 1.067-.13933.418-.209.88-.209 1.386 0 .1247.00367.22.011.286.18333-.2933.46567-.5573.847-.792.38867-.2347.79933-.352 1.232-.352.69667 0 1.26867.2053 1.716.616.45467.4033.682.979.682 1.727 0 .6673-.23467 1.2357-.704 1.705-.46933.462-1.09267.693-1.87.693zm-.033-.814c.528 0 .93867-.1577 1.232-.473.30067-.3227.451-.682.451-1.078 0-.5133-.15767-.9057-.473-1.177s-.72233-.407-1.221-.407c-.35933 0-.704.1027-1.034.308-.33.198-.59767.462-.803.792.05133.5427.22733 1.0193.528 1.43.30067.4033.74067.605 1.32.605z" fill="#253053" fill-opacity=".2"/><path d="m5.071 62.593c-.49867.3593-1.122.539-1.87.539s-1.375-.1797-1.881-.539c-.498667-.3593-.748-.8433-.748-1.452 0-.462.165-.8617.495-1.199.33733-.3373.75533-.5793 1.254-.726-.46933-.132-.858-.3447-1.166-.638-.308-.3007-.462-.6747-.462-1.122 0-.616.249333-1.0853.748-1.408.49867-.33 1.08533-.495 1.76-.495s1.26133.165 1.76.495c.506.3227.759.792.759 1.408 0 .4473-.154.8213-.462 1.122-.308.2933-.70033.506-1.177.638.49867.1467.913.3887 1.243.726.33733.3373.506.737.506 1.199 0 .6013-.253 1.0853-.759 1.452zm-1.87-3.751c.14667-.022.29333-.0587.44-.11.154-.0513.32633-.121.517-.209.19067-.0953.34467-.2237.462-.385.11733-.1687.176-.3557.176-.561 0-.3667-.154-.66-.462-.88-.30067-.22-.67833-.33-1.133-.33-.462 0-.84333.11-1.144.33s-.451.5133-.451.88c0 .2053.05867.3923.176.561.11733.1613.27133.2897.462.385.19067.088.35933.1577.506.209.154.044.30433.0807.451.11zm0 3.476c.46933 0 .869-.1173 1.199-.352.33733-.2347.506-.5427.506-.924 0-.2933-.11733-.55-.352-.77-.22733-.2273-.462-.385-.704-.473-.23467-.0953-.451-.154-.649-.176-.198.022-.418.0807-.66.176-.23467.088-.46933.2457-.704.473-.23467.22-.352.4767-.352.77 0 .3813.165.6893.495.924.33733.2347.74433.352 1.221.352z" fill="#253053" fill-opacity=".2"/><path d="m2.871 41h-.913v-6.127l-1.177 1.243-.55-.561 1.837-1.892h.803zm4.22254.132c-.484 0-.913-.11-1.287-.33-.36667-.2273-.66-.528-.88-.902-.21267-.374-.374-.7773-.484-1.21-.10267-.4327-.154-.8837-.154-1.353s.05133-.9203.154-1.353c.11-.4327.27133-.8323.484-1.199.22-.374.51333-.671.88-.891.374-.2273.803-.341 1.287-.341.47667 0 .902.1137 1.276.341.374.22.66733.517.88.891.22.3667.38133.7663.484 1.199.11.4327.165.8837.165 1.353s-.055.9203-.165 1.353c-.10267.4327-.264.836-.484 1.21-.21267.374-.506.6747-.88.902-.374.22-.79933.33-1.276.33zm-1.1-1.265c.29333.3007.66.451 1.1.451s.80667-.1503 1.1-.451c.29333-.308.495-.6747.605-1.1s.165-.902.165-1.43-.055-1.0047-.165-1.43-.31167-.7883-.605-1.089-.66-.451-1.1-.451-.80667.1503-1.1.451-.495.6637-.605 1.089-.165.902-.165 1.43.055 1.0047.165 1.43.31167.792.605 1.1z" fill="#253053" fill-opacity=".2"/><path d="m2.871 19h-.913v-6.127l-1.177 1.243-.55-.561 1.837-1.892h.803zm6.48854 0h-5.038v-.726c.76267-.6013 1.353-1.078 1.771-1.43.42533-.3593.83233-.737 1.221-1.133.396-.4033.67467-.759.836-1.067.16133-.3153.242-.627.242-.935 0-.44-.15033-.7737-.451-1.001s-.66-.341-1.078-.341c-.84333 0-1.507.308-1.991.924l-.561-.583c.27867-.3667.64167-.649 1.089-.847.45467-.2053.94233-.308 1.463-.308.66733 0 1.243.187 1.727.561.49133.374.737.9057.737 1.595 0 .682-.29333 1.364-.88 2.046-.58667.6747-1.48133 1.485-2.684 2.431h3.597z" fill="#253053" fill-opacity=".2"/><g stroke="#253053" stroke-opacity=".05"><path d="m15 82h401"/><path d="m15 60h401"/><path d="m15 38h401"/><path d="m15 16h401"/><path d="m29 0v148"/><path d="m51 0v148"/><path d="m249 0v148"/><path d="m73 0v148"/><path d="m271 0v148"/><path d="m95 0v148"/><path d="m293 0v148"/><path d="m117 0v148"/><path d="m315 0v148"/><path d="m139 0v148"/><path d="m337 0v148"/><path d="m161 0v148"/><path d="m359 0v148"/><path d="m183 0v148"/><path d="m381 0v148"/><path d="m205 0v148"/><path d="m403 0v148"/><path d="m227 0v148"/></g><path d="m21.9227 27.2208-1.8911 7.3382c-.021.0816-.0316.1654-.0316.2496v112.1914c0 .552.4477 1 1 1h397c.552 0 1-.448 1-1v-51.1976c0-.2253-.076-.444-.216-.6206l-6.724-8.4949c-.074-.0935-.164-.1731-.266-.2349l-9.622-5.8227c-.14-.0849-.257-.203-.341-.3438l-5.678-9.5303c-.047-.0788-.104-.1509-.171-.214l-6.314-5.983c-.365-.3454-.929-.3669-1.318-.0504l-7.441 6.0436c-.07.0564-.131.1218-.183.1946l-6.569 9.1887c-.243.3399-.672.4929-1.075.3837l-2.371-.6419c-.305-.0825-.553-.3039-.669-.5973l-.934-2.3601c-.285-.7197-1.244-.8569-1.719-.2459l-3.106 3.9941c-.3.386-.835.4984-1.265.2655l-1.62-.8772c-.349-.1885-.775-.1539-1.088.0884l-3.599 2.7833-6.399 4.7249c-.043.0318-.083.067-.121.1054l-4.873 4.9837c-.225.2308-.549.3385-.868.2892l-3.337-.5164c-.175-.0271-.34-.1003-.478-.212l-4.374-3.5532c-.077-.0625-.145-.1362-.2-.2187l-1.841-2.7408c-.252-.3747-.723-.5344-1.151-.3897l-3.663 1.2397c-.203.0689-.379.2014-.502.3779l-1.522 2.198c-.035.0503-.074.0973-.117.1404l-3.399 3.3739c-.041.0408-.086.0779-.133.111l-3.881 2.7014c-.106.0743-.198.1687-.268.2779l-3.452 5.3401c-.305.471-.936.6-1.401.286l-1.436-.973c-.046-.03-.088-.065-.128-.102l-1.811-1.7168c-.291-.2755-.718-.3509-1.086-.1917l-2.152.9322c-.119.0515-.226.1257-.317.2185l-5.05 5.1648c-.067.069-.124.147-.169.232l-1.779 3.37c-.272.516-.925.69-1.418.379l-1.959-1.237c-.384-.243-.885-.196-1.217.115l-5.9 5.518-5.629 6.373c-.427.483-1.192.442-1.565-.083l-5.086-7.161c-.04-.056-.085-.107-.135-.154l-3.572-3.315c-.284-.264-.696-.34-1.056-.194l-1.525.62c-.155.062-.291.163-.397.292l-2.083 2.537c-.07.086-.126.183-.165.288l-2.001 5.419c-.168.455-.639.724-1.116.638l-2.004-.362c-.417-.075-.837.121-1.047.49l-3.867 6.805c-.269.473-.867.645-1.345.386l-2.89-1.565c-.512-.278-1.152-.06-1.389.472l-3.234 7.254c-.238.532-.878.75-1.39.473l-2.009-1.088c-.345-.187-.768-.155-1.08.082l-1.286.974c-.553.42-1.355.161-1.56-.502l-2.245-7.297c-.154-.498-.665-.795-1.174-.681l-8.067 1.798c-.556.124-1.103-.241-1.202-.803l-3.249-18.47c-.059-.339-.289-.623-.608-.753l-1.362-.553c-.299-.121-.638-.091-.91.081l-1.843 1.164c-.598.378-1.389.032-1.517-.664l-3.008-16.2851c-.123-.6678-.862-1.0211-1.459-.6977l-2.036 1.1024c-.183.0987-.33.2516-.421.4375l-3.588 7.2846c-.379.7704-1.489.7357-1.82-.0569l-7.258-17.4036c-.079-.1899-.215-.3507-.389-.4606l-2.934-1.8535c-.209-.1319-.361-.3365-.428-.5743l-5.056-17.9458c-.081-.2895-.289-.5269-.565-.6465l-1.606-.6956c-.498-.2159-1.078.0054-1.305.4984l-.907 1.9639c-.242.5242-.876.7351-1.384.4602l-1.525-.8256c-.297-.1608-.655-.1608-.952 0l-1.623.8786c-.164.0891-.3.2226-.393.3853l-1.057 1.86c-.434.7642-1.572.6366-1.827-.2048l-4.511-14.928c-.066-.2198-.206-.4101-.397-.5388l-4.245-2.8738c-.107-.072-.198-.1639-.27-.2706l-1.375-2.0478c-.406-.6041-1.301-.5864-1.682.0333l-.156.2532c-.376.6101-1.252.6389-1.667.0549l-1.935-2.7246c-.085-.1187-.142-.2543-.168-.3975l-.329-1.7783c-.114-.6161-.759-.9771-1.344-.7511l-1.92.7428c-.565.2185-1.193-.1116-1.334-.7009l-1.707-7.1626c-.173-.7263-1.052-1.0136-1.62-.5298l-2.453 2.0865c-.26.2218-.616.2949-.943.1937l-3.332-1.0308c-.168-.052-.319-.1475-.439-.2769l-1.153-1.2483c-.261-.2831-.662-.3908-1.03-.2769l-2.587.8004c-.515.1594-1.064-.1185-1.24-.6281l-1.007-2.9062c-.219-.6332-.987-.8758-1.53-.4836l-.524.3784c-.098.0709-.183.159-.249.2602l-2.755 4.1757c-.055.0834-.097.1747-.125.2706l-1.336 4.5834c-.19.651-.959.9283-1.521.5482l-1.072-.7257c-.094-.0636-.177-.1427-.244-.234l-1.273-1.7229c-.445-.6026-1.37-.5198-1.701.1523l-1.568 3.1843c-.038.0764-.066.1574-.083.2408l-.731 3.5623c-.22 1.071-1.753 1.0631-1.961-.0101l-1.376-7.0785c-.013-.0661-.033-.1307-.058-.1929l-5.114-12.3067c-.088-.2116-.246-.3866-.448-.4957l-.59-.3194c-.478-.2592-1.076-.0879-1.345.3853l-.374.6577c-.476.8374-1.744.5841-1.862-.3718l-1.382-11.2219c-.007-.06492-.022-.12889-.042-.191l-1.716-5.20149c-.322-.9765-1.731-.88959-1.93.11909l-.487 2.45958c-.174.87946-1.365 1.0365-1.761.23224-.385-.78266-1.537-.66075-1.75.18526l-2.879 11.43282c-.016.062-.026.1253-.029.1891l-1.1021 19.9894c-.035.6349-.646 1.0764-1.2598.9102l-.1872-.0507c-.5356-.145-1.0867.1737-1.2283.7101l-12.4271 47.1022c-.1365.5172-.6558.8355-1.1786.7223l-1.1148-.2415c-.5039-.1091-1.0082.1827-1.1646.6739l-8.0936 25.4178c-.2138.672-1.0363.917-1.5833.473l-1.0034-.815c-.1368-.111-.2417-.256-.3043-.421l-3.263-8.581c-.3007-.791-1.3862-.875-1.8042-.139l-.1111.195c-.4398.774-1.5955.631-1.8331-.227l-1.0477-3.781c-.0472-.171-.1389-.326-.2657-.4496l-2.5212-2.4572c-.1455-.1418-.2443-.3245-.2834-.5239l-4.0231-20.5392c-.0201-.1025-.0561-.2011-.1066-.2925l-5.4811-9.8927c-.4697-.8478-1.75-.5985-1.8674.3636l-3.6975 30.3176c-.0276.2261-.1316.436-.2947.595l-1.3449 1.3108c-.5726.5581-1.5361.2518-1.6813-.5345l-.684-3.7036c-.0876-.4742-.5011-.8183-.9834-.8183h-1.1662c-.5282 0-.9653.4107-.9981.9378l-1.6732 26.8777c-.0197.316-.1878.604-.4532.777l-1.1932.775c-.6151.4-1.4369.023-1.5358-.704l-3.9006-28.6635-3.7498-66.1317c-.0646-1.14-1.6818-1.2987-1.9667-.193z" fill="url(#a)"/><path d="m15 104h401" stroke="#253053" stroke-opacity=".05"/><path d="m15 126h401" stroke="#253053" stroke-opacity=".05"/><path d="m15 148h401" stroke="#253053" stroke-opacity=".05"/><path d="m20 34.6818 1.9227-7.461c.2849-1.1057 1.9021-.947 1.9667.193l3.7498 66.1317 3.9006 28.6635c.0989.727.9207 1.104 1.5358.704l1.1932-.775c.2654-.173.4335-.461.4532-.777l1.6732-26.8777c.0328-.5271.4699-.9378.9981-.9378h1.1662c.4823 0 .8958.3441.9834.8183l.684 3.7036c.1452.7863 1.1087 1.0926 1.6813.5345l1.3449-1.3108c.1631-.159.2671-.3689.2947-.595l3.6975-30.3176c.1174-.9621 1.3977-1.2114 1.8674-.3636l5.481 9.8927c.0506.0914.0866.19.1067.2925l4.0231 20.5392c.0391.1994.1379.3821.2834.5239l2.5212 2.4572c.1267.1236.2185.2786.2657.4496l1.0477 3.781c.2376.858 1.3933 1.001 1.8331.227l.1111-.195c.418-.736 1.5035-.652 1.8042.139l3.263 8.581c.0626.165.1675.31.3043.421l1.0034.815c.547.444 1.3695.199 1.5833-.473l8.0936-25.4178c.1564-.4912.6607-.783 1.1646-.6739l1.1148.2415c.5228.1132 1.0421-.2051 1.1786-.7223l12.4271-47.1022c.1416-.5364.6927-.8551 1.2283-.7101l.1872.0507c.6138.1662 1.2248-.2753 1.2598-.9102l1.1021-19.9894c.003-.0638.013-.1271.029-.1891l2.879-11.43282c.213-.84601 1.365-.96792 1.75-.18526.396.80426 1.587.64722 1.761-.23224l.487-2.45957c.199-1.00869 1.608-1.0956 1.93-.11909l1.716 5.20148c.02.06211.034.12608.042.191l1.382 11.2219c.118.9559 1.386 1.2092 1.862.3718l.374-.6577c.269-.4732.867-.6445 1.345-.3853l.59.3194c.202.1091.36.2841.448.4957l5.114 12.3067c.025.0622.045.1268.058.1929l1.376 7.0785c.208 1.0732 1.741 1.0811 1.961.0101l.731-3.5623c.017-.0834.045-.1644.083-.2408l1.568-3.1843c.331-.6721 1.256-.7549 1.701-.1523l1.273 1.7229c.067.0913.15.1704.244.234l1.072.7257c.562.3801 1.331.1028 1.521-.5482l1.336-4.5834c.028-.0959.07-.1872.125-.2706l2.755-4.1757c.066-.1012.151-.1893.249-.2602l.524-.3784c.543-.3922 1.311-.1496 1.53.4836l1.007 2.9062c.176.5096.725.7875 1.24.6281l2.587-.8004c.368-.1139.769-.0062 1.03.2769l1.153 1.2483c.12.1294.271.2249.439.2769l3.332 1.0308c.327.1012.683.0281.943-.1937l2.453-2.0865c.568-.4838 1.447-.1965 1.62.5298l1.707 7.1626c.141.5893.769.9194 1.334.7009l1.92-.7428c.585-.226 1.23.135 1.344.7511l.329 1.7783c.026.1432.083.2788.168.3975l1.935 2.7246c.415.584 1.291.5552 1.667-.0549l.156-.2532c.381-.6197 1.276-.6374 1.682-.0333l1.375 2.0478c.072.1067.163.1986.27.2706l4.245 2.8738c.191.1287.331.319.397.5388l4.511 14.928c.255.8414 1.393.969 1.827.2048l1.057-1.86c.093-.1627.229-.2962.393-.3853l1.623-.8786c.297-.1608.655-.1608.952 0l1.525.8256c.508.2749 1.142.064 1.384-.4602l.907-1.9639c.227-.493.807-.7143 1.305-.4984l1.606.6956c.276.1196.484.357.565.6465l5.056 17.9458c.067.2378.219.4424.428.5743l2.934 1.8535c.174.1099.31.2707.389.4606l7.258 17.4036c.331.7926 1.441.8273 1.82.0569l3.588-7.2846c.091-.1859.238-.3388.421-.4375l2.036-1.1024c.597-.3234 1.336.0299 1.459.6977l3.008 16.2851c.128.696.919 1.042 1.517.664l1.842-1.164c.273-.172.612-.202.911-.081l1.362.553c.319.13.549.414.608.753l3.249 18.47c.099.562.646.927 1.202.803l8.067-1.798c.509-.114 1.02.183 1.174.681l2.245 7.297c.205.663 1.007.922 1.56.502l1.286-.974c.312-.237.735-.269 1.08-.082l2.009 1.088c.512.277 1.152.059 1.39-.473l3.234-7.254c.237-.532.877-.75 1.389-.472l2.89 1.565c.478.259 1.076.087 1.345-.386l3.867-6.805c.21-.369.63-.565 1.047-.49l2.004.362c.477.086.948-.183 1.116-.638l2.001-5.419c.039-.105.095-.202.165-.288l2.083-2.537c.106-.129.242-.23.397-.292l1.525-.62c.36-.146.772-.07 1.056.194l3.572 3.315c.05.047.095.098.135.154l5.086 7.161c.373.525 1.138.566 1.565.083l5.629-6.373 5.9-5.518c.332-.311.833-.358 1.217-.115l1.959 1.237c.493.311 1.146.137 1.418-.379l1.779-3.37c.045-.085.102-.163.169-.232l5.05-5.1648c.09-.0928.198-.167.317-.2185l2.152-.9322c.368-.1592.795-.0838 1.086.1917l1.811 1.7168c.04.037.082.072.128.102l1.436.973c.465.314 1.096.185 1.401-.286l3.452-5.3401c.07-.1092.162-.2036.268-.2779l3.881-2.7014c.047-.0331.092-.0702.133-.111l3.399-3.3739c.043-.0431.082-.0901.117-.1404l1.522-2.198c.123-.1765.299-.309.502-.3779l3.663-1.2397c.428-.1447.899.015 1.151.3897l1.841 2.7408c.055.0824.122.1562.2.2187l4.374 3.5532c.138.1117.303.1849.478.212l3.337.5164c.319.0493.643-.0584.868-.2892l4.873-4.9837c.038-.0384.078-.0736.121-.1054l6.399-4.7249 3.599-2.7833c.313-.2423.739-.2769 1.088-.0884l1.62.8772c.43.2329.965.1205 1.265-.2655l3.106-3.9941c.475-.611 1.434-.4738 1.719.2459l.934 2.3601c.116.2934.364.5148.669.5973l2.371.6419c.403.1092.832-.0438 1.075-.3837l6.569-9.1887c.052-.0728.113-.1382.183-.1946l7.441-6.0436c.389-.3165.953-.295 1.318.0504l6.314 5.983c.067.0631.124.1352.171.214l5.678 9.5303c.084.1408.201.2589.341.3438l9.622 5.8227c.102.0618.192.1414.266.2349l6.94 8.7676" stroke="#137ddf"/></svg>