<svg fill="none" viewBox="0 0 154 41" xmlns="http://www.w3.org/2000/svg"><g stroke-linecap="round" stroke-linejoin="round"><path d="m29.0415 5.125h-17.0833c-1.887 0-3.4167 1.52969-3.4167 3.41667v23.91663c0 1.887 1.5297 3.4167 3.4167 3.4167h17.0833c1.887 0 3.4167-1.5297 3.4167-3.4167v-23.91663c0-1.88698-1.5297-3.41667-3.4167-3.41667z" stroke="#ec4a4a"/><path d="m15.375 11.9583h10.25" stroke="#ec4a4a"/><path d="m15.375 18.7917h10.25" stroke="#ec4a4a"/><path d="m15.375 25.625h6.8333" stroke="#ec4a4a"/><g stroke="#1358df"><path d="m124.732 5.39017c.45-1.85356 3.086-1.85356 3.536 0 .068.27845.2.53704.386.75472s.421.38829.686.49795c.265.10967.552.15528.837.13313.286-.02214.562-.11143.807-.26058 1.629-.99222 3.494.87189 2.502 2.50167-.149.24452-.238.52074-.261.8062-.022.28544.024.57214.134.83664.109.2645.279.4995.497.6858.217.1862.476.3186.754.3862 1.853.4497 1.853 3.0865 0 3.5362-.279.0674-.537.1997-.755.386s-.388.4213-.498.686-.155.5516-.133.8372c.022.2857.111.5621.261.8067.992 1.6287-.872 3.4939-2.502 2.5017-.245-.149-.521-.2381-.806-.2602-.286-.0221-.572.0235-.837.133-.264.1095-.499.2799-.686.4974-.186.2174-.318.4757-.386.7539-.45 1.8536-3.086 1.8536-3.536 0-.068-.2784-.2-.537-.386-.7547s-.421-.3883-.686-.4979c-.265-.1097-.552-.1553-.837-.1332-.286.0222-.562.1115-.807.2606-1.629.9922-3.494-.8719-2.502-2.5017.149-.2445.238-.5207.261-.8062.022-.2854-.024-.5721-.134-.8366-.109-.2645-.279-.4995-.497-.6858-.217-.1862-.476-.3186-.754-.3862-1.853-.4497-1.853-3.0865 0-3.5362.279-.0674.537-.1997.755-.386s.388-.4213.498-.686.155-.5516.133-.83723c-.022-.28565-.111-.56204-.261-.80667-.992-1.62872.872-3.49389 2.502-2.50167 1.056.64178 2.424.07389 2.715-1.12416z"/><path d="m135.795 20.9712c-.264-1.6685 1.892-2.5658 2.891-1.2034.15.2047.346.3711.572.4857.227.1146.477.1741.731.1736.253-.0004.503-.0607.729-.176s.422-.2824.571-.4876c.994-1.3655 3.153-.4761 2.897 1.194-.039.2506-.018.5068.061.7477.08.2409.214.4597.394.6387.179.179.399.3132.64.3915s.497.0986.748.0592c1.668-.2631 2.566 1.8927 1.203 2.8911-.205.1499-.371.346-.486.5724-.114.2264-.174.4767-.173.7304 0 .2537.061.5038.176.7298s.282.4216.487.5708c1.366.994.477 3.1533-1.194 2.8967-.25-.0386-.506-.0175-.747.0616s-.46.2139-.639.3935-.313.3988-.391.64c-.079.2412-.099.4974-.06.7479.264 1.6685-1.892 2.5658-2.891 1.2034-.15-.2047-.346-.3712-.572-.4857-.227-.1146-.477-.1741-.731-.1737-.253.0004-.503.0608-.729.1761s-.422.2823-.571.4875c-.994 1.3655-3.153.4762-2.897-1.194.039-.2506.018-.5067-.061-.7476-.08-.2409-.214-.4598-.394-.6388-.179-.179-.399-.3131-.64-.3914s-.497-.0986-.748-.0592c-1.668.2631-2.566-1.8927-1.203-2.8911.205-.1499.371-.3461.486-.5725.114-.2264.174-.4766.173-.7303 0-.2538-.061-.5038-.176-.7298s-.282-.4216-.487-.5709c-1.366-.9939-.477-3.1532 1.194-2.8966 1.081.1655 2.006-.7644 1.837-1.843z"/><path d="m126.5 17c1.933 0 3.5-1.567 3.5-3.5s-1.567-3.5-3.5-3.5-3.5 1.567-3.5 3.5 1.567 3.5 3.5 3.5z"/><path d="m141.105 29.4813c1.37-.6103 1.987-2.216 1.376-3.5864-.61-1.3704-2.216-1.9866-3.586-1.3763-1.37.6102-1.987 2.2159-1.376 3.5863.61 1.3704 2.215 1.9866 3.586 1.3764z"/><g opacity=".2"><path d="m54.75 27.5 6.5-6.5"/><path d="m54.75 14.5 6.5 6.5"/><path d="m72.75 27.5 6.5-6.5"/><path d="m72.75 14.5 6.5 6.5"/><path d="m91.75 27.5 6.5-6.5"/><path d="m91.75 14.5 6.5 6.5"/></g></g></g></svg>