<svg fill="none" viewBox="0 0 269 131" xmlns="http://www.w3.org/2000/svg"><path d="m37 2.1547c-2.4752-1.429062-5.5248-1.429062-8 0l-23.31089 13.4585c-2.47521 1.4291-4 4.0701-4 6.9283v26.917c0 2.8582 1.52479 5.4992 4 6.9282l23.31089 13.4586c2.4752 1.4291 5.5248 1.4291 8 0l23.3109-13.4586c2.4752-1.429 4-4.07 4-6.9282v-26.917c0-2.8582-1.5248-5.4992-4-6.9283z" fill="#1358df" fill-opacity=".1" stroke="#1358df" stroke-width="2"/><path d="m240.75 2.58771c-2.321-1.33974-5.179-1.33974-7.5 0l-23.311 13.45859c-2.32 1.3397-3.75 3.8157-3.75 6.4952v26.917c0 2.6795 1.43 5.1555 3.75 6.4952l23.311 13.4586c2.321 1.3397 5.179 1.3397 7.5 0l23.311-13.4586c2.32-1.3397 3.75-3.8157 3.75-6.4952v-26.917c0-2.6795-1.43-5.1555-3.75-6.4952z" fill="#f46565" fill-opacity=".1" stroke="#ec4a4a"/><path d="m207 61.1547c-2.475-1.4291-5.525-1.4291-8 0l-23.311 13.4585c-2.475 1.4291-4 4.0701-4 6.9283v26.9175c0 2.858 1.525 5.499 4 6.928l23.311 13.458c2.475 1.429 5.525 1.429 8 0l23.311-13.458c2.475-1.429 4-4.07 4-6.928v-26.9175c0-2.8582-1.525-5.4992-4-6.9283z" fill="#1358df" fill-opacity=".1" stroke="#1358df" stroke-width="2"/><path d="m104.75 2.58771c-2.321-1.33974-5.1795-1.33974-7.5 0l-23.3109 13.45859c-2.3205 1.3397-3.75 3.8157-3.75 6.4952v26.917c0 2.6795 1.4295 5.1555 3.75 6.4952l23.3109 13.4586c2.3205 1.3397 5.179 1.3397 7.5 0l23.311-13.4586c2.32-1.3397 3.75-3.8157 3.75-6.4952v-26.917c0-2.6795-1.43-5.1555-3.75-6.4952z" fill="#ec4a4a" fill-opacity=".1" stroke="#ec4a4a"/><path d="m100 11.5774c.619-.3573 1.381-.3573 2 0l19.651 11.3452c.618.3573 1 1.0176 1 1.7321v22.6906c0 .7145-.382 1.3748-1 1.7321l-19.651 11.3452c-.619.3573-1.381.3573-2 0l-19.6506-11.3452c-.6188-.3573-1-1.0176-1-1.7321v-22.6906c0-.7145.3812-1.3748 1-1.7321z" fill="#fff"/><path d="m236 11.5774c.619-.3573 1.381-.3573 2 0l19.651 11.3452c.618.3573 1 1.0176 1 1.7321v22.6906c0 .7145-.382 1.3748-1 1.7321l-19.651 11.3452c-.619.3573-1.381.3573-2 0l-19.651-11.3452c-.618-.3573-1-1.0176-1-1.7321v-22.6906c0-.7145.382-1.3748 1-1.7321z" fill="#fff"/><path d="m32 11.5774c.6188-.3573 1.3812-.3573 2 0l19.6506 11.3452c.6188.3573 1 1.0176 1 1.7321v22.6906c0 .7145-.3812 1.3748-1 1.7321l-19.6506 11.3452c-.6188.3573-1.3812.3573-2 0l-19.6506-11.3452c-.6188-.3573-1-1.0176-1-1.7321v-22.6906c0-.7145.3812-1.3748 1-1.7321z" fill="#fff"/><path d="m71 61.1547c-2.4752-1.4291-5.5248-1.4291-8 0l-23.3109 13.4585c-2.4752 1.4291-4 4.0701-4 6.9283v26.9175c0 2.858 1.5248 5.499 4 6.928l23.3109 13.458c2.4752 1.429 5.5248 1.429 8 0l23.3109-13.458c2.4752-1.429 4-4.07 4-6.928v-26.9175c0-2.8582-1.5248-5.4992-4-6.9283z" fill="#1358df" fill-opacity=".1" stroke="#1358df" stroke-width="2"/><path d="m202 70.5774c.619-.3573 1.381-.3573 2 0l19.651 11.3452c.618.3573 1 1.0176 1 1.7321v22.6903c0 .715-.382 1.375-1 1.732l-19.651 11.346c-.619.357-1.381.357-2 0l-19.651-11.346c-.618-.357-1-1.017-1-1.732v-22.6903c0-.7145.382-1.3748 1-1.7321z" fill="#fff"/><path d="m65 70.5774c.6188-.3573 1.3812-.3573 2 0l19.6506 11.3452c.6188.3573 1 1.0176 1 1.7321v22.6903c0 .715-.3812 1.375-1 1.732l-19.6506 11.346c-.6188.357-1.3812.357-2 0l-19.6506-11.346c-.6188-.357-1-1.017-1-1.732v-22.6903c0-.7145.3812-1.3748 1-1.7321z" fill="#fff"/><g stroke-linecap="round" stroke-linejoin="round"><path d="m33 48c6.6274 0 12-5.3726 12-12s-5.3726-12-12-12-12 5.3726-12 12 5.3726 12 12 12z" stroke="#1358df"/><path d="m36.7333 32c-.2415-.419-.5924-.7644-1.0152-.9993-.4227-.2348-.9014-.3503-1.3848-.334h-2.6666c-.7073 0-1.3856.2809-1.8857.781-.5.5001-.781 1.1784-.781 1.8856 0 .7073.281 1.3856.781 1.8857.5001.5001 1.1784.781 1.8857.781h2.6666c.7073 0 1.3856.281 1.8857.7811.5.5001.781 1.1783.781 1.8856 0 .7072-.281 1.3855-.781 1.8856-.5001.5001-1.1784.781-1.8857.781h-2.6666c-.4834.0163-.9621-.0992-1.3848-.334-.4228-.2349-.7737-.5803-1.0152-.9993" stroke="#1358df"/><path d="m33 41.3333v2.6667m0-16v2.6667z" stroke="#1358df"/><path d="m106.343 30.0533c-1.465-1.324-3.37-2.0559-5.344-2.0533-1.0503.0007-2.0897.2082-3.0594.6106s-1.8506.9919-2.5925 1.7348c-.7419.7428-1.3302 1.6245-1.7313 2.5948-.4011.9702-.6072 2.0099-.6065 3.0598 0 4.4187 3.576 8 7.9897 8 1.972.0028 3.874-.7271 5.338-2.048" stroke="#ec4a4a"/><path d="m101 46.6667v-2.6667" stroke="#ec4a4a"/><path d="m101 28v-2.6666" stroke="#ec4a4a"/><path d="m195 87h10.667c1.061 0 2.078.4214 2.828 1.1716.75.7501 1.172 1.7675 1.172 2.8284s-.422 2.0783-1.172 2.8284c-.75.7502-1.767 1.1716-2.828 1.1716 1.061 0 2.078.4214 2.828 1.1716.75.7501 1.172 1.7675 1.172 2.8284 0 1.061-.422 2.078-1.172 2.828-.75.751-1.767 1.172-2.828 1.172h-10.667" stroke="#1358df"/><path d="m197.667 87v16" stroke="#1358df"/><path d="m197.667 95h8" stroke="#1358df"/><path d="m199 83v4" stroke="#1358df"/><path d="m204.333 83v4" stroke="#1358df"/><path d="m199 103v4" stroke="#1358df"/><path d="m204.333 103v4" stroke="#1358df"/><path d="m74.9999 104.333h-10.9254c-.382 0-.7597-.082-1.1073-.24-.3476-.159-.657-.39-.9074-.679-.2503-.289-.4357-.628-.5436-.994-.1079-.367-.1357-.752-.0817-1.131l2.232-15.6223" stroke="#1358df"/><path d="m69.6667 91-12 5.3333" stroke="#1358df"/><path d="m243.667 30.6667v-4c0-.3536-.141-.6928-.391-.9428s-.589-.3905-.943-.3905h-13.333c-.707 0-1.386.2809-1.886.781s-.781 1.1784-.781 1.8856m0 0c0 .7073.281 1.3856.781 1.8857s1.179.781 1.886.781h16c.354 0 .693.1405.943.3905.25.2501.39.5892.39.9428v4m-20-8v16c0 .7073.281 1.3856.781 1.8857s1.179.781 1.886.781h16c.354 0 .693-.1405.943-.3905.25-.2501.39-.5892.39-.9428v-4" stroke="#ec4a4a"/><path d="m247.667 36v5.3333h-5.334c-.707 0-1.385-.2809-1.885-.781s-.781-1.1784-.781-1.8856c0-.7073.281-1.3856.781-1.8857.5-.5 1.178-.781 1.885-.781z" stroke="#ec4a4a"/></g></svg>