<svg fill="none" viewBox="0 0 276 77" xmlns="http://www.w3.org/2000/svg" xmlns:xlink="http://www.w3.org/1999/xlink"><linearGradient id="a" gradientUnits="userSpaceOnUse" x1="145" x2="145" y1="10" y2="73"><stop offset="0" stop-color="#137ddf" stop-opacity=".56"/><stop offset="1" stop-color="#137ddf" stop-opacity="0"/></linearGradient><path d="m3.366 76.132c-.484 0-.913-.11-1.287-.33-.36667-.2273-.66-.528-.88-.902-.212667-.374-.374-.7773-.484-1.21-.102667-.4327-.154-.8837-.154-1.353s.051333-.9203.154-1.353c.11-.4327.271333-.8323.484-1.199.22-.374.51333-.671.88-.891.374-.2273.803-.341 1.287-.341.47667 0 .902.1137 1.276.341.374.22.66733.517.88.891.22.3667.38133.7663.484 1.199.11.4327.165.8837.165 1.353s-.055.9203-.165 1.353c-.10267.4327-.264.836-.484 1.21-.21267.374-.506.6747-.88.902-.374.22-.79933.33-1.276.33zm-1.1-1.265c.29333.3007.66.451 1.1.451s.80667-.1503 1.1-.451c.29333-.308.495-.6747.605-1.1s.165-.902.165-1.43-.055-1.0047-.165-1.43-.31167-.7883-.605-1.089-.66-.451-1.1-.451-.80667.1503-1.1.451-.495.6637-.605 1.089-.165.902-.165 1.43.055 1.0047.165 1.43.31167.792.605 1.1z" fill="#253053" fill-opacity=".2"/><path d="m5.632 54h-5.038v-.726c.76267-.6013 1.353-1.078 1.771-1.43.42533-.3593.83233-.737 1.221-1.133.396-.4033.67467-.759.836-1.067.16133-.3153.242-.627.242-.935 0-.44-.15033-.7737-.451-1.001s-.66-.341-1.078-.341c-.84333 0-1.507.308-1.991.924l-.561-.583c.278667-.3667.64167-.649 1.089-.847.45467-.2053.94233-.308 1.463-.308.66733 0 1.243.187 1.727.561.49133.374.737.9057.737 1.595 0 .682-.29333 1.364-.88 2.046-.58667.6747-1.48133 1.485-2.684 2.431h3.597z" fill="#253053" fill-opacity=".2"/><path d="m4.752 32h-.913v-1.859h-3.487v-.759l3.146-4.719h1.254v4.675h1.034v.803h-1.034zm-.913-2.662v-3.828l-2.574 3.828z" fill="#253053" fill-opacity=".2"/><path d="m3.388 10.132c-.49133 0-.924-.1027-1.298-.308-.374-.20533-.671-.484-.891-.836-.212667-.35933-.374-.759-.484-1.199-.102667-.44733-.154-.92767-.154-1.441 0-.68933.102667-1.31267.308-1.87.20533-.55733.53533-1.01567.99-1.375.462-.36667 1.023-.55 1.683-.55.84333 0 1.52167.29333 2.035.88l-.462.682c-.42533-.49867-.94967-.748-1.573-.748-.45467 0-.84333.143-1.166.429-.31533.286-.54633.64167-.693 1.067-.13933.418-.209.88-.209 1.386 0 .12467.00367.22.011.286.18333-.29333.46567-.55733.847-.792.38867-.23467.79933-.352 1.232-.352.69667 0 1.26867.20533 1.716.616.45467.40333.682.979.682 1.727 0 .66733-.23467 1.23567-.704 1.705-.46933.462-1.09267.693-1.87.693zm-.033-.814c.528 0 .93867-.15767 1.232-.473.30067-.32267.451-.682.451-1.078 0-.51333-.15767-.90567-.473-1.177s-.72233-.407-1.221-.407c-.35933 0-.704.10267-1.034.308-.33.198-.59767.462-.803.792.05133.54267.22733 1.01933.528 1.43.30067.40333.74067.605 1.32.605z" fill="#253053" fill-opacity=".2"/><g stroke="#253053" stroke-opacity=".05"><path d="m15 7h260"/><path d="m26 0v73"/><path d="m44 0v73"/><path d="m62 0v73"/><path d="m80 0v73"/><path d="m98 0v73"/><path d="m116 0v73"/><path d="m134 0v73"/><path d="m152 0v73"/><path d="m170 0v73"/><path d="m188 0v73"/><path d="m206 0v73"/><path d="m224 0v73"/><path d="m242 0v73"/><path d="m260 0v73"/><path d="m15 29h260"/><path d="m15 51h260"/><path d="m15 73h260"/></g><path d="m44.4632 52.9882c-9.6488 3.953-29.4632 13.3412-29.4632 13.3412v6.6706h260v-63l-26.879 3.3353-30.497 14.4529-28.946-10.3764-28.946 18.9-28.947-3.7059-27.912 10.0059c-9.8213 5.3117-29.9804 17.047-29.9804 17.047s-19.1252-4.0764-28.4294-6.6706z" fill="url(#a)"/><path d="m15 66s18.5802-8.752 28.5176-12.8743c.6125-.2541 1.29-.2924 1.9304-.1202 8.1609 2.1946 22.2764 5.2554 26.3279 6.1244.7253.1556 1.4636.0378 2.106-.3331 4.1359-2.3874 20.2239-11.6525 28.7961-16.2709.133-.0716.266-.1303.409-.181l27.023-9.6307c.444-.1581.919-.2095 1.386-.15l27.145 3.4549c.704.0896 1.417-.0732 2.013-.4596l26.78-17.3837c.784-.5089 1.76-.6233 2.641-.3096l26.383 9.4025c.747.2661 1.569.2258 2.286-.112l28.943-13.6362c.288-.1356.595-.2246.911-.2635l26.402-3.257" stroke="#137ddf" stroke-width="2"/><path d="m15.5 73 26.781-31.0851c.7463-.8662 1.92-1.2329 3.0267-.9456l48.9941 12.7196c.7674.1993 1.5825.0866 2.2671-.3133l48.5081-28.3363c.597-.3488 1.296-.4806 1.979-.3732l42.461 6.6793c.638.1004 1.292-.0079 1.863-.3088l55.173-29.03807c.612-.3224 1.318-.42305 1.996-.28488l25.951 5.28635" stroke="#ec4a4a" stroke-width="2"/></svg>