<svg fill="none" viewBox="0 0 280 76" xmlns="http://www.w3.org/2000/svg"><path d="m143.75 2.58771c-2.321-1.33974-5.179-1.33974-7.5 0l-23.311 13.45859c-2.32 1.3397-3.75 3.8157-3.75 6.4952v26.917c0 2.6795 1.43 5.1555 3.75 6.4952l23.311 13.4586c2.321 1.3397 5.179 1.3397 7.5 0l23.311-13.4586c2.32-1.3397 3.75-3.8157 3.75-6.4952v-26.917c0-2.6795-1.43-5.1555-3.75-6.4952z" fill="#ec4a4a" fill-opacity=".1" stroke="#ec4a4a"/><path d="m139 11.5774c.619-.3573 1.381-.3573 2 0l19.651 11.3452c.618.3573 1 1.0176 1 1.7321v22.6906c0 .7145-.382 1.3748-1 1.7321l-19.651 11.3452c-.619.3573-1.381.3573-2 0l-19.651-11.3452c-.618-.3573-1-1.0176-1-1.7321v-22.6906c0-.7145.382-1.3748 1-1.7321z" fill="#fff"/><path d="m145.343 30.0533c-1.465-1.324-3.37-2.0559-5.344-2.0533-1.05.0007-2.09.2082-3.059.6106-.97.4024-1.851.9919-2.593 1.7348-.742.7428-1.33 1.6245-1.731 2.5948-.401.9702-.607 2.0099-.607 3.0598 0 4.4187 3.576 8 7.99 8 1.972.0028 3.874-.7271 5.338-2.048" stroke="#ec4a4a" stroke-linecap="round" stroke-linejoin="round"/><path d="m140 46.6667v-2.6667" stroke="#ec4a4a" stroke-linecap="round" stroke-linejoin="round"/><path d="m140 28v-2.6666" stroke="#ec4a4a" stroke-linecap="round" stroke-linejoin="round"/><path d="m249 6.1547c-2.475-1.42906-5.525-1.42906-8 0l-23.311 13.4585c-2.475 1.4291-4 4.0701-4 6.9283v26.917c0 2.8582 1.525 5.4992 4 6.9282l23.311 13.4586c2.475 1.4291 5.525 1.4291 8 0l23.311-13.4586c2.475-1.429 4-4.07 4-6.9282v-26.917c0-2.8582-1.525-5.4992-4-6.9283z" fill="#1358df" fill-opacity=".1" stroke="#1358df" stroke-width="2"/><path d="m244 15.5774c.619-.3573 1.381-.3573 2 0l19.651 11.3452c.618.3573 1 1.0176 1 1.7321v22.6906c0 .7145-.382 1.3748-1 1.7321l-19.651 11.3452c-.619.3573-1.381.3573-2 0l-19.651-11.3452c-.618-.3573-1-1.0176-1-1.7321v-22.6906c0-.7145.382-1.3748 1-1.7321z" fill="#fff"/><g stroke="#1358df"><path d="m237 32h10.667c1.061 0 2.078.4214 2.828 1.1716.75.7501 1.172 1.7675 1.172 2.8284s-.422 2.0783-1.172 2.8284c-.75.7502-1.767 1.1716-2.828 1.1716 1.061 0 2.078.4214 2.828 1.1716.75.7501 1.172 1.7675 1.172 2.8284s-.422 2.0783-1.172 2.8284c-.75.7502-1.767 1.1716-2.828 1.1716h-10.667" stroke-linecap="round" stroke-linejoin="round"/><path d="m239.667 32v16" stroke-linecap="round" stroke-linejoin="round"/><path d="m239.667 40h8" stroke-linecap="round" stroke-linejoin="round"/><path d="m241 28v4" stroke-linecap="round" stroke-linejoin="round"/><path d="m246.333 28v4" stroke-linecap="round" stroke-linejoin="round"/><path d="m241 48v4" stroke-linecap="round" stroke-linejoin="round"/><path d="m246.333 48v4" stroke-linecap="round" stroke-linejoin="round"/><path d="m39 2.1547c-2.4752-1.429062-5.5248-1.429062-8 0l-23.31089 13.4585c-2.47521 1.4291-4 4.0701-4 6.9283v26.917c0 2.8582 1.52479 5.4992 4 6.9282l23.31089 13.4586c2.4752 1.4291 5.5248 1.4291 8 0l23.3109-13.4586c2.4752-1.429 4-4.07 4-6.9282v-26.917c0-2.8582-1.5248-5.4992-4-6.9283z" fill="#1358df" fill-opacity=".1" stroke-width="2"/></g><path d="m33 11.5774c.6188-.3573 1.3812-.3573 2 0l19.6506 11.3452c.6188.3573 1 1.0176 1 1.7321v22.6906c0 .7145-.3812 1.3748-1 1.7321l-19.6506 11.3452c-.6188.3573-1.3812.3573-2 0l-19.6506-11.3452c-.6188-.3573-1-1.0176-1-1.7321v-22.6906c0-.7145.3812-1.3748 1-1.7321z" fill="#fff"/><path d="m43 45.3333h-10.9253c-.3821 0-.7598-.0821-1.1074-.2407s-.657-.3901-.9074-.6788c-.2503-.2886-.4357-.6277-.5436-.9943-.1078-.3665-.1357-.752-.0816-1.1302l2.232-15.6227" stroke="#1358df" stroke-linecap="round" stroke-linejoin="round"/><path d="m37.6667 32-12 5.3333" stroke="#1358df" stroke-linecap="round" stroke-linejoin="round"/><path d="m86 27v18.6667" stroke="#ec4a4a" stroke-linecap="round" stroke-linejoin="round"/><path d="m82 41.6667 4 4 4-4" stroke="#ec4a4a" stroke-linecap="round" stroke-linejoin="round"/><path d="m191 45v-18.6667" stroke="#1358df" stroke-linecap="round" stroke-linejoin="round"/><path d="m195 30.3333-4-4-4 4" stroke="#1358df" stroke-linecap="round" stroke-linejoin="round"/></svg>